<svg xmlns="http://www.w3.org/2000/svg" xmlns:xlink="http://www.w3.org/1999/xlink" width="64" zoomAndPan="magnify" viewBox="0 0 48 48" height="64" preserveAspectRatio="xMidYMid meet" version="1.0"><defs><clipPath id="8e2c8a0697"><path d="M 36 7 L 37 7 L 37 8 L 36 8 Z M 36 7 " clip-rule="nonzero"/></clipPath><clipPath id="bc8a48ab41"><path d="M 35.824219 -1.714844 L 48.625 10.410156 L 12.25 48.816406 L -0.550781 36.695312 Z M 35.824219 -1.714844 " clip-rule="nonzero"/></clipPath><clipPath id="7902e84e3d"><path d="M 35.824219 -1.714844 L 48.625 10.410156 L 12.25 48.816406 L -0.550781 36.695312 Z M 35.824219 -1.714844 " clip-rule="nonzero"/></clipPath><clipPath id="7256b80aa7"><path d="M 31 9 L 33 9 L 33 10 L 31 10 Z M 31 9 " clip-rule="nonzero"/></clipPath><clipPath id="29466726b8"><path d="M 35.824219 -1.714844 L 48.625 10.410156 L 12.25 48.816406 L -0.550781 36.695312 Z M 35.824219 -1.714844 " clip-rule="nonzero"/></clipPath><clipPath id="f79397a210"><path d="M 35.824219 -1.714844 L 48.625 10.410156 L 12.25 48.816406 L -0.550781 36.695312 Z M 35.824219 -1.714844 " clip-rule="nonzero"/></clipPath><clipPath id="4cb521cb91"><path d="M 29 15 L 34 15 L 34 21 L 29 21 Z M 29 15 " clip-rule="nonzero"/></clipPath><clipPath id="d1d336ef91"><path d="M 35.824219 -1.714844 L 48.625 10.410156 L 12.25 48.816406 L -0.550781 36.695312 Z M 35.824219 -1.714844 " clip-rule="nonzero"/></clipPath><clipPath id="667dc3edd5"><path d="M 35.824219 -1.714844 L 48.625 10.410156 L 12.25 48.816406 L -0.550781 36.695312 Z M 35.824219 -1.714844 " clip-rule="nonzero"/></clipPath><clipPath id="7c1f85c3d8"><path d="M 34 14 L 36 14 L 36 16 L 34 16 Z M 34 14 " clip-rule="nonzero"/></clipPath><clipPath id="dd19cb6817"><path d="M 35.824219 -1.714844 L 48.625 10.410156 L 12.25 48.816406 L -0.550781 36.695312 Z M 35.824219 -1.714844 " clip-rule="nonzero"/></clipPath><clipPath id="bfef2644c9"><path d="M 35.824219 -1.714844 L 48.625 10.410156 L 12.25 48.816406 L -0.550781 36.695312 Z M 35.824219 -1.714844 " clip-rule="nonzero"/></clipPath><clipPath id="6eff499ec5"><path d="M 33 4 L 34 4 L 34 5 L 33 5 Z M 33 4 " clip-rule="nonzero"/></clipPath><clipPath id="e2ba71a3ff"><path d="M 35.824219 -1.714844 L 48.625 10.410156 L 12.25 48.816406 L -0.550781 36.695312 Z M 35.824219 -1.714844 " clip-rule="nonzero"/></clipPath><clipPath id="a363d29275"><path d="M 35.824219 -1.714844 L 48.625 10.410156 L 12.25 48.816406 L -0.550781 36.695312 Z M 35.824219 -1.714844 " clip-rule="nonzero"/></clipPath><clipPath id="aa90da94b4"><path d="M 35 5 L 36 5 L 36 6 L 35 6 Z M 35 5 " clip-rule="nonzero"/></clipPath><clipPath id="da7b54c2a2"><path d="M 35.824219 -1.714844 L 48.625 10.410156 L 12.25 48.816406 L -0.550781 36.695312 Z M 35.824219 -1.714844 " clip-rule="nonzero"/></clipPath><clipPath id="ab8b1eeb71"><path d="M 35.824219 -1.714844 L 48.625 10.410156 L 12.25 48.816406 L -0.550781 36.695312 Z M 35.824219 -1.714844 " clip-rule="nonzero"/></clipPath><clipPath id="aa18ece194"><path d="M 5 1 L 46 1 L 46 44 L 5 44 Z M 5 1 " clip-rule="nonzero"/></clipPath><clipPath id="9a4ae6d515"><path d="M 35.824219 -1.714844 L 48.625 10.410156 L 12.25 48.816406 L -0.550781 36.695312 Z M 35.824219 -1.714844 " clip-rule="nonzero"/></clipPath><clipPath id="bc6a2b2afd"><path d="M 35.824219 -1.714844 L 48.625 10.410156 L 12.25 48.816406 L -0.550781 36.695312 Z M 35.824219 -1.714844 " clip-rule="nonzero"/></clipPath><clipPath id="b6397730e8"><path d="M 35.828125 -1.710938 L 48.636719 10.421875 L 12.25 48.84375 L -0.5625 36.710938 Z M 35.828125 -1.710938 " clip-rule="nonzero"/></clipPath><clipPath id="03da3afb7a"><path d="M 35.828125 -1.710938 L 48.617188 10.402344 L 12.238281 48.8125 L -0.550781 36.699219 Z M 35.828125 -1.710938 " clip-rule="nonzero"/></clipPath><clipPath id="facee63adf"><path d="M 43 12 L 44 12 L 44 13 L 43 13 Z M 43 12 " clip-rule="nonzero"/></clipPath><clipPath id="90fc505826"><path d="M 35.824219 -1.714844 L 48.625 10.410156 L 12.25 48.816406 L -0.550781 36.695312 Z M 35.824219 -1.714844 " clip-rule="nonzero"/></clipPath><clipPath id="e6ea0b6c5b"><path d="M 35.824219 -1.714844 L 48.625 10.410156 L 12.25 48.816406 L -0.550781 36.695312 Z M 35.824219 -1.714844 " clip-rule="nonzero"/></clipPath><clipPath id="cd9080d27a"><path d="M 37 10 L 39 10 L 39 11 L 37 11 Z M 37 10 " clip-rule="nonzero"/></clipPath><clipPath id="ba18396cc2"><path d="M 35.824219 -1.714844 L 48.625 10.410156 L 12.25 48.816406 L -0.550781 36.695312 Z M 35.824219 -1.714844 " clip-rule="nonzero"/></clipPath><clipPath id="f42e166236"><path d="M 35.824219 -1.714844 L 48.625 10.410156 L 12.25 48.816406 L -0.550781 36.695312 Z M 35.824219 -1.714844 " clip-rule="nonzero"/></clipPath><clipPath id="340c82a9a4"><path d="M 38 8 L 40 8 L 40 10 L 38 10 Z M 38 8 " clip-rule="nonzero"/></clipPath><clipPath id="26f922c007"><path d="M 35.824219 -1.714844 L 48.625 10.410156 L 12.25 48.816406 L -0.550781 36.695312 Z M 35.824219 -1.714844 " clip-rule="nonzero"/></clipPath><clipPath id="711e8eadff"><path d="M 35.824219 -1.714844 L 48.625 10.410156 L 12.25 48.816406 L -0.550781 36.695312 Z M 35.824219 -1.714844 " clip-rule="nonzero"/></clipPath><clipPath id="96da1d4f8d"><path d="M 37 7 L 38 7 L 38 9 L 37 9 Z M 37 7 " clip-rule="nonzero"/></clipPath><clipPath id="1a39df90fc"><path d="M 35.824219 -1.714844 L 48.625 10.410156 L 12.25 48.816406 L -0.550781 36.695312 Z M 35.824219 -1.714844 " clip-rule="nonzero"/></clipPath><clipPath id="fa38a72a87"><path d="M 35.824219 -1.714844 L 48.625 10.410156 L 12.25 48.816406 L -0.550781 36.695312 Z M 35.824219 -1.714844 " clip-rule="nonzero"/></clipPath><clipPath id="9b923af96c"><path d="M 37 12 L 38 12 L 38 13 L 37 13 Z M 37 12 " clip-rule="nonzero"/></clipPath><clipPath id="6e9b437144"><path d="M 35.824219 -1.714844 L 48.625 10.410156 L 12.25 48.816406 L -0.550781 36.695312 Z M 35.824219 -1.714844 " clip-rule="nonzero"/></clipPath><clipPath id="e366d6e675"><path d="M 35.824219 -1.714844 L 48.625 10.410156 L 12.25 48.816406 L -0.550781 36.695312 Z M 35.824219 -1.714844 " clip-rule="nonzero"/></clipPath><clipPath id="7fddce018b"><path d="M 36 8 L 37 8 L 37 10 L 36 10 Z M 36 8 " clip-rule="nonzero"/></clipPath><clipPath id="cff05fd7d4"><path d="M 35.824219 -1.714844 L 48.625 10.410156 L 12.25 48.816406 L -0.550781 36.695312 Z M 35.824219 -1.714844 " clip-rule="nonzero"/></clipPath><clipPath id="35c8943e3c"><path d="M 35.824219 -1.714844 L 48.625 10.410156 L 12.25 48.816406 L -0.550781 36.695312 Z M 35.824219 -1.714844 " clip-rule="nonzero"/></clipPath><clipPath id="ae02125d8c"><path d="M 35 10 L 36 10 L 36 12 L 35 12 Z M 35 10 " clip-rule="nonzero"/></clipPath><clipPath id="09fe656f5a"><path d="M 35.824219 -1.714844 L 48.625 10.410156 L 12.25 48.816406 L -0.550781 36.695312 Z M 35.824219 -1.714844 " clip-rule="nonzero"/></clipPath><clipPath id="6d9ab0654e"><path d="M 35.824219 -1.714844 L 48.625 10.410156 L 12.25 48.816406 L -0.550781 36.695312 Z M 35.824219 -1.714844 " clip-rule="nonzero"/></clipPath><clipPath id="9f8b418f7c"><path d="M 39 7 L 41 7 L 41 9 L 39 9 Z M 39 7 " clip-rule="nonzero"/></clipPath><clipPath id="7728755cb8"><path d="M 35.824219 -1.714844 L 48.625 10.410156 L 12.25 48.816406 L -0.550781 36.695312 Z M 35.824219 -1.714844 " clip-rule="nonzero"/></clipPath><clipPath id="e303e5949a"><path d="M 35.824219 -1.714844 L 48.625 10.410156 L 12.25 48.816406 L -0.550781 36.695312 Z M 35.824219 -1.714844 " clip-rule="nonzero"/></clipPath><clipPath id="fef8d35d5b"><path d="M 36 9 L 37 9 L 37 10 L 36 10 Z M 36 9 " clip-rule="nonzero"/></clipPath><clipPath id="dff7243ff6"><path d="M 35.824219 -1.714844 L 48.625 10.410156 L 12.25 48.816406 L -0.550781 36.695312 Z M 35.824219 -1.714844 " clip-rule="nonzero"/></clipPath><clipPath id="c8f10bea4e"><path d="M 35.824219 -1.714844 L 48.625 10.410156 L 12.25 48.816406 L -0.550781 36.695312 Z M 35.824219 -1.714844 " clip-rule="nonzero"/></clipPath><clipPath id="3edf313f0e"><path d="M 38 9 L 39 9 L 39 10 L 38 10 Z M 38 9 " clip-rule="nonzero"/></clipPath><clipPath id="6388b0b835"><path d="M 35.824219 -1.714844 L 48.625 10.410156 L 12.25 48.816406 L -0.550781 36.695312 Z M 35.824219 -1.714844 " clip-rule="nonzero"/></clipPath><clipPath id="fa98bdb867"><path d="M 35.824219 -1.714844 L 48.625 10.410156 L 12.25 48.816406 L -0.550781 36.695312 Z M 35.824219 -1.714844 " clip-rule="nonzero"/></clipPath><clipPath id="cf99e80bdb"><path d="M 38 11 L 39 11 L 39 13 L 38 13 Z M 38 11 " clip-rule="nonzero"/></clipPath><clipPath id="4a33ef8c8c"><path d="M 35.824219 -1.714844 L 48.625 10.410156 L 12.25 48.816406 L -0.550781 36.695312 Z M 35.824219 -1.714844 " clip-rule="nonzero"/></clipPath><clipPath id="7b79f0d934"><path d="M 35.824219 -1.714844 L 48.625 10.410156 L 12.25 48.816406 L -0.550781 36.695312 Z M 35.824219 -1.714844 " clip-rule="nonzero"/></clipPath><clipPath id="ccc51a93ac"><path d="M 36 9 L 37 9 L 37 10 L 36 10 Z M 36 9 " clip-rule="nonzero"/></clipPath><clipPath id="3f12864cb4"><path d="M 35.824219 -1.714844 L 48.625 10.410156 L 12.25 48.816406 L -0.550781 36.695312 Z M 35.824219 -1.714844 " clip-rule="nonzero"/></clipPath><clipPath id="386065f3e0"><path d="M 35.824219 -1.714844 L 48.625 10.410156 L 12.25 48.816406 L -0.550781 36.695312 Z M 35.824219 -1.714844 " clip-rule="nonzero"/></clipPath><clipPath id="4b10fc361f"><path d="M 38 12 L 39 12 L 39 13 L 38 13 Z M 38 12 " clip-rule="nonzero"/></clipPath><clipPath id="2a5aefbf88"><path d="M 35.824219 -1.714844 L 48.625 10.410156 L 12.25 48.816406 L -0.550781 36.695312 Z M 35.824219 -1.714844 " clip-rule="nonzero"/></clipPath><clipPath id="ec31f8c065"><path d="M 35.824219 -1.714844 L 48.625 10.410156 L 12.25 48.816406 L -0.550781 36.695312 Z M 35.824219 -1.714844 " clip-rule="nonzero"/></clipPath><clipPath id="96b51217a1"><path d="M 40 9 L 41 9 L 41 11 L 40 11 Z M 40 9 " clip-rule="nonzero"/></clipPath><clipPath id="da9bf3ade6"><path d="M 35.824219 -1.714844 L 48.625 10.410156 L 12.25 48.816406 L -0.550781 36.695312 Z M 35.824219 -1.714844 " clip-rule="nonzero"/></clipPath><clipPath id="d96a5f2d6c"><path d="M 35.824219 -1.714844 L 48.625 10.410156 L 12.25 48.816406 L -0.550781 36.695312 Z M 35.824219 -1.714844 " clip-rule="nonzero"/></clipPath><clipPath id="dc52735734"><path d="M 41 9 L 43 9 L 43 10 L 41 10 Z M 41 9 " clip-rule="nonzero"/></clipPath><clipPath id="570189a2c6"><path d="M 35.824219 -1.714844 L 48.625 10.410156 L 12.25 48.816406 L -0.550781 36.695312 Z M 35.824219 -1.714844 " clip-rule="nonzero"/></clipPath><clipPath id="632c0dbb72"><path d="M 35.824219 -1.714844 L 48.625 10.410156 L 12.25 48.816406 L -0.550781 36.695312 Z M 35.824219 -1.714844 " clip-rule="nonzero"/></clipPath><clipPath id="2ab0ae9945"><path d="M 38 7 L 39 7 L 39 8 L 38 8 Z M 38 7 " clip-rule="nonzero"/></clipPath><clipPath id="f07a03a786"><path d="M 35.824219 -1.714844 L 48.625 10.410156 L 12.25 48.816406 L -0.550781 36.695312 Z M 35.824219 -1.714844 " clip-rule="nonzero"/></clipPath><clipPath id="5863e110a5"><path d="M 35.824219 -1.714844 L 48.625 10.410156 L 12.25 48.816406 L -0.550781 36.695312 Z M 35.824219 -1.714844 " clip-rule="nonzero"/></clipPath><clipPath id="a89604a88d"><path d="M 35 10 L 36 10 L 36 11 L 35 11 Z M 35 10 " clip-rule="nonzero"/></clipPath><clipPath id="bc268aacc6"><path d="M 35.824219 -1.714844 L 48.625 10.410156 L 12.25 48.816406 L -0.550781 36.695312 Z M 35.824219 -1.714844 " clip-rule="nonzero"/></clipPath><clipPath id="3977e18f71"><path d="M 35.824219 -1.714844 L 48.625 10.410156 L 12.25 48.816406 L -0.550781 36.695312 Z M 35.824219 -1.714844 " clip-rule="nonzero"/></clipPath><clipPath id="f24e4766b3"><path d="M 41 13 L 42 13 L 42 14 L 41 14 Z M 41 13 " clip-rule="nonzero"/></clipPath><clipPath id="630d4be82e"><path d="M 35.824219 -1.714844 L 48.625 10.410156 L 12.25 48.816406 L -0.550781 36.695312 Z M 35.824219 -1.714844 " clip-rule="nonzero"/></clipPath><clipPath id="313b48dc97"><path d="M 35.824219 -1.714844 L 48.625 10.410156 L 12.25 48.816406 L -0.550781 36.695312 Z M 35.824219 -1.714844 " clip-rule="nonzero"/></clipPath><clipPath id="e9aa85b922"><path d="M 41 10 L 42 10 L 42 11 L 41 11 Z M 41 10 " clip-rule="nonzero"/></clipPath><clipPath id="399d761f21"><path d="M 35.824219 -1.714844 L 48.625 10.410156 L 12.25 48.816406 L -0.550781 36.695312 Z M 35.824219 -1.714844 " clip-rule="nonzero"/></clipPath><clipPath id="37c9aaa6fc"><path d="M 35.824219 -1.714844 L 48.625 10.410156 L 12.25 48.816406 L -0.550781 36.695312 Z M 35.824219 -1.714844 " clip-rule="nonzero"/></clipPath><clipPath id="2eaa19b11b"><path d="M 36 6 L 37 6 L 37 7 L 36 7 Z M 36 6 " clip-rule="nonzero"/></clipPath><clipPath id="b147a28e80"><path d="M 35.824219 -1.714844 L 48.625 10.410156 L 12.25 48.816406 L -0.550781 36.695312 Z M 35.824219 -1.714844 " clip-rule="nonzero"/></clipPath><clipPath id="75e37731d7"><path d="M 35.824219 -1.714844 L 48.625 10.410156 L 12.25 48.816406 L -0.550781 36.695312 Z M 35.824219 -1.714844 " clip-rule="nonzero"/></clipPath><clipPath id="713e52bb3e"><path d="M 36 6 L 37 6 L 37 8 L 36 8 Z M 36 6 " clip-rule="nonzero"/></clipPath><clipPath id="51d160f987"><path d="M 35.824219 -1.714844 L 48.625 10.410156 L 12.25 48.816406 L -0.550781 36.695312 Z M 35.824219 -1.714844 " clip-rule="nonzero"/></clipPath><clipPath id="7ed3afb9f2"><path d="M 35.824219 -1.714844 L 48.625 10.410156 L 12.25 48.816406 L -0.550781 36.695312 Z M 35.824219 -1.714844 " clip-rule="nonzero"/></clipPath><clipPath id="c970f0aa25"><path d="M 41 9 L 42 9 L 42 10 L 41 10 Z M 41 9 " clip-rule="nonzero"/></clipPath><clipPath id="8030c3304c"><path d="M 35.824219 -1.714844 L 48.625 10.410156 L 12.25 48.816406 L -0.550781 36.695312 Z M 35.824219 -1.714844 " clip-rule="nonzero"/></clipPath><clipPath id="e812f0dd5f"><path d="M 35.824219 -1.714844 L 48.625 10.410156 L 12.25 48.816406 L -0.550781 36.695312 Z M 35.824219 -1.714844 " clip-rule="nonzero"/></clipPath><clipPath id="c81f693611"><path d="M 42 9 L 43 9 L 43 10 L 42 10 Z M 42 9 " clip-rule="nonzero"/></clipPath><clipPath id="b0a3a42042"><path d="M 35.824219 -1.714844 L 48.625 10.410156 L 12.25 48.816406 L -0.550781 36.695312 Z M 35.824219 -1.714844 " clip-rule="nonzero"/></clipPath><clipPath id="486a43ebd2"><path d="M 35.824219 -1.714844 L 48.625 10.410156 L 12.25 48.816406 L -0.550781 36.695312 Z M 35.824219 -1.714844 " clip-rule="nonzero"/></clipPath><clipPath id="4795a4745a"><path d="M 36 7 L 37 7 L 37 8 L 36 8 Z M 36 7 " clip-rule="nonzero"/></clipPath><clipPath id="1266fcd142"><path d="M 35.824219 -1.714844 L 48.625 10.410156 L 12.25 48.816406 L -0.550781 36.695312 Z M 35.824219 -1.714844 " clip-rule="nonzero"/></clipPath><clipPath id="18f0eb9aa3"><path d="M 35.824219 -1.714844 L 48.625 10.410156 L 12.25 48.816406 L -0.550781 36.695312 Z M 35.824219 -1.714844 " clip-rule="nonzero"/></clipPath><clipPath id="e330d93935"><path d="M 41 9 L 43 9 L 43 10 L 41 10 Z M 41 9 " clip-rule="nonzero"/></clipPath><clipPath id="c42e217c83"><path d="M 35.824219 -1.714844 L 48.625 10.410156 L 12.25 48.816406 L -0.550781 36.695312 Z M 35.824219 -1.714844 " clip-rule="nonzero"/></clipPath><clipPath id="fbe6316bed"><path d="M 35.824219 -1.714844 L 48.625 10.410156 L 12.25 48.816406 L -0.550781 36.695312 Z M 35.824219 -1.714844 " clip-rule="nonzero"/></clipPath><clipPath id="d66a71705a"><path d="M 40 12 L 41 12 L 41 13 L 40 13 Z M 40 12 " clip-rule="nonzero"/></clipPath><clipPath id="ec5c274263"><path d="M 35.824219 -1.714844 L 48.625 10.410156 L 12.25 48.816406 L -0.550781 36.695312 Z M 35.824219 -1.714844 " clip-rule="nonzero"/></clipPath><clipPath id="0cc253d1cf"><path d="M 35.824219 -1.714844 L 48.625 10.410156 L 12.25 48.816406 L -0.550781 36.695312 Z M 35.824219 -1.714844 " clip-rule="nonzero"/></clipPath><clipPath id="4817b4ab92"><path d="M 40 11 L 41 11 L 41 13 L 40 13 Z M 40 11 " clip-rule="nonzero"/></clipPath><clipPath id="0965f4f82e"><path d="M 35.824219 -1.714844 L 48.625 10.410156 L 12.25 48.816406 L -0.550781 36.695312 Z M 35.824219 -1.714844 " clip-rule="nonzero"/></clipPath><clipPath id="73f170a8ea"><path d="M 35.824219 -1.714844 L 48.625 10.410156 L 12.25 48.816406 L -0.550781 36.695312 Z M 35.824219 -1.714844 " clip-rule="nonzero"/></clipPath><clipPath id="6fc9c27cf6"><path d="M 33 5 L 34 5 L 34 6 L 33 6 Z M 33 5 " clip-rule="nonzero"/></clipPath><clipPath id="35907f2ccb"><path d="M 35.824219 -1.714844 L 48.625 10.410156 L 12.25 48.816406 L -0.550781 36.695312 Z M 35.824219 -1.714844 " clip-rule="nonzero"/></clipPath><clipPath id="4d94f9f427"><path d="M 35.824219 -1.714844 L 48.625 10.410156 L 12.25 48.816406 L -0.550781 36.695312 Z M 35.824219 -1.714844 " clip-rule="nonzero"/></clipPath><clipPath id="7f58adccb3"><path d="M 34 4 L 35 4 L 35 5 L 34 5 Z M 34 4 " clip-rule="nonzero"/></clipPath><clipPath id="7525a9e6e9"><path d="M 35.824219 -1.714844 L 48.625 10.410156 L 12.25 48.816406 L -0.550781 36.695312 Z M 35.824219 -1.714844 " clip-rule="nonzero"/></clipPath><clipPath id="20a99777a7"><path d="M 35.824219 -1.714844 L 48.625 10.410156 L 12.25 48.816406 L -0.550781 36.695312 Z M 35.824219 -1.714844 " clip-rule="nonzero"/></clipPath><clipPath id="c23a55e79f"><path d="M 33 6 L 34 6 L 34 7 L 33 7 Z M 33 6 " clip-rule="nonzero"/></clipPath><clipPath id="f09f2b6558"><path d="M 35.824219 -1.714844 L 48.625 10.410156 L 12.25 48.816406 L -0.550781 36.695312 Z M 35.824219 -1.714844 " clip-rule="nonzero"/></clipPath><clipPath id="f05fcf484f"><path d="M 35.824219 -1.714844 L 48.625 10.410156 L 12.25 48.816406 L -0.550781 36.695312 Z M 35.824219 -1.714844 " clip-rule="nonzero"/></clipPath><clipPath id="6aaf39b772"><path d="M 33 5 L 34 5 L 34 6 L 33 6 Z M 33 5 " clip-rule="nonzero"/></clipPath><clipPath id="740a67b431"><path d="M 35.824219 -1.714844 L 48.625 10.410156 L 12.25 48.816406 L -0.550781 36.695312 Z M 35.824219 -1.714844 " clip-rule="nonzero"/></clipPath><clipPath id="1e66bf0b4a"><path d="M 35.824219 -1.714844 L 48.625 10.410156 L 12.25 48.816406 L -0.550781 36.695312 Z M 35.824219 -1.714844 " clip-rule="nonzero"/></clipPath><clipPath id="8c02fdc04d"><path d="M 33 5 L 34 5 L 34 7 L 33 7 Z M 33 5 " clip-rule="nonzero"/></clipPath><clipPath id="b88679c09a"><path d="M 35.824219 -1.714844 L 48.625 10.410156 L 12.25 48.816406 L -0.550781 36.695312 Z M 35.824219 -1.714844 " clip-rule="nonzero"/></clipPath><clipPath id="bbe1ca53ce"><path d="M 35.824219 -1.714844 L 48.625 10.410156 L 12.25 48.816406 L -0.550781 36.695312 Z M 35.824219 -1.714844 " clip-rule="nonzero"/></clipPath><clipPath id="a8f0c27a75"><path d="M 32 6 L 33 6 L 33 7 L 32 7 Z M 32 6 " clip-rule="nonzero"/></clipPath><clipPath id="1942cae104"><path d="M 35.824219 -1.714844 L 48.625 10.410156 L 12.25 48.816406 L -0.550781 36.695312 Z M 35.824219 -1.714844 " clip-rule="nonzero"/></clipPath><clipPath id="c2c2f4e286"><path d="M 35.824219 -1.714844 L 48.625 10.410156 L 12.25 48.816406 L -0.550781 36.695312 Z M 35.824219 -1.714844 " clip-rule="nonzero"/></clipPath><clipPath id="323471ed0f"><path d="M 34 6 L 35 6 L 35 7 L 34 7 Z M 34 6 " clip-rule="nonzero"/></clipPath><clipPath id="0e7fc553c8"><path d="M 35.824219 -1.714844 L 48.625 10.410156 L 12.25 48.816406 L -0.550781 36.695312 Z M 35.824219 -1.714844 " clip-rule="nonzero"/></clipPath><clipPath id="ce550d5cd4"><path d="M 35.824219 -1.714844 L 48.625 10.410156 L 12.25 48.816406 L -0.550781 36.695312 Z M 35.824219 -1.714844 " clip-rule="nonzero"/></clipPath><clipPath id="1add71d5ee"><path d="M 33 6 L 34 6 L 34 7 L 33 7 Z M 33 6 " clip-rule="nonzero"/></clipPath><clipPath id="40e66e93f0"><path d="M 35.824219 -1.714844 L 48.625 10.410156 L 12.25 48.816406 L -0.550781 36.695312 Z M 35.824219 -1.714844 " clip-rule="nonzero"/></clipPath><clipPath id="22370fdc1b"><path d="M 35.824219 -1.714844 L 48.625 10.410156 L 12.25 48.816406 L -0.550781 36.695312 Z M 35.824219 -1.714844 " clip-rule="nonzero"/></clipPath><clipPath id="8f7f8e9bb6"><path d="M 32 6 L 33 6 L 33 7 L 32 7 Z M 32 6 " clip-rule="nonzero"/></clipPath><clipPath id="5318e9d24b"><path d="M 35.824219 -1.714844 L 48.625 10.410156 L 12.25 48.816406 L -0.550781 36.695312 Z M 35.824219 -1.714844 " clip-rule="nonzero"/></clipPath><clipPath id="fb046b4107"><path d="M 35.824219 -1.714844 L 48.625 10.410156 L 12.25 48.816406 L -0.550781 36.695312 Z M 35.824219 -1.714844 " clip-rule="nonzero"/></clipPath><clipPath id="f3bc35fc7e"><path d="M 34 4 L 35 4 L 35 5 L 34 5 Z M 34 4 " clip-rule="nonzero"/></clipPath><clipPath id="42cd86f4f0"><path d="M 35.824219 -1.714844 L 48.625 10.410156 L 12.25 48.816406 L -0.550781 36.695312 Z M 35.824219 -1.714844 " clip-rule="nonzero"/></clipPath><clipPath id="95c3a06c11"><path d="M 35.824219 -1.714844 L 48.625 10.410156 L 12.25 48.816406 L -0.550781 36.695312 Z M 35.824219 -1.714844 " clip-rule="nonzero"/></clipPath><clipPath id="e1d1545a4b"><path d="M 34 6 L 35 6 L 35 7 L 34 7 Z M 34 6 " clip-rule="nonzero"/></clipPath><clipPath id="f5d7e31ad6"><path d="M 35.824219 -1.714844 L 48.625 10.410156 L 12.25 48.816406 L -0.550781 36.695312 Z M 35.824219 -1.714844 " clip-rule="nonzero"/></clipPath><clipPath id="0fddc7b709"><path d="M 35.824219 -1.714844 L 48.625 10.410156 L 12.25 48.816406 L -0.550781 36.695312 Z M 35.824219 -1.714844 " clip-rule="nonzero"/></clipPath></defs><g clip-path="url(#8e2c8a0697)"><g clip-path="url(#bc8a48ab41)"><g clip-path="url(#7902e84e3d)"><path fill="#cba135" d="M 36.289062 7.007812 C 36.269531 7.027344 36.25 7.042969 36.230469 7.0625 C 36.246094 7.042969 36.265625 7.023438 36.285156 7.003906 C 36.289062 7.003906 36.289062 7.007812 36.289062 7.007812 " fill-opacity="1" fill-rule="nonzero"/></g></g></g><g clip-path="url(#7256b80aa7)"><g clip-path="url(#29466726b8)"><g clip-path="url(#f79397a210)"><path fill="#cba135" d="M 32.015625 9.382812 C 32.011719 9.445312 32.007812 9.507812 32.003906 9.59375 C 31.886719 9.476562 31.929688 9.421875 32.03125 9.382812 C 32.03125 9.382812 32.015625 9.382812 32.015625 9.382812 " fill-opacity="1" fill-rule="nonzero"/></g></g></g><g clip-path="url(#4cb521cb91)"><g clip-path="url(#d1d336ef91)"><g clip-path="url(#667dc3edd5)"><path fill="#cba135" d="M 33.683594 16.058594 C 33.761719 16.125 33.785156 16.207031 33.726562 16.289062 C 33.660156 16.382812 33.582031 16.472656 33.5 16.554688 C 33.019531 17.0625 32.550781 17.582031 32.050781 18.070312 C 31.457031 18.652344 30.84375 19.210938 30.222656 19.765625 C 30.066406 19.90625 29.859375 20 29.664062 20.09375 C 29.5625 20.140625 29.429688 20.148438 29.34375 20.035156 C 29.265625 19.929688 29.257812 19.8125 29.332031 19.707031 C 29.429688 19.5625 29.523438 19.40625 29.652344 19.296875 C 30.214844 18.832031 30.722656 18.3125 31.246094 17.804688 C 31.613281 17.453125 31.980469 17.097656 32.34375 16.742188 C 32.40625 16.683594 32.476562 16.621094 32.519531 16.546875 C 32.683594 16.25 32.941406 16.03125 33.183594 15.800781 C 33.433594 15.570312 33.613281 15.640625 33.6875 15.992188 C 33.695312 16.019531 33.6875 16.050781 33.6875 16.078125 C 33.605469 16 33.523438 15.921875 33.445312 15.851562 C 33.234375 15.925781 33.121094 16.078125 32.992188 16.214844 C 32.480469 16.75 31.996094 17.3125 31.457031 17.820312 C 30.886719 18.363281 30.390625 18.976562 29.757812 19.453125 C 29.628906 19.550781 29.554688 19.691406 29.523438 19.851562 C 29.636719 19.9375 29.738281 19.878906 29.816406 19.824219 C 29.972656 19.71875 30.121094 19.601562 30.257812 19.472656 C 30.566406 19.1875 30.851562 18.875 31.171875 18.601562 C 32.078125 17.820312 32.867188 16.925781 33.683594 16.058594 " fill-opacity="1" fill-rule="nonzero"/></g></g></g><g clip-path="url(#7c1f85c3d8)"><g clip-path="url(#dd19cb6817)"><g clip-path="url(#bfef2644c9)"><path fill="#cba135" d="M 34.839844 14.53125 C 34.582031 14.539062 34.335938 14.679688 34.289062 14.859375 C 34.273438 14.933594 34.304688 15.019531 34.316406 15.117188 C 34.609375 15 34.796875 14.835938 34.839844 14.53125 Z M 34.820312 14.945312 C 34.746094 15.015625 34.648438 15.125 34.53125 15.210938 C 34.464844 15.257812 34.371094 15.285156 34.292969 15.28125 C 34.234375 15.277344 34.152344 15.222656 34.125 15.167969 C 34.035156 14.96875 34.085938 14.765625 34.253906 14.625 C 34.386719 14.515625 34.515625 14.398438 34.691406 14.351562 C 34.792969 14.328125 34.890625 14.300781 34.972656 14.394531 C 35.046875 14.476562 35.066406 14.671875 35 14.761719 C 34.960938 14.820312 34.902344 14.867188 34.820312 14.945312 " fill-opacity="1" fill-rule="nonzero"/></g></g></g><g clip-path="url(#6eff499ec5)"><g clip-path="url(#e2ba71a3ff)"><g clip-path="url(#a363d29275)"><path fill="#cba135" d="M 33.78125 4.382812 C 33.761719 4.40625 33.742188 4.429688 33.71875 4.453125 C 33.742188 4.429688 33.761719 4.40625 33.78125 4.378906 C 33.78125 4.378906 33.78125 4.382812 33.78125 4.382812 " fill-opacity="1" fill-rule="nonzero"/></g></g></g><g clip-path="url(#aa90da94b4)"><g clip-path="url(#da7b54c2a2)"><g clip-path="url(#ab8b1eeb71)"><path fill="#cba135" d="M 35.796875 5.816406 C 35.773438 5.867188 35.75 5.917969 35.714844 5.996094 C 35.664062 5.863281 35.738281 5.84375 35.808594 5.816406 C 35.808594 5.816406 35.796875 5.816406 35.796875 5.816406 " fill-opacity="1" fill-rule="nonzero"/></g></g></g><g clip-path="url(#aa18ece194)"><g clip-path="url(#9a4ae6d515)"><g clip-path="url(#bc6a2b2afd)"><g clip-path="url(#b6397730e8)"><g clip-path="url(#03da3afb7a)"><path fill="#cba135" d="M 38.347656 4.796875 C 38.351562 4.773438 38.371094 4.738281 38.363281 4.722656 C 38.347656 4.707031 38.3125 4.699219 38.289062 4.691406 C 38.285156 4.714844 38.269531 4.746094 38.28125 4.765625 C 38.289062 4.785156 38.324219 4.789062 38.347656 4.796875 Z M 42.441406 8.910156 C 42.445312 8.914062 42.453125 8.917969 42.457031 8.925781 C 42.488281 8.890625 42.515625 8.855469 42.546875 8.824219 C 42.539062 8.816406 42.535156 8.8125 42.527344 8.808594 C 42.5 8.84375 42.46875 8.875 42.441406 8.910156 Z M 35.734375 15.683594 C 35.808594 15.707031 35.839844 15.722656 35.867188 15.722656 C 36.640625 15.695312 37.414062 15.679688 38.183594 15.632812 C 38.914062 15.585938 39.640625 15.496094 40.367188 15.449219 C 41.097656 15.398438 41.824219 15.335938 42.53125 15.15625 C 42.925781 15.054688 43.296875 14.898438 43.570312 14.59375 C 43.492188 14.277344 43.492188 14.277344 43.582031 13.953125 C 43.597656 13.902344 43.597656 13.84375 43.609375 13.757812 C 43.542969 13.761719 43.46875 13.785156 43.4375 13.761719 C 43.289062 13.636719 43.144531 13.679688 42.996094 13.75 C 42.460938 14.015625 41.878906 14.167969 41.320312 14.375 C 40.742188 14.585938 40.171875 14.808594 39.597656 15.011719 C 39.40625 15.078125 39.203125 15.125 39.003906 15.144531 C 38.347656 15.207031 37.691406 15.257812 37.039062 15.308594 C 36.617188 15.34375 36.195312 15.367188 35.757812 15.394531 C 35.75 15.496094 35.742188 15.578125 35.734375 15.683594 Z M 31.027344 13.527344 C 30.746094 13.894531 30.484375 14.210938 30.246094 14.542969 C 29.714844 15.289062 29.1875 16.039062 28.667969 16.796875 C 28.296875 17.335938 27.945312 17.890625 27.574219 18.433594 C 27.464844 18.597656 27.464844 18.734375 27.558594 18.917969 C 27.851562 19.472656 28.339844 19.824219 28.839844 20.15625 C 29.03125 20.28125 29.257812 20.359375 29.472656 20.453125 C 29.589844 20.503906 29.699219 20.484375 29.800781 20.402344 C 30.09375 20.160156 30.390625 19.925781 30.675781 19.679688 C 31.027344 19.375 31.371094 19.054688 31.71875 18.746094 C 31.839844 18.640625 31.972656 18.550781 32.09375 18.445312 C 32.40625 18.183594 32.707031 17.910156 33.023438 17.652344 C 33.539062 17.222656 34.082031 16.828125 34.53125 16.324219 C 34.59375 16.253906 34.695312 16.210938 34.78125 16.160156 C 35.03125 16.023438 35.222656 15.8125 35.335938 15.566406 C 35.429688 15.359375 35.53125 15.136719 35.46875 14.890625 C 35.414062 14.664062 35.375 14.429688 35.316406 14.203125 C 35.191406 13.710938 34.980469 13.269531 34.542969 12.964844 C 34.460938 12.90625 34.386719 12.835938 34.304688 12.773438 C 34.003906 12.554688 33.675781 12.390625 33.316406 12.300781 C 33.046875 12.234375 32.765625 12.191406 32.496094 12.292969 C 32.171875 12.417969 31.855469 12.570312 31.621094 12.84375 C 31.410156 13.085938 31.203125 13.328125 31.027344 13.527344 Z M 29.007812 20.820312 C 28.371094 20.546875 27.902344 20.140625 27.5 19.644531 C 27.371094 19.484375 27.191406 19.429688 26.988281 19.484375 C 26.703125 19.566406 26.433594 19.683594 26.214844 19.878906 C 25.945312 20.125 25.691406 20.386719 25.433594 20.640625 C 25.351562 20.722656 25.285156 20.832031 25.191406 20.890625 C 24.921875 21.058594 24.742188 21.308594 24.53125 21.527344 C 24.269531 21.800781 24.015625 22.085938 23.765625 22.371094 C 23.351562 22.839844 22.925781 23.300781 22.542969 23.796875 C 21.953125 24.558594 21.386719 25.335938 20.753906 26.0625 C 19.519531 27.480469 18.285156 28.902344 17.046875 30.320312 C 16.980469 30.398438 16.910156 30.46875 16.839844 30.546875 C 16.589844 30.8125 16.324219 31.0625 16.097656 31.347656 C 15.710938 31.84375 15.289062 32.304688 14.871094 32.769531 C 14.3125 33.386719 13.785156 34.027344 13.234375 34.648438 C 12.695312 35.261719 12.144531 35.867188 11.59375 36.46875 C 11.375 36.707031 11.136719 36.925781 10.933594 37.171875 C 10.488281 37.710938 10.019531 38.226562 9.523438 38.71875 C 9.191406 39.050781 8.855469 39.371094 8.535156 39.707031 C 8.171875 40.089844 7.824219 40.476562 7.546875 40.929688 C 7.378906 41.199219 7.1875 41.460938 7.042969 41.746094 C 6.945312 41.9375 6.894531 42.15625 6.851562 42.371094 C 6.804688 42.613281 6.9375 42.777344 7.179688 42.78125 C 7.324219 42.785156 7.484375 42.773438 7.605469 42.710938 C 7.851562 42.589844 8.09375 42.449219 8.3125 42.28125 C 8.730469 41.960938 9.066406 41.554688 9.398438 41.152344 C 9.5 41.027344 9.601562 40.902344 9.714844 40.792969 C 10.257812 40.285156 10.785156 39.765625 11.265625 39.199219 C 11.386719 39.054688 11.507812 38.90625 11.644531 38.773438 C 11.960938 38.453125 12.3125 38.164062 12.605469 37.820312 C 13.101562 37.246094 13.621094 36.695312 14.160156 36.164062 C 14.667969 35.664062 15.171875 35.160156 15.679688 34.65625 C 15.710938 34.628906 15.742188 34.597656 15.777344 34.566406 C 16.355469 34.015625 16.941406 33.46875 17.511719 32.902344 C 18.117188 32.296875 18.707031 31.671875 19.308594 31.054688 C 19.390625 30.96875 19.464844 30.875 19.566406 30.816406 C 19.964844 30.585938 20.25 30.234375 20.566406 29.910156 C 20.707031 29.761719 20.859375 29.625 21.011719 29.488281 C 21.183594 29.335938 21.363281 29.1875 21.535156 29.035156 C 21.828125 28.773438 22.121094 28.507812 22.410156 28.242188 C 22.476562 28.183594 22.546875 28.132812 22.609375 28.070312 C 23.035156 27.652344 23.449219 27.21875 23.882812 26.808594 C 24.273438 26.4375 24.6875 26.09375 25.085938 25.730469 C 25.484375 25.367188 25.882812 25.007812 26.265625 24.628906 C 26.890625 24.011719 27.375 23.28125 27.902344 22.585938 C 27.992188 22.472656 28.085938 22.359375 28.171875 22.246094 C 28.496094 21.816406 28.789062 21.367188 29.007812 20.820312 Z M 43.15625 12.125 C 43.144531 12.113281 43.121094 12.105469 43.125 12.097656 C 43.148438 11.957031 43.328125 11.914062 43.335938 11.757812 C 43.335938 11.726562 43.390625 11.695312 43.429688 11.675781 C 43.535156 11.613281 43.539062 11.53125 43.523438 11.421875 C 43.511719 11.347656 43.558594 11.269531 43.585938 11.164062 C 43.445312 11.191406 43.351562 11.210938 43.253906 11.230469 C 43.164062 11.136719 43.078125 11.046875 43 10.964844 C 43 10.882812 43.109375 10.839844 43.039062 10.753906 C 42.929688 10.695312 42.882812 10.789062 42.824219 10.84375 C 42.316406 11.28125 41.746094 11.621094 41.125 11.867188 C 41.035156 11.902344 40.933594 11.894531 40.835938 11.910156 L 40.835938 11.921875 C 40.910156 11.875 40.972656 11.8125 41.050781 11.777344 C 41.59375 11.550781 42.0625 11.203125 42.535156 10.863281 C 42.722656 10.726562 42.859375 10.546875 43.03125 10.300781 C 42.855469 10.332031 42.75 10.351562 42.644531 10.371094 L 42.644531 10.386719 C 42.699219 10.253906 42.921875 10.1875 42.773438 9.964844 C 42.417969 10.105469 42.164062 10.417969 41.796875 10.550781 C 42.132812 10.246094 42.46875 9.941406 42.832031 9.609375 C 42.507812 9.585938 42.855469 9.386719 42.695312 9.316406 C 42.597656 9.296875 42.570312 9.410156 42.5 9.441406 C 42.453125 9.460938 42.394531 9.441406 42.339844 9.441406 C 42.542969 9.296875 42.539062 9.292969 42.582031 9.121094 C 42.488281 9.128906 42.394531 9.140625 42.300781 9.152344 C 42.289062 9.078125 42.257812 9.003906 42.171875 9.070312 C 42.082031 9.140625 42.015625 9.230469 41.9375 9.3125 C 41.875 9.332031 41.8125 9.339844 41.753906 9.371094 C 41.691406 9.40625 41.660156 9.378906 41.625 9.332031 L 41.628906 9.34375 C 41.683594 9.164062 41.84375 9.074219 41.964844 8.953125 C 42.085938 8.835938 42.246094 8.75 42.289062 8.574219 C 42.191406 8.464844 42.097656 8.476562 42.003906 8.546875 C 41.664062 8.796875 41.328125 9.046875 40.992188 9.300781 C 40.886719 9.378906 40.792969 9.472656 40.691406 9.554688 C 40.601562 9.632812 40.535156 9.746094 40.398438 9.761719 C 40.542969 9.578125 40.703125 9.414062 40.878906 9.261719 C 41.164062 9.011719 41.4375 8.753906 41.652344 8.4375 C 41.769531 8.265625 41.804688 8.078125 41.804688 7.867188 C 41.730469 7.863281 41.6875 7.851562 41.648438 7.863281 C 41.59375 7.875 41.511719 7.941406 41.492188 7.921875 C 41.304688 7.75 41.1875 7.921875 41.046875 8 C 40.988281 8.03125 40.921875 8.050781 40.851562 8.078125 C 40.84375 7.875 41.148438 7.925781 41.097656 7.699219 C 40.925781 7.753906 40.847656 7.890625 40.769531 8.027344 C 40.691406 8.152344 40.59375 8.226562 40.410156 8.265625 C 40.644531 7.914062 40.953125 7.640625 40.988281 7.199219 C 40.847656 7.335938 40.714844 7.457031 40.535156 7.625 C 40.738281 7.300781 40.902344 7.035156 41.078125 6.753906 C 40.820312 6.734375 40.75 6.996094 40.5 7.078125 C 40.648438 6.898438 40.757812 6.769531 40.863281 6.632812 C 40.914062 6.574219 40.933594 6.503906 40.847656 6.449219 C 40.59375 6.507812 40.566406 6.808594 40.328125 6.925781 C 40.382812 6.808594 40.429688 6.710938 40.46875 6.632812 C 40.296875 6.402344 40.097656 6.308594 39.839844 6.394531 C 39.792969 6.300781 39.953125 6.207031 39.816406 6.109375 C 39.5625 6.355469 39.355469 6.632812 39.167969 6.925781 C 39.042969 7.125 38.910156 7.320312 38.652344 7.53125 C 38.976562 7.019531 39.246094 6.589844 39.511719 6.164062 C 39.46875 6.105469 39.433594 6.058594 39.402344 6.019531 C 39.386719 5.890625 39.578125 5.828125 39.492188 5.640625 C 39.363281 5.757812 39.25 5.84375 39.152344 5.949219 C 38.945312 6.175781 38.746094 6.40625 38.542969 6.636719 C 38.386719 6.804688 38.230469 6.972656 38.078125 7.140625 C 38.320312 6.773438 38.601562 6.441406 38.882812 6.105469 C 38.996094 5.972656 39.117188 5.847656 39.226562 5.710938 C 39.285156 5.636719 39.351562 5.550781 39.289062 5.4375 C 39.125 5.46875 39.050781 5.691406 38.835938 5.652344 C 38.84375 5.589844 38.828125 5.515625 38.859375 5.476562 C 38.972656 5.339844 38.914062 5.207031 38.859375 5.074219 C 38.851562 5.054688 38.816406 5.046875 38.792969 5.03125 C 38.710938 5.078125 38.628906 5.125 38.53125 5.183594 C 38.515625 5.082031 38.503906 5.015625 38.496094 4.953125 C 38.394531 5.03125 38.304688 5.136719 38.199219 5.164062 C 38.070312 5.199219 37.996094 5.269531 37.929688 5.367188 C 37.871094 5.449219 37.8125 5.53125 37.75 5.613281 C 37.671875 5.71875 37.59375 5.824219 37.511719 5.925781 C 37.429688 6.027344 37.339844 6.125 37.253906 6.222656 C 37.179688 6.308594 37.117188 6.40625 37.003906 6.449219 C 37.199219 6.136719 37.410156 5.84375 37.625 5.546875 C 37.664062 5.488281 37.722656 5.433594 37.738281 5.367188 C 37.773438 5.242188 37.808594 5.109375 37.800781 4.984375 C 37.789062 4.839844 37.730469 4.695312 37.683594 4.519531 C 37.535156 4.613281 37.4375 4.710938 37.367188 4.84375 C 37.113281 5.320312 36.851562 5.789062 36.589844 6.261719 C 36.570312 6.300781 36.53125 6.332031 36.445312 6.429688 C 36.601562 5.691406 37.027344 5.175781 37.320312 4.59375 C 37.300781 4.5 37.277344 4.398438 37.257812 4.320312 C 37.097656 4.257812 36.941406 4.214844 36.808594 4.140625 C 36.734375 4.097656 36.679688 4.082031 36.613281 4.121094 C 36.550781 4.152344 36.480469 4.1875 36.445312 4.242188 C 36.394531 4.308594 36.371094 4.398438 36.339844 4.480469 C 36.160156 4.925781 35.976562 5.371094 35.796875 5.816406 L 35.808594 5.816406 C 35.71875 5.765625 35.757812 5.695312 35.78125 5.628906 C 35.921875 5.199219 36.070312 4.773438 36.210938 4.34375 C 36.238281 4.265625 36.25 4.179688 36.265625 4.09375 C 36.082031 4.085938 35.976562 4.164062 35.914062 4.316406 C 35.722656 4.773438 35.542969 5.234375 35.332031 5.679688 C 34.835938 6.730469 34.605469 7.863281 34.296875 8.96875 C 34.152344 9.488281 34.074219 10.023438 33.976562 10.554688 C 33.878906 11.066406 33.804688 11.585938 33.804688 12.160156 C 34.105469 12.234375 34.332031 12.484375 34.65625 12.585938 C 34.71875 12.472656 34.769531 12.371094 34.824219 12.269531 C 35.019531 11.914062 35.164062 11.53125 35.410156 11.203125 L 35.394531 11.203125 C 35.378906 11.273438 35.378906 11.347656 35.347656 11.410156 C 35.242188 11.632812 35.121094 11.847656 35.019531 12.074219 C 34.929688 12.28125 34.792969 12.476562 34.789062 12.734375 C 34.929688 12.859375 35.070312 12.980469 35.246094 13.128906 C 35.496094 12.929688 35.6875 12.671875 35.914062 12.453125 C 36.132812 12.242188 36.320312 12 36.539062 11.785156 C 36.757812 11.5625 36.929688 11.292969 37.195312 11.117188 C 36.941406 11.527344 36.59375 11.855469 36.289062 12.222656 C 35.980469 12.585938 35.664062 12.945312 35.351562 13.308594 C 35.386719 13.398438 35.410156 13.46875 35.441406 13.53125 C 35.484375 13.601562 35.535156 13.667969 35.582031 13.738281 C 35.644531 13.722656 35.691406 13.71875 35.726562 13.699219 C 36.117188 13.503906 36.503906 13.304688 36.894531 13.105469 C 37.023438 13.039062 37.152344 12.976562 37.28125 12.910156 C 37.359375 12.875 37.421875 12.902344 37.476562 12.957031 C 36.875 13.28125 36.273438 13.609375 35.65625 13.941406 C 35.679688 14.0625 35.699219 14.175781 35.71875 14.292969 C 36.011719 14.285156 36.285156 14.292969 36.558594 14.269531 C 36.730469 14.253906 36.898438 14.195312 37.070312 14.15625 C 37.308594 14.105469 37.550781 14.046875 37.796875 14.011719 C 38.1875 13.960938 38.546875 13.792969 38.921875 13.679688 C 39.367188 13.546875 39.8125 13.40625 40.191406 13.113281 C 40.257812 13.058594 40.34375 13.027344 40.421875 12.992188 C 41.332031 12.566406 42.238281 12.128906 43.121094 11.644531 C 43.160156 11.621094 43.210938 11.621094 43.351562 11.585938 C 43.183594 11.703125 43.09375 11.78125 42.996094 11.835938 C 42.527344 12.097656 42.058594 12.363281 41.582031 12.613281 C 41.15625 12.835938 40.695312 13.003906 40.292969 13.261719 C 39.644531 13.675781 38.90625 13.855469 38.203125 14.132812 C 38.082031 14.179688 37.945312 14.214844 37.816406 14.207031 C 37.589844 14.199219 37.390625 14.273438 37.183594 14.34375 C 36.738281 14.488281 36.273438 14.535156 35.792969 14.574219 C 35.816406 14.785156 35.835938 14.984375 35.859375 15.1875 C 36.730469 15.179688 37.574219 15.144531 38.417969 15.054688 C 38.972656 14.996094 39.523438 14.921875 40.042969 14.722656 C 40.984375 14.371094 41.921875 14.003906 42.863281 13.644531 C 43.011719 13.585938 43.164062 13.53125 43.3125 13.472656 C 43.480469 13.402344 43.582031 13.257812 43.660156 13.097656 C 43.566406 12.898438 43.769531 12.789062 43.828125 12.628906 C 43.75 12.589844 43.6875 12.558594 43.664062 12.542969 C 43.121094 12.796875 42.609375 13.039062 42.09375 13.273438 C 42.03125 13.300781 41.953125 13.292969 41.882812 13.300781 L 41.886719 13.316406 C 41.917969 13.273438 41.945312 13.214844 41.988281 13.191406 C 42.308594 13.027344 42.632812 12.867188 42.957031 12.707031 C 43.269531 12.550781 43.539062 12.335938 43.785156 12.089844 C 43.835938 12.039062 43.878906 11.976562 43.820312 11.898438 C 43.683594 11.980469 43.550781 12.070312 43.410156 12.136719 C 43.34375 12.167969 43.253906 12.226562 43.175781 12.140625 Z M 34.164062 4.433594 L 34.175781 4.433594 C 34.054688 4.253906 34.082031 4.058594 34.113281 3.859375 C 34.121094 3.789062 34.136719 3.71875 34.046875 3.6875 C 34.074219 3.667969 34.097656 3.648438 34.121094 3.632812 C 34.113281 3.628906 34.09375 3.617188 34.09375 3.621094 C 34.082031 3.644531 34.070312 3.667969 34.058594 3.6875 C 33.96875 3.921875 33.875 4.152344 33.78125 4.382812 L 33.78125 4.378906 C 33.703125 4.363281 33.636719 4.332031 33.652344 4.238281 C 33.664062 4.152344 33.699219 4.070312 33.71875 3.984375 C 33.722656 3.964844 33.710938 3.9375 33.703125 3.90625 C 33.578125 3.945312 33.453125 3.980469 33.3125 4.023438 C 33.214844 4.28125 33.105469 4.53125 33.027344 4.796875 C 32.953125 5.0625 32.929688 5.34375 32.851562 5.609375 C 32.773438 5.855469 32.789062 6.128906 32.609375 6.453125 C 32.617188 6.277344 32.617188 6.207031 32.628906 6.136719 C 32.691406 5.746094 32.757812 5.359375 32.820312 4.96875 C 32.832031 4.898438 32.863281 4.824219 32.859375 4.757812 C 32.839844 4.488281 32.886719 4.238281 32.996094 3.996094 C 33.015625 3.957031 32.988281 3.898438 32.980469 3.851562 C 32.789062 4.121094 32.675781 4.410156 32.605469 4.703125 C 32.519531 4.71875 32.464844 4.703125 32.480469 4.625 C 32.515625 4.417969 32.558594 4.207031 32.597656 3.996094 C 32.445312 3.992188 32.460938 4.105469 32.445312 4.179688 C 32.347656 4.621094 32.28125 5.070312 32.167969 5.503906 C 31.980469 6.21875 31.953125 6.949219 31.949219 7.675781 C 31.945312 8.246094 31.992188 8.816406 32.015625 9.382812 L 32.03125 9.382812 C 31.898438 9.359375 31.890625 9.25 31.878906 9.152344 C 31.832031 8.730469 31.777344 8.308594 31.75 7.886719 C 31.734375 7.609375 31.738281 7.328125 31.769531 7.054688 C 31.824219 6.578125 31.851562 6.097656 31.980469 5.632812 C 32.078125 5.265625 32.148438 4.894531 32.222656 4.523438 C 32.261719 4.332031 32.335938 4.136719 32.285156 3.949219 C 32.160156 3.878906 32.066406 3.871094 32.003906 3.992188 C 31.882812 4.222656 31.753906 4.453125 31.835938 4.738281 C 31.847656 4.777344 31.804688 4.84375 31.765625 4.878906 C 31.75 4.894531 31.691406 4.863281 31.648438 4.863281 C 31.613281 4.863281 31.574219 4.875 31.523438 4.886719 C 31.523438 4.984375 31.519531 5.070312 31.519531 5.15625 C 31.527344 5.796875 31.566406 6.441406 31.527344 7.082031 C 31.496094 7.667969 31.535156 8.246094 31.558594 8.828125 C 31.582031 9.398438 31.574219 9.964844 31.578125 10.535156 C 31.578125 11.046875 31.574219 11.558594 31.578125 12.066406 C 31.578125 12.144531 31.609375 12.222656 31.640625 12.339844 C 31.957031 12.023438 32.359375 12.050781 32.761719 11.921875 C 32.742188 11.847656 32.71875 11.777344 32.707031 11.707031 C 32.644531 11.34375 32.613281 10.984375 32.640625 10.617188 C 32.679688 10.078125 32.679688 9.539062 32.699219 9 C 32.722656 8.441406 32.804688 7.894531 32.960938 7.363281 C 33.027344 7.125 33.082031 6.878906 33.242188 6.679688 L 33.230469 6.679688 C 33.335938 6.792969 33.238281 6.902344 33.207031 7 C 32.992188 7.640625 32.847656 8.289062 32.875 8.972656 C 32.886719 9.324219 32.84375 9.671875 32.835938 10.023438 C 32.828125 10.445312 32.820312 10.867188 32.824219 11.289062 C 32.828125 11.507812 32.875 11.71875 32.941406 11.917969 C 33.160156 11.960938 33.355469 12 33.574219 12.042969 C 33.585938 11.96875 33.59375 11.914062 33.601562 11.859375 C 33.667969 11.367188 33.6875 10.871094 33.808594 10.386719 C 34 9.625 34.144531 8.851562 34.339844 8.089844 C 34.523438 7.371094 34.734375 6.65625 35.03125 5.976562 C 35.265625 5.441406 35.480469 4.902344 35.699219 4.363281 C 35.78125 4.164062 35.75 4.09375 35.519531 3.945312 C 35.308594 4.070312 35.253906 4.414062 34.90625 4.371094 C 34.734375 4.914062 34.570312 5.4375 34.40625 5.964844 C 34.394531 6.003906 34.417969 6.046875 34.417969 6.089844 L 34.425781 6.089844 C 34.328125 6.050781 34.308594 5.972656 34.332031 5.878906 C 34.488281 5.308594 34.640625 4.738281 34.792969 4.171875 C 34.800781 4.136719 34.78125 4.09375 34.773438 4.039062 C 34.667969 4.074219 34.578125 4.109375 34.488281 4.140625 C 34.429688 4.074219 34.382812 4.023438 34.3125 3.945312 C 34.253906 4.132812 34.210938 4.285156 34.164062 4.433594 Z M 34.0625 1.613281 C 34.363281 1.789062 34.675781 1.75 35.019531 1.691406 C 35.363281 1.632812 35.722656 1.558594 36.085938 1.617188 C 36.355469 1.664062 36.605469 1.589844 36.851562 1.433594 C 36.921875 1.484375 36.996094 1.527344 37.058594 1.578125 C 37.121094 1.636719 37.175781 1.703125 37.234375 1.769531 C 37.308594 1.742188 37.386719 1.707031 37.460938 1.679688 C 37.550781 1.769531 37.617188 1.882812 37.714844 1.925781 C 37.808594 1.96875 37.945312 1.917969 38.019531 2.042969 C 38.261719 2.070312 38.449219 2.316406 38.722656 2.21875 C 38.839844 2.273438 38.96875 2.3125 39.074219 2.382812 C 39.289062 2.53125 39.519531 2.558594 39.773438 2.476562 C 39.824219 2.59375 39.871094 2.699219 39.929688 2.824219 C 40 2.835938 40.082031 2.84375 40.164062 2.863281 C 40.234375 2.875 40.3125 2.886719 40.371094 2.921875 C 40.53125 3.019531 40.683594 3.128906 40.832031 3.242188 C 40.886719 3.28125 40.957031 3.335938 40.972656 3.394531 C 41.011719 3.574219 41.152344 3.660156 41.277344 3.757812 C 41.417969 3.867188 41.625 3.90625 41.679688 4.117188 C 41.902344 4.242188 42.125 4.339844 42.265625 4.601562 C 42.386719 4.820312 42.617188 4.988281 42.828125 5.171875 C 42.875 5.214844 43.003906 5.183594 43.09375 5.183594 C 43.1875 5.265625 43.164062 5.40625 43.296875 5.46875 C 43.417969 5.527344 43.292969 5.652344 43.304688 5.714844 C 43.460938 5.898438 43.613281 6.054688 43.738281 6.226562 C 43.894531 6.4375 44 6.683594 44.238281 6.832031 C 44.28125 6.859375 44.320312 6.921875 44.335938 6.972656 C 44.425781 7.25 44.625 7.445312 44.828125 7.625 C 44.984375 7.757812 45.074219 7.917969 45.121094 8.101562 C 45.183594 8.359375 45.28125 8.597656 45.476562 8.78125 C 45.5625 8.863281 45.484375 8.957031 45.519531 9.023438 C 45.601562 9.1875 45.621094 9.335938 45.566406 9.519531 C 45.535156 9.613281 45.601562 9.738281 45.628906 9.847656 C 45.652344 9.945312 45.71875 10.050781 45.703125 10.136719 C 45.640625 10.46875 45.707031 10.800781 45.683594 11.132812 C 45.664062 11.40625 45.6875 11.683594 45.6875 11.960938 C 45.691406 12.089844 45.6875 12.222656 45.683594 12.351562 C 45.679688 12.484375 45.671875 12.613281 45.664062 12.746094 C 45.660156 12.816406 45.652344 12.890625 45.636719 12.960938 C 45.609375 13.101562 45.558594 13.238281 45.542969 13.382812 C 45.507812 13.71875 45.375 13.980469 45.109375 14.203125 C 44.789062 14.476562 44.480469 14.765625 44.125 14.992188 C 43.867188 15.15625 43.601562 15.28125 43.273438 15.292969 C 42.925781 15.3125 42.585938 15.410156 42.242188 15.480469 C 41.683594 15.59375 41.125 15.675781 40.550781 15.703125 C 39.925781 15.730469 39.300781 15.816406 38.675781 15.875 C 38.488281 15.890625 38.296875 15.894531 38.109375 15.90625 C 37.742188 15.929688 37.378906 15.957031 37.015625 15.976562 C 36.621094 15.996094 36.226562 16.003906 35.832031 16.015625 C 35.523438 16.027344 35.265625 16.152344 35.054688 16.367188 C 34.8125 16.621094 34.519531 16.816406 34.242188 17.027344 C 33.621094 17.507812 33.015625 18.011719 32.390625 18.488281 C 31.730469 18.996094 31.164062 19.605469 30.527344 20.140625 C 30.269531 20.355469 30.015625 20.574219 29.757812 20.789062 C 29.632812 20.890625 29.535156 21.011719 29.453125 21.152344 C 28.988281 21.964844 28.480469 22.746094 27.878906 23.464844 C 27.496094 23.925781 27.117188 24.386719 26.699219 24.8125 C 26.324219 25.199219 25.898438 25.535156 25.496094 25.894531 C 25.195312 26.167969 24.902344 26.453125 24.601562 26.726562 C 24.179688 27.109375 23.746094 27.476562 23.328125 27.863281 C 23.003906 28.15625 22.695312 28.46875 22.378906 28.765625 C 21.839844 29.277344 21.296875 29.789062 20.753906 30.296875 C 20.671875 30.378906 20.585938 30.457031 20.503906 30.539062 C 20.097656 30.941406 19.699219 31.34375 19.289062 31.738281 C 18.574219 32.425781 17.847656 33.097656 17.136719 33.789062 C 16.6875 34.226562 16.265625 34.691406 15.824219 35.136719 C 15.578125 35.386719 15.316406 35.621094 15.070312 35.867188 C 14.746094 36.199219 14.425781 36.542969 14.101562 36.878906 C 14.011719 36.972656 13.910156 37.054688 13.820312 37.148438 C 13.617188 37.359375 13.414062 37.566406 13.214844 37.78125 C 12.378906 38.695312 11.542969 39.613281 10.707031 40.527344 C 10.222656 41.054688 9.753906 41.59375 9.25 42.097656 C 8.761719 42.59375 8.269531 43.09375 7.667969 43.46875 C 7.449219 43.609375 7.222656 43.683594 6.964844 43.628906 C 6.867188 43.609375 6.765625 43.570312 6.683594 43.515625 C 6.261719 43.238281 5.984375 42.851562 5.835938 42.375 C 5.8125 42.296875 5.824219 42.203125 5.847656 42.121094 C 5.914062 41.878906 6.027344 41.660156 6.191406 41.46875 C 6.597656 40.976562 7 40.472656 7.417969 39.988281 C 8.070312 39.222656 8.746094 38.484375 9.507812 37.816406 C 10.273438 37.140625 10.941406 36.367188 11.605469 35.59375 C 11.863281 35.296875 12.15625 35.03125 12.421875 34.742188 C 12.691406 34.453125 12.941406 34.152344 13.207031 33.859375 C 13.65625 33.363281 14.109375 32.867188 14.554688 32.367188 C 14.691406 32.214844 14.808594 32.046875 14.945312 31.898438 C 15.289062 31.519531 15.640625 31.152344 15.984375 30.773438 C 16.285156 30.4375 16.578125 30.09375 16.878906 29.753906 C 17.207031 29.382812 17.535156 29.011719 17.863281 28.640625 C 18.171875 28.292969 18.476562 27.941406 18.78125 27.589844 C 18.988281 27.347656 19.195312 27.105469 19.402344 26.859375 C 20.441406 25.640625 21.464844 24.40625 22.433594 23.128906 C 22.855469 22.570312 23.269531 22.007812 23.707031 21.464844 C 24.199219 20.847656 24.738281 20.273438 25.363281 19.789062 C 25.871094 19.398438 26.375 19.003906 26.882812 18.613281 C 26.90625 18.59375 26.929688 18.558594 26.949219 18.5625 C 27.226562 18.574219 27.3125 18.347656 27.429688 18.175781 C 27.792969 17.644531 28.144531 17.105469 28.503906 16.578125 C 28.746094 16.230469 28.996094 15.890625 29.242188 15.546875 C 29.730469 14.855469 30.222656 14.167969 30.699219 13.472656 C 30.871094 13.222656 30.988281 12.933594 31.195312 12.703125 C 31.25 12.648438 31.269531 12.546875 31.273438 12.464844 C 31.292969 12.113281 31.3125 11.761719 31.316406 11.414062 C 31.316406 10.230469 31.304688 9.046875 31.265625 7.863281 C 31.246094 7.25 31.28125 6.636719 31.292969 6.023438 C 31.296875 5.730469 31.304688 5.4375 31.292969 5.144531 C 31.261719 4.28125 31.410156 3.453125 31.851562 2.707031 C 32.03125 2.398438 32.242188 2.09375 32.621094 1.972656 C 32.65625 1.960938 32.679688 1.910156 32.710938 1.882812 C 32.828125 1.796875 32.949219 1.769531 33.074219 1.863281 C 33.195312 1.957031 33.324219 1.941406 33.449219 1.890625 C 33.648438 1.804688 33.84375 1.710938 34.0625 1.613281 " fill-opacity="1" fill-rule="nonzero"/></g></g></g></g></g><g clip-path="url(#facee63adf)"><g clip-path="url(#90fc505826)"><g clip-path="url(#e6ea0b6c5b)"><path fill="#cba135" d="M 43.175781 12.140625 C 43.167969 12.164062 43.160156 12.1875 43.148438 12.210938 C 43.144531 12.21875 43.121094 12.214844 43.109375 12.21875 C 43.125 12.1875 43.140625 12.15625 43.15625 12.125 C 43.15625 12.125 43.175781 12.140625 43.175781 12.140625 " fill-opacity="1" fill-rule="nonzero"/></g></g></g><g clip-path="url(#cd9080d27a)"><g clip-path="url(#ba18396cc2)"><g clip-path="url(#f42e166236)"><path fill="#cba135" d="M 38.15625 10.035156 C 37.90625 10.398438 37.667969 10.660156 37.390625 10.976562 C 37.488281 10.675781 37.746094 10.359375 38.15625 10.035156 " fill-opacity="1" fill-rule="nonzero"/></g></g></g><g clip-path="url(#340c82a9a4)"><g clip-path="url(#26f922c007)"><g clip-path="url(#711e8eadff)"><path fill="#cba135" d="M 38.699219 9.382812 C 38.929688 9.140625 39.164062 8.894531 39.394531 8.652344 C 39.21875 8.949219 38.988281 9.195312 38.699219 9.382812 " fill-opacity="1" fill-rule="nonzero"/></g></g></g><g clip-path="url(#96da1d4f8d)"><g clip-path="url(#1a39df90fc)"><g clip-path="url(#fa38a72a87)"><path fill="#cba135" d="M 37.859375 7.460938 C 37.691406 7.734375 37.503906 7.996094 37.253906 8.203125 C 37.429688 7.933594 37.59375 7.65625 37.859375 7.460938 " fill-opacity="1" fill-rule="nonzero"/></g></g></g><g clip-path="url(#9b923af96c)"><g clip-path="url(#6e9b437144)"><g clip-path="url(#e366d6e675)"><path fill="#cba135" d="M 37.476562 12.957031 C 37.550781 12.703125 37.75 12.628906 38 12.617188 C 37.824219 12.730469 37.652344 12.84375 37.476562 12.957031 " fill-opacity="1" fill-rule="nonzero"/></g></g></g><g clip-path="url(#7fddce018b)"><g clip-path="url(#cff05fd7d4)"><g clip-path="url(#35c8943e3c)"><path fill="#cba135" d="M 36.707031 9.09375 C 36.707031 9.039062 36.6875 8.96875 36.714844 8.929688 C 36.789062 8.824219 36.882812 8.730469 36.984375 8.644531 C 36.890625 8.792969 36.796875 8.945312 36.707031 9.09375 " fill-opacity="1" fill-rule="nonzero"/></g></g></g><g clip-path="url(#ae02125d8c)"><g clip-path="url(#09fe656f5a)"><g clip-path="url(#6d9ab0654e)"><path fill="#cba135" d="M 35.410156 11.203125 C 35.449219 10.992188 35.542969 10.808594 35.699219 10.65625 C 35.605469 10.84375 35.582031 11.070312 35.398438 11.203125 C 35.394531 11.203125 35.410156 11.203125 35.410156 11.203125 " fill-opacity="1" fill-rule="nonzero"/></g></g></g><g clip-path="url(#9f8b418f7c)"><g clip-path="url(#7728755cb8)"><g clip-path="url(#e303e5949a)"><path fill="#cba135" d="M 40.253906 7.839844 C 40.1875 8.003906 40.070312 8.117188 39.859375 8.261719 C 39.984375 8.039062 40.109375 7.929688 40.253906 7.839844 " fill-opacity="1" fill-rule="nonzero"/></g></g></g><g clip-path="url(#fef8d35d5b)"><g clip-path="url(#dff7243ff6)"><g clip-path="url(#c8f10bea4e)"><path fill="#cba135" d="M 36.707031 9.09375 C 36.574219 9.296875 36.445312 9.496094 36.316406 9.699219 L 36.324219 9.699219 C 36.296875 9.628906 36.269531 9.558594 36.328125 9.496094 C 36.449219 9.359375 36.578125 9.226562 36.707031 9.09375 " fill-opacity="1" fill-rule="nonzero"/></g></g></g><g clip-path="url(#3edf313f0e)"><g clip-path="url(#6388b0b835)"><g clip-path="url(#fa98bdb867)"><path fill="#cba135" d="M 38.550781 9.621094 C 38.460938 9.699219 38.382812 9.765625 38.304688 9.835938 C 38.300781 9.828125 38.292969 9.820312 38.285156 9.816406 C 38.324219 9.773438 38.355469 9.726562 38.398438 9.6875 C 38.433594 9.65625 38.433594 9.566406 38.550781 9.621094 " fill-opacity="1" fill-rule="nonzero"/></g></g></g><g clip-path="url(#cf99e80bdb)"><g clip-path="url(#4a33ef8c8c)"><g clip-path="url(#7b79f0d934)"><path fill="#cba135" d="M 38.945312 11.976562 C 38.871094 12.015625 38.800781 12.050781 38.675781 12.117188 C 38.746094 11.957031 38.839844 11.945312 38.945312 11.976562 " fill-opacity="1" fill-rule="nonzero"/></g></g></g><g clip-path="url(#ccc51a93ac)"><g clip-path="url(#3f12864cb4)"><g clip-path="url(#386065f3e0)"><path fill="#cba135" d="M 36.316406 9.699219 C 36.25 9.789062 36.179688 9.882812 36.097656 9.992188 C 36.15625 9.820312 36.15625 9.820312 36.320312 9.699219 C 36.324219 9.699219 36.316406 9.699219 36.316406 9.699219 " fill-opacity="1" fill-rule="nonzero"/></g></g></g><g clip-path="url(#4b10fc361f)"><g clip-path="url(#2a5aefbf88)"><g clip-path="url(#ec31f8c065)"><path fill="#cba135" d="M 38.410156 12.285156 C 38.386719 12.316406 38.367188 12.351562 38.339844 12.378906 C 38.324219 12.390625 38.292969 12.390625 38.269531 12.394531 C 38.277344 12.371094 38.277344 12.339844 38.292969 12.320312 C 38.320312 12.292969 38.355469 12.273438 38.390625 12.253906 C 38.398438 12.261719 38.40625 12.273438 38.410156 12.285156 " fill-opacity="1" fill-rule="nonzero"/></g></g></g><g clip-path="url(#96b51217a1)"><g clip-path="url(#da9bf3ade6)"><g clip-path="url(#d96a5f2d6c)"><path fill="#cba135" d="M 40.09375 10 C 40.105469 9.992188 40.117188 9.984375 40.128906 9.980469 C 40.125 10.003906 40.128906 10.03125 40.113281 10.046875 C 40.101562 10.0625 40.074219 10.0625 40.054688 10.070312 C 40.066406 10.046875 40.082031 10.023438 40.09375 10 " fill-opacity="1" fill-rule="nonzero"/></g></g></g><g clip-path="url(#dc52735734)"><g clip-path="url(#570189a2c6)"><g clip-path="url(#632c0dbb72)"><path fill="#cba135" d="M 41.996094 9.367188 C 42.082031 9.265625 42.171875 9.167969 42.3125 9.148438 C 42.265625 9.195312 42.226562 9.253906 42.171875 9.289062 C 42.121094 9.328125 42.054688 9.339844 41.996094 9.367188 " fill-opacity="1" fill-rule="nonzero"/></g></g></g><g clip-path="url(#2ab0ae9945)"><g clip-path="url(#f07a03a786)"><g clip-path="url(#5863e110a5)"><path fill="#cba135" d="M 38.402344 7.925781 C 38.433594 7.890625 38.460938 7.855469 38.492188 7.820312 C 38.496094 7.828125 38.503906 7.832031 38.511719 7.839844 C 38.480469 7.871094 38.453125 7.90625 38.421875 7.941406 C 38.417969 7.933594 38.410156 7.929688 38.402344 7.925781 " fill-opacity="1" fill-rule="nonzero"/></g></g></g><g clip-path="url(#a89604a88d)"><g clip-path="url(#bc268aacc6)"><g clip-path="url(#3977e18f71)"><path fill="#cba135" d="M 35.953125 10.269531 C 35.914062 10.316406 35.886719 10.347656 35.859375 10.375 C 35.871094 10.34375 35.878906 10.3125 35.890625 10.285156 C 35.894531 10.277344 35.914062 10.277344 35.953125 10.269531 " fill-opacity="1" fill-rule="nonzero"/></g></g></g><g clip-path="url(#f24e4766b3)"><g clip-path="url(#630d4be82e)"><g clip-path="url(#313b48dc97)"><path fill="#cba135" d="M 41.570312 13.386719 C 41.652344 13.261719 41.769531 13.292969 41.886719 13.316406 C 41.886719 13.316406 41.882812 13.300781 41.882812 13.304688 C 41.785156 13.351562 41.695312 13.445312 41.570312 13.375 L 41.570312 13.386719 " fill-opacity="1" fill-rule="nonzero"/><path fill="#cba135" d="M 41.570312 13.375 C 41.539062 13.402344 41.511719 13.433594 41.476562 13.453125 C 41.464844 13.460938 41.433594 13.4375 41.414062 13.429688 C 41.417969 13.417969 41.417969 13.402344 41.425781 13.398438 C 41.472656 13.371094 41.515625 13.316406 41.570312 13.386719 L 41.570312 13.375 " fill-opacity="1" fill-rule="nonzero"/></g></g></g><g clip-path="url(#e9aa85b922)"><g clip-path="url(#399d761f21)"><g clip-path="url(#37c9aaa6fc)"><path fill="#cba135" d="M 41.480469 10.824219 C 41.511719 10.800781 41.539062 10.773438 41.566406 10.746094 C 41.570312 10.75 41.574219 10.753906 41.578125 10.757812 C 41.550781 10.785156 41.523438 10.8125 41.496094 10.839844 C 41.492188 10.835938 41.488281 10.832031 41.480469 10.824219 " fill-opacity="1" fill-rule="nonzero"/></g></g></g><g clip-path="url(#2eaa19b11b)"><g clip-path="url(#b147a28e80)"><g clip-path="url(#75e37731d7)"><path fill="#cba135" d="M 36.40625 6.753906 C 36.371094 6.703125 36.285156 6.65625 36.402344 6.601562 C 36.402344 6.652344 36.40625 6.703125 36.40625 6.753906 " fill-opacity="1" fill-rule="nonzero"/></g></g></g><g clip-path="url(#713e52bb3e)"><g clip-path="url(#51d160f987)"><g clip-path="url(#7ed3afb9f2)"><path fill="#cba135" d="M 36.40625 6.753906 C 36.367188 6.839844 36.328125 6.921875 36.289062 7.007812 L 36.289062 7.003906 C 36.210938 6.863281 36.332031 6.820312 36.40625 6.753906 " fill-opacity="1" fill-rule="nonzero"/></g></g></g><g clip-path="url(#c970f0aa25)"><g clip-path="url(#8030c3304c)"><g clip-path="url(#e812f0dd5f)"><path fill="#cba135" d="M 41.625 9.332031 C 41.636719 9.414062 41.589844 9.441406 41.503906 9.433594 C 41.546875 9.40625 41.589844 9.375 41.628906 9.347656 C 41.628906 9.34375 41.625 9.332031 41.625 9.332031 " fill-opacity="1" fill-rule="nonzero"/></g></g></g><g clip-path="url(#c81f693611)"><g clip-path="url(#b0a3a42042)"><g clip-path="url(#486a43ebd2)"><path fill="#cba135" d="M 42.339844 9.441406 C 42.308594 9.496094 42.277344 9.550781 42.242188 9.605469 C 42.234375 9.601562 42.226562 9.59375 42.214844 9.585938 C 42.257812 9.539062 42.296875 9.492188 42.339844 9.441406 " fill-opacity="1" fill-rule="nonzero"/></g></g></g><g clip-path="url(#4795a4745a)"><g clip-path="url(#1266fcd142)"><g clip-path="url(#18f0eb9aa3)"><path fill="#cba135" d="M 36.082031 7.378906 L 36.109375 7.367188 L 36.09375 7.394531 Z M 36.082031 7.378906 " fill-opacity="1" fill-rule="nonzero"/></g></g></g><g clip-path="url(#e330d93935)"><g clip-path="url(#c42e217c83)"><g clip-path="url(#fbe6316bed)"><path fill="#cba135" d="M 41.9375 9.292969 C 41.964844 9.316406 41.988281 9.339844 42.015625 9.359375 C 41.980469 9.382812 41.945312 9.402344 41.890625 9.433594 C 41.910156 9.375 41.925781 9.335938 41.9375 9.292969 " fill-opacity="1" fill-rule="nonzero"/></g></g></g><g clip-path="url(#d66a71705a)"><g clip-path="url(#ec5c274263)"><g clip-path="url(#0cc253d1cf)"><path fill="#cba135" d="M 40.464844 12.105469 C 40.433594 12.113281 40.402344 12.125 40.371094 12.132812 C 40.375 12.125 40.382812 12.105469 40.386719 12.105469 C 40.414062 12.109375 40.4375 12.113281 40.464844 12.121094 L 40.464844 12.105469 " fill-opacity="1" fill-rule="nonzero"/><path fill="#cba135" d="M 40.464844 12.121094 C 40.519531 12.0625 40.5625 11.988281 40.65625 12.058594 L 40.65625 12.046875 C 40.59375 12.0625 40.527344 12.082031 40.464844 12.101562 C 40.464844 12.105469 40.464844 12.121094 40.464844 12.121094 " fill-opacity="1" fill-rule="nonzero"/></g></g></g><g clip-path="url(#4817b4ab92)"><g clip-path="url(#0965f4f82e)"><g clip-path="url(#73f170a8ea)"><path fill="#cba135" d="M 40.65625 12.058594 C 40.679688 11.960938 40.738281 11.917969 40.835938 11.925781 C 40.835938 11.921875 40.835938 11.910156 40.835938 11.910156 C 40.777344 11.953125 40.714844 11.996094 40.65625 12.042969 C 40.65625 12.046875 40.65625 12.058594 40.65625 12.058594 " fill-opacity="1" fill-rule="nonzero"/></g></g></g><g clip-path="url(#6fc9c27cf6)"><g clip-path="url(#35907f2ccb)"><g clip-path="url(#4d94f9f427)"><path fill="#cba135" d="M 33.550781 5.972656 C 33.539062 5.9375 33.511719 5.894531 33.523438 5.867188 C 33.589844 5.710938 33.667969 5.558594 33.742188 5.40625 L 33.730469 5.414062 C 33.742188 5.625 33.679688 5.8125 33.539062 5.972656 L 33.550781 5.972656 " fill-opacity="1" fill-rule="nonzero"/></g></g></g><g clip-path="url(#7f58adccb3)"><g clip-path="url(#7525a9e6e9)"><g clip-path="url(#20a99777a7)"><path fill="#cba135" d="M 34.019531 4.628906 C 34.054688 4.644531 34.089844 4.660156 34.128906 4.675781 C 34.125 4.773438 34.160156 4.875 34.046875 4.941406 C 34.039062 4.835938 34.027344 4.734375 34.019531 4.628906 " fill-opacity="1" fill-rule="nonzero"/></g></g></g><g clip-path="url(#c23a55e79f)"><g clip-path="url(#f09f2b6558)"><g clip-path="url(#f05fcf484f)"><path fill="#cba135" d="M 33.242188 6.679688 C 33.28125 6.597656 33.320312 6.511719 33.359375 6.429688 C 33.359375 6.429688 33.34375 6.429688 33.34375 6.429688 C 33.390625 6.550781 33.335938 6.628906 33.230469 6.679688 C 33.230469 6.679688 33.242188 6.679688 33.242188 6.679688 " fill-opacity="1" fill-rule="nonzero"/></g></g></g><g clip-path="url(#6aaf39b772)"><g clip-path="url(#740a67b431)"><g clip-path="url(#1e66bf0b4a)"><path fill="#cba135" d="M 33.742188 5.40625 C 33.769531 5.359375 33.796875 5.308594 33.832031 5.242188 C 33.859375 5.351562 33.769531 5.367188 33.734375 5.410156 C 33.730469 5.414062 33.742188 5.40625 33.742188 5.40625 " fill-opacity="1" fill-rule="nonzero"/></g></g></g><g clip-path="url(#8c02fdc04d)"><g clip-path="url(#b88679c09a)"><g clip-path="url(#bbe1ca53ce)"><path fill="#cba135" d="M 33.539062 5.972656 C 33.554688 6.089844 33.496094 6.164062 33.414062 6.226562 L 33.425781 6.226562 C 33.390625 6.105469 33.453125 6.03125 33.550781 5.972656 C 33.550781 5.972656 33.539062 5.972656 33.539062 5.972656 " fill-opacity="1" fill-rule="nonzero"/></g></g></g><g clip-path="url(#a8f0c27a75)"><g clip-path="url(#1942cae104)"><g clip-path="url(#c2c2f4e286)"><path fill="#cba135" d="M 32.507812 6.789062 C 32.53125 6.796875 32.558594 6.804688 32.582031 6.816406 C 32.589844 6.824219 32.597656 6.835938 32.609375 6.84375 C 32.589844 6.847656 32.566406 6.863281 32.558594 6.855469 C 32.539062 6.839844 32.53125 6.8125 32.515625 6.789062 L 32.507812 6.789062 " fill-opacity="1" fill-rule="nonzero"/></g></g></g><g clip-path="url(#323471ed0f)"><g clip-path="url(#0e7fc553c8)"><g clip-path="url(#ce550d5cd4)"><path fill="#cba135" d="M 34.371094 6.285156 C 34.28125 6.191406 34.324219 6.136719 34.425781 6.089844 C 34.425781 6.089844 34.417969 6.089844 34.421875 6.089844 C 34.402344 6.15625 34.382812 6.21875 34.363281 6.285156 L 34.371094 6.285156 " fill-opacity="1" fill-rule="nonzero"/></g></g></g><g clip-path="url(#1add71d5ee)"><g clip-path="url(#40e66e93f0)"><g clip-path="url(#22370fdc1b)"><path fill="#cba135" d="M 33.414062 6.226562 C 33.472656 6.324219 33.402344 6.371094 33.347656 6.429688 C 33.34375 6.429688 33.359375 6.429688 33.359375 6.425781 C 33.382812 6.363281 33.40625 6.292969 33.425781 6.226562 C 33.425781 6.226562 33.414062 6.226562 33.414062 6.226562 " fill-opacity="1" fill-rule="nonzero"/></g></g></g><g clip-path="url(#8f7f8e9bb6)"><g clip-path="url(#5318e9d24b)"><g clip-path="url(#fb046b4107)"><path fill="#cba135" d="M 32.515625 6.789062 C 32.535156 6.769531 32.550781 6.746094 32.566406 6.726562 C 32.574219 6.714844 32.585938 6.710938 32.597656 6.703125 C 32.597656 6.722656 32.605469 6.757812 32.59375 6.765625 C 32.574219 6.78125 32.542969 6.78125 32.511719 6.789062 C 32.507812 6.789062 32.515625 6.789062 32.515625 6.789062 " fill-opacity="1" fill-rule="nonzero"/></g></g></g><g clip-path="url(#f3bc35fc7e)"><g clip-path="url(#42cd86f4f0)"><g clip-path="url(#95c3a06c11)"><path fill="#cba135" d="M 34.019531 4.628906 C 34.070312 4.566406 34.121094 4.5 34.175781 4.433594 C 34.175781 4.433594 34.164062 4.433594 34.164062 4.433594 C 34.203125 4.566406 34.109375 4.597656 34.019531 4.628906 " fill-opacity="1" fill-rule="nonzero"/></g></g></g><g clip-path="url(#e1d1545a4b)"><g clip-path="url(#f5d7e31ad6)"><g clip-path="url(#0fddc7b709)"><path fill="#cba135" d="M 34.160156 6.484375 C 34.167969 6.503906 34.175781 6.523438 34.1875 6.542969 C 34.195312 6.535156 34.203125 6.523438 34.210938 6.515625 C 34.195312 6.503906 34.175781 6.496094 34.160156 6.484375 C 34.160156 6.488281 34.160156 6.484375 34.160156 6.484375 " fill-opacity="1" fill-rule="nonzero"/><path fill="#cba135" d="M 34.363281 6.285156 C 34.320312 6.378906 34.269531 6.464844 34.160156 6.484375 C 34.160156 6.484375 34.160156 6.488281 34.160156 6.484375 C 34.230469 6.417969 34.296875 6.351562 34.371094 6.285156 C 34.371094 6.285156 34.363281 6.285156 34.363281 6.285156 " fill-opacity="1" fill-rule="nonzero"/></g></g></g></svg>