<svg xmlns="http://www.w3.org/2000/svg" xmlns:xlink="http://www.w3.org/1999/xlink" width="64" zoomAndPan="magnify" viewBox="0 0 48 48" height="64" preserveAspectRatio="xMidYMid meet" version="1.0"><path fill="#cba135" d="M 36.496094 0.195312 C 36.496094 0.273438 36.875 0.574219 37.328125 0.839844 C 37.769531 1.121094 38.695312 1.765625 39.371094 2.28125 C 40.785156 3.363281 40.992188 3.175781 39.6875 1.953125 L 38.773438 1.121094 L 39.859375 1.699219 C 40.457031 2.03125 41.085938 2.40625 41.242188 2.546875 C 42.277344 3.378906 43.113281 4.347656 43.660156 5.304688 C 44.242188 6.355469 44.273438 6.464844 44.273438 7.8125 L 44.273438 9.222656 L 42.089844 14.234375 C 40.894531 16.992188 39.828125 19.453125 39.703125 19.71875 C 39.59375 19.96875 39.027344 21.238281 38.476562 22.539062 L 37.457031 24.890625 L 36.152344 24.828125 C 35.429688 24.796875 34.800781 24.699219 34.738281 24.605469 C 34.691406 24.511719 34.769531 24.261719 34.941406 24.058594 C 35.097656 23.839844 35.238281 23.558594 35.238281 23.417969 C 35.238281 23.273438 35.351562 23.023438 35.476562 22.867188 C 35.601562 22.695312 35.710938 22.429688 35.710938 22.257812 C 35.710938 22.101562 35.851562 21.785156 36.027344 21.566406 C 36.199219 21.347656 36.339844 21.050781 36.339844 20.910156 C 36.339844 20.753906 36.449219 20.503906 36.574219 20.328125 C 36.703125 20.171875 36.8125 19.890625 36.8125 19.734375 C 36.8125 19.5625 36.921875 19.296875 37.0625 19.15625 C 37.203125 18.996094 37.34375 18.683594 37.359375 18.464844 C 37.390625 18.261719 37.535156 17.964844 37.675781 17.824219 C 37.816406 17.667969 37.910156 17.398438 37.878906 17.210938 C 37.832031 16.992188 37.910156 16.804688 38.101562 16.679688 C 38.257812 16.585938 38.382812 16.335938 38.382812 16.128906 C 38.382812 15.925781 38.492188 15.675781 38.617188 15.566406 C 38.742188 15.457031 38.855469 15.238281 38.855469 15.066406 C 38.855469 14.894531 38.996094 14.578125 39.167969 14.359375 C 39.339844 14.140625 39.480469 13.8125 39.480469 13.625 C 39.480469 13.453125 39.59375 13.152344 39.71875 12.996094 C 39.84375 12.824219 39.953125 12.574219 39.953125 12.417969 C 39.953125 12.277344 40.046875 12.074219 40.171875 11.980469 C 40.300781 11.871094 40.441406 11.601562 40.488281 11.367188 C 40.582031 10.960938 40.863281 10.316406 41.320312 9.425781 C 41.429688 9.207031 41.523438 8.875 41.523438 8.703125 C 41.523438 8.53125 41.636719 8.3125 41.777344 8.1875 C 41.933594 8.0625 41.996094 7.828125 41.964844 7.546875 C 41.917969 7.292969 41.980469 7.027344 42.105469 6.933594 C 42.359375 6.714844 42.375 6.261719 42.121094 5.804688 C 42.027344 5.617188 41.949219 5.242188 41.964844 4.992188 C 41.980469 4.726562 41.902344 4.410156 41.792969 4.269531 C 41.460938 3.847656 40.0625 3.0625 38.066406 2.171875 C 36.308594 1.386719 36.167969 1.355469 36.027344 1.621094 C 35.820312 2 35.820312 2.09375 36.027344 2.09375 C 36.121094 2.09375 37.34375 2.59375 38.757812 3.207031 C 40.800781 4.082031 41.367188 4.394531 41.507812 4.710938 C 41.621094 4.929688 41.667969 5.132812 41.652344 5.148438 C 41.621094 5.179688 40.269531 4.617188 38.617188 3.894531 C 35.835938 2.6875 35.617188 2.625 35.492188 2.890625 C 35.414062 3.0625 35.382812 3.222656 35.414062 3.238281 C 35.445312 3.269531 36.859375 3.878906 38.539062 4.597656 C 40.222656 5.320312 41.667969 5.960938 41.730469 6.023438 C 41.808594 6.074219 41.839844 6.277344 41.808594 6.449219 C 41.761719 6.746094 41.523438 6.667969 38.695312 5.445312 C 37.015625 4.726562 35.507812 4.066406 35.367188 3.972656 C 35.144531 3.847656 35.050781 3.894531 34.910156 4.144531 C 34.816406 4.316406 34.769531 4.488281 34.800781 4.503906 C 34.832031 4.519531 36.292969 5.164062 38.066406 5.914062 C 41.792969 7.480469 41.730469 7.449219 41.601562 7.765625 C 41.523438 7.96875 41.226562 7.890625 39.828125 7.261719 C 35.253906 5.257812 34.597656 5.007812 34.4375 5.242188 C 34.359375 5.367188 34.296875 5.492188 34.296875 5.539062 C 34.296875 5.585938 35.851562 6.292969 37.753906 7.105469 C 39.65625 7.921875 41.210938 8.625 41.210938 8.671875 C 41.210938 8.71875 41.148438 8.84375 41.070312 8.972656 C 40.960938 9.144531 40.253906 8.890625 37.457031 7.6875 C 34.25 6.308594 33.984375 6.214844 33.890625 6.511719 C 33.839844 6.683594 33.824219 6.839844 33.855469 6.855469 C 33.871094 6.886719 35.429688 7.5625 37.28125 8.359375 C 39.136719 9.144531 40.675781 9.816406 40.707031 9.847656 C 40.785156 9.925781 40.535156 10.398438 40.410156 10.398438 C 40.269531 10.398438 34.816406 8.09375 33.9375 7.65625 C 33.542969 7.464844 33.496094 7.464844 33.339844 7.765625 C 33.246094 7.9375 33.199219 8.09375 33.230469 8.109375 C 33.261719 8.140625 34.800781 8.796875 36.652344 9.582031 C 38.507812 10.363281 40.046875 11.070312 40.0625 11.132812 C 40.09375 11.195312 40.046875 11.351562 39.96875 11.476562 C 39.84375 11.664062 39.183594 11.429688 36.355469 10.207031 C 34.4375 9.394531 32.882812 8.765625 32.882812 8.84375 C 32.882812 8.90625 32.851562 9.066406 32.804688 9.175781 C 32.742188 9.332031 33.667969 9.800781 36.183594 10.867188 C 38.082031 11.679688 39.640625 12.386719 39.640625 12.433594 C 39.640625 12.480469 39.578125 12.605469 39.496094 12.730469 C 39.371094 12.917969 38.710938 12.683594 35.882812 11.460938 C 32.601562 10.035156 32.394531 9.972656 32.238281 10.253906 C 32.097656 10.523438 32.160156 10.601562 32.757812 10.851562 C 33.132812 11.007812 34.707031 11.679688 36.261719 12.355469 C 37.816406 13.011719 39.105469 13.578125 39.121094 13.59375 C 39.152344 13.625 39.074219 13.75 38.964844 13.90625 C 38.773438 14.171875 38.570312 14.109375 35.929688 12.980469 C 34.390625 12.308594 32.835938 11.632812 32.507812 11.476562 C 32.160156 11.320312 31.878906 11.195312 31.863281 11.226562 C 31.832031 11.242188 31.78125 11.398438 31.734375 11.570312 C 31.640625 11.855469 32.019531 12.042969 35.082031 13.359375 C 36.984375 14.171875 38.539062 14.878906 38.539062 14.957031 C 38.539062 15.019531 38.476562 15.128906 38.382812 15.175781 C 38.273438 15.238281 35.664062 14.171875 31.53125 12.339844 C 31.390625 12.277344 31.074219 12.902344 31.203125 12.980469 C 31.21875 12.996094 32.757812 13.65625 34.613281 14.4375 C 36.464844 15.222656 38.003906 15.925781 38.019531 15.988281 C 38.050781 16.050781 38.003906 16.210938 37.925781 16.320312 C 37.800781 16.523438 37.503906 16.398438 31.058594 13.59375 C 30.839844 13.5 30.621094 14 30.792969 14.171875 C 30.855469 14.234375 32.410156 14.941406 34.21875 15.707031 C 37.328125 17.054688 37.675781 17.273438 37.296875 17.652344 C 37.234375 17.714844 35.648438 17.085938 33.746094 16.273438 C 31.863281 15.457031 30.304688 14.800781 30.273438 14.816406 C 30.257812 14.847656 30.210938 14.988281 30.179688 15.160156 C 30.148438 15.394531 30.683594 15.691406 33.511719 16.898438 C 35.367188 17.699219 36.90625 18.417969 36.921875 18.480469 C 36.9375 18.558594 36.90625 18.714844 36.828125 18.824219 C 36.734375 18.980469 35.914062 18.699219 33.261719 17.554688 C 30.054688 16.179688 29.804688 16.082031 29.675781 16.367188 C 29.597656 16.539062 29.566406 16.695312 29.597656 16.710938 C 29.628906 16.742188 31.15625 17.398438 32.960938 18.152344 C 34.785156 18.917969 36.308594 19.59375 36.386719 19.640625 C 36.449219 19.6875 36.402344 19.84375 36.308594 19.984375 C 36.121094 20.203125 35.742188 20.078125 32.726562 18.777344 C 29.660156 17.460938 29.332031 17.351562 29.144531 17.570312 C 28.953125 17.808594 29.082031 17.902344 30.164062 18.402344 C 30.839844 18.699219 32.394531 19.375 33.621094 19.890625 C 34.847656 20.390625 35.851562 20.878906 35.867188 20.972656 C 35.867188 21.582031 35.554688 21.503906 32.175781 20.03125 C 29.644531 18.933594 28.703125 18.589844 28.609375 18.746094 C 28.546875 18.839844 28.515625 18.996094 28.53125 19.078125 C 28.5625 19.15625 30.101562 19.875 31.957031 20.675781 C 33.808594 21.472656 35.304688 22.179688 35.285156 22.226562 C 35.128906 22.757812 35.554688 22.882812 31.042969 20.925781 C 28.390625 19.765625 28.167969 19.703125 28.074219 19.984375 C 28.027344 20.15625 28.011719 20.3125 28.042969 20.328125 C 28.058594 20.359375 29.613281 21.035156 31.46875 21.832031 C 33.324219 22.632812 34.863281 23.289062 34.878906 23.320312 C 34.910156 23.335938 34.832031 23.464844 34.722656 23.605469 C 34.546875 23.855469 34.234375 23.746094 31.125 22.398438 C 27.933594 21.019531 27.683594 20.941406 27.539062 21.207031 C 27.445312 21.363281 27.429688 21.535156 27.492188 21.566406 C 27.570312 21.597656 29.066406 22.257812 30.839844 23.007812 C 32.617188 23.761719 34.125 24.449219 34.203125 24.511719 C 34.296875 24.605469 34.296875 24.714844 34.1875 24.828125 C 34.0625 24.953125 33.246094 24.667969 31.21875 23.792969 C 29.660156 23.117188 28.136719 22.445312 27.808594 22.304688 C 27.242188 22.023438 27.226562 22.023438 27.054688 22.335938 C 26.960938 22.507812 26.914062 22.664062 26.945312 22.679688 C 26.976562 22.695312 28.5 23.355469 30.335938 24.136719 C 33.464844 25.484375 33.714844 25.5625 34.265625 25.40625 C 34.816406 25.25 36.703125 25.3125 37.359375 25.5 C 37.644531 25.59375 38.019531 24.8125 41.132812 17.589844 C 43.035156 13.183594 44.667969 9.253906 44.761719 8.84375 C 45.453125 5.820312 42.40625 1.796875 38.476562 0.542969 C 37.25 0.148438 36.496094 0.0234375 36.496094 0.195312 Z M 36.496094 0.195312 " fill-opacity="1" fill-rule="nonzero"/><path fill="#cba135" d="M 30.179688 0.761719 C 29.960938 1.292969 26.472656 8.90625 24.570312 12.980469 C 24.257812 13.671875 23.566406 15.160156 23.0625 16.304688 C 22.542969 17.445312 22.074219 18.355469 22.011719 18.339844 C 21.914062 18.308594 15.285156 10.191406 11.292969 5.210938 C 10.414062 4.113281 9.691406 3.238281 9.675781 3.253906 C 9.644531 3.269531 9.769531 3.785156 9.941406 4.394531 C 10.902344 7.84375 14.4375 13.796875 19.417969 20.390625 L 20.515625 21.832031 L 18.820312 25.5625 C 17.878906 27.597656 17.09375 29.308594 17.0625 29.339844 C 17.042969 29.371094 16.792969 29.183594 16.527344 28.914062 C 15.710938 28.117188 14.734375 27.742188 13.273438 27.660156 C 11.78125 27.582031 10.964844 27.757812 9.457031 28.507812 C 4.285156 31.0625 2.839844 38.253906 6.988281 40.746094 C 10.382812 42.796875 15.679688 40.429688 17.5625 36.042969 C 17.753906 35.589844 18.617188 33.773438 19.496094 32.003906 C 20.375 30.214844 21.445312 27.960938 21.882812 26.988281 C 22.324219 26 22.75 25.140625 22.8125 25.078125 C 22.875 25.015625 23.28125 25.40625 23.707031 25.9375 C 24.617188 27.097656 29.675781 33.160156 30.226562 33.757812 C 30.433594 33.976562 30.886719 34.710938 31.21875 35.386719 C 32.820312 38.566406 36.324219 40.570312 39.480469 40.132812 C 41.179688 39.914062 42.609375 38.894531 43.347656 37.421875 C 43.835938 36.40625 44.023438 34.554688 43.742188 33.269531 C 43.300781 31.234375 41.683594 28.914062 39.859375 27.710938 C 36.703125 25.609375 32.773438 25.984375 31.171875 28.507812 L 30.714844 29.199219 L 29.238281 27.363281 C 28.421875 26.347656 26.992188 24.589844 26.0625 23.449219 L 24.382812 21.378906 L 24.964844 20 C 28.640625 11.210938 30.636719 4.457031 30.496094 1.230469 L 30.449219 0.132812 Z M 29.742188 4.269531 C 29.566406 5.398438 29.097656 7.339844 28.796875 8.203125 C 28.71875 8.421875 28.484375 9.222656 28.246094 10.003906 C 27.746094 11.664062 26.15625 15.957031 24.949219 18.871094 C 24.476562 20.015625 24.085938 21.128906 24.085938 21.332031 C 24.085938 21.550781 24.351562 22.054688 24.664062 22.445312 C 24.996094 22.835938 25.339844 23.273438 25.449219 23.402344 C 25.546875 23.527344 26.191406 24.308594 26.863281 25.140625 C 27.539062 25.96875 28.4375 27.097656 28.859375 27.628906 C 29.285156 28.164062 29.882812 28.851562 30.179688 29.167969 L 30.730469 29.730469 L 31.058594 29.292969 C 32.269531 27.710938 33.402344 27.019531 35.003906 26.894531 C 38.460938 26.613281 42.074219 29.261719 43.175781 32.910156 C 43.488281 33.929688 43.457031 35.824219 43.128906 36.75 C 42.765625 37.769531 41.886719 38.753906 40.960938 39.210938 C 39.292969 40.039062 36.511719 39.757812 34.691406 38.566406 C 33.433594 37.75 32.144531 36.328125 31.546875 35.074219 C 31.25 34.460938 30.855469 33.773438 30.667969 33.570312 C 30.496094 33.363281 30.148438 32.972656 29.929688 32.722656 C 28.921875 31.59375 26.832031 29.121094 25.261719 27.160156 C 23.691406 25.21875 23.046875 24.496094 22.875 24.496094 C 22.652344 24.496094 22.261719 25.15625 21.492188 26.769531 C 21.019531 27.773438 20.628906 28.632812 20.628906 28.664062 C 20.628906 28.695312 19.875 30.261719 18.945312 32.144531 C 18.003906 34.023438 17.042969 35.996094 16.808594 36.53125 C 15.679688 38.957031 12.628906 40.949219 9.957031 40.980469 C 7.882812 40.996094 6.375 40.179688 5.511719 38.566406 C 5.199219 37.972656 5.152344 37.671875 5.152344 36.011719 C 5.152344 34.164062 5.167969 34.117188 5.746094 32.925781 C 7.191406 29.964844 10.445312 27.914062 13.335938 28.148438 C 14.421875 28.226562 15.773438 28.773438 16.449219 29.402344 C 16.699219 29.636719 16.949219 29.824219 17.011719 29.824219 C 17.234375 29.824219 17.59375 29.261719 18.113281 28.101562 C 18.394531 27.457031 18.914062 26.332031 19.261719 25.59375 C 20.785156 22.304688 20.925781 21.976562 20.832031 21.707031 C 20.769531 21.566406 20.21875 20.769531 19.605469 19.953125 C 15.773438 14.863281 11.8125 8.453125 10.980469 6.007812 L 10.726562 5.304688 L 11.058594 5.695312 C 11.230469 5.914062 11.578125 6.292969 11.8125 6.558594 C 12.046875 6.808594 12.613281 7.515625 13.085938 8.125 C 14.265625 9.660156 16.542969 12.464844 16.886719 12.792969 C 17.042969 12.949219 17.171875 13.121094 17.171875 13.183594 C 17.171875 13.246094 17.40625 13.546875 17.6875 13.84375 C 18.144531 14.328125 18.851562 15.191406 20.015625 16.679688 C 21.898438 19.09375 21.929688 19.109375 22.386719 18.574219 C 22.511719 18.433594 23.359375 16.679688 24.273438 14.707031 C 28.988281 4.425781 29.804688 2.6875 29.867188 2.875 C 29.914062 2.984375 29.851562 3.613281 29.742188 4.269531 Z M 29.742188 4.269531 " fill-opacity="1" fill-rule="nonzero"/><path fill="#cba135" d="M 21.742188 21.144531 C 21.320312 21.675781 21.335938 22.117188 21.773438 22.648438 C 22.324219 23.304688 22.75 23.335938 23.296875 22.789062 C 23.878906 22.210938 23.925781 21.566406 23.410156 21.082031 C 22.890625 20.597656 22.152344 20.628906 21.742188 21.144531 Z M 23.28125 21.535156 C 23.691406 22.210938 22.621094 22.976562 22.074219 22.429688 C 21.773438 22.132812 21.851562 21.566406 22.214844 21.316406 C 22.605469 21.035156 23.015625 21.128906 23.28125 21.535156 Z M 23.28125 21.535156 " fill-opacity="1" fill-rule="nonzero"/><path fill="#cba135" d="M 35.742188 29.136719 C 35.539062 29.355469 33.824219 33.128906 33.605469 33.851562 C 33.464844 34.289062 34.375 35.714844 35.222656 36.390625 C 37.3125 38.050781 39.703125 38.175781 40.769531 36.6875 C 41.070312 36.261719 41.148438 35.917969 41.179688 34.886719 C 41.242188 33.726562 41.195312 33.523438 40.769531 32.613281 C 40.503906 32.082031 39.9375 31.265625 39.53125 30.828125 C 38.210938 29.480469 36.230469 28.585938 35.742188 29.136719 Z M 37.582031 29.871094 C 39.183594 30.609375 40.691406 32.769531 40.847656 34.523438 C 40.945312 35.589844 40.519531 36.578125 39.796875 36.953125 C 38.585938 37.578125 36.449219 36.953125 35.082031 35.574219 C 33.824219 34.320312 33.824219 34.398438 34.847656 32.003906 C 35.351562 30.84375 35.804688 29.777344 35.898438 29.621094 C 36.058594 29.308594 36.480469 29.371094 37.582031 29.871094 Z M 37.582031 29.871094 " fill-opacity="1" fill-rule="nonzero"/><path fill="#cba135" d="M 11.671875 30.277344 C 9.378906 30.984375 7.289062 33.554688 7.144531 35.855469 C 7.066406 36.921875 7.304688 37.5625 8.042969 38.316406 C 9.597656 39.945312 13.179688 38.566406 14.78125 35.730469 C 15.269531 34.886719 15.914062 33.003906 15.914062 32.441406 C 15.914062 32.050781 14.921875 30.828125 14.28125 30.433594 C 13.777344 30.121094 12.441406 30.042969 11.671875 30.277344 Z M 14.011719 30.84375 C 14.265625 30.96875 14.71875 31.359375 15.019531 31.703125 L 15.566406 32.347656 L 15.175781 33.632812 C 14.957031 34.335938 14.625 35.199219 14.421875 35.542969 C 13.902344 36.4375 12.597656 37.609375 11.625 38.050781 C 10.539062 38.566406 9.078125 38.597656 8.464844 38.113281 C 6.40625 36.5 8.183594 32.175781 11.433594 30.875 C 12.238281 30.5625 13.445312 30.542969 14.011719 30.84375 Z M 14.011719 30.84375 " fill-opacity="1" fill-rule="nonzero"/><path fill="#cba135" d="M 27.539062 23.667969 C 27.554688 24.089844 28.59375 24.828125 30.179688 25.5 C 31.75 26.1875 31.972656 26.253906 32.363281 26.078125 C 32.757812 25.890625 32.695312 25.84375 30.511719 24.90625 C 29.269531 24.371094 28.089844 23.839844 27.902344 23.730469 C 27.699219 23.636719 27.539062 23.605469 27.539062 23.667969 Z M 27.539062 23.667969 " fill-opacity="1" fill-rule="nonzero"/><path fill="#cba135" d="M 29.945312 26.628906 C 30.683594 27.332031 30.714844 27.347656 31.011719 27.066406 C 31.328125 26.785156 31.3125 26.785156 30.351562 26.347656 C 29.820312 26.109375 29.347656 25.90625 29.285156 25.90625 C 29.238281 25.90625 29.535156 26.238281 29.945312 26.628906 Z M 29.945312 26.628906 " fill-opacity="1" fill-rule="nonzero"/><path fill="#cba135" d="M 24.351562 28.523438 C 24.132812 28.742188 24.257812 28.976562 24.710938 29.152344 L 25.167969 29.324219 L 24.839844 28.867188 C 24.445312 28.351562 24.492188 28.382812 24.351562 28.523438 Z M 24.351562 28.523438 " fill-opacity="1" fill-rule="nonzero"/><path fill="#cba135" d="M 23.878906 29.683594 C 23.816406 29.933594 23.910156 30.058594 24.335938 30.230469 C 24.632812 30.355469 25.277344 30.640625 25.765625 30.84375 C 26.253906 31.0625 26.660156 31.21875 26.691406 31.203125 C 26.832031 31.046875 25.703125 30.105469 24.949219 29.761719 C 24.445312 29.542969 24.019531 29.355469 24.003906 29.355469 C 23.988281 29.355469 23.925781 29.496094 23.878906 29.683594 Z M 23.878906 29.683594 " fill-opacity="1" fill-rule="nonzero"/><path fill="#cba135" d="M 23.441406 30.765625 C 23.425781 30.84375 23.410156 31 23.394531 31.078125 C 23.378906 31.234375 28.640625 33.632812 28.75 33.539062 C 28.765625 33.507812 28.53125 33.222656 28.199219 32.925781 C 27.808594 32.535156 26.960938 32.066406 25.59375 31.484375 C 23.296875 30.496094 23.472656 30.5625 23.441406 30.765625 Z M 23.441406 30.765625 " fill-opacity="1" fill-rule="nonzero"/><path fill="#cba135" d="M 22.78125 32.175781 C 22.71875 32.425781 22.828125 32.550781 23.34375 32.769531 C 23.707031 32.925781 25.261719 33.570312 26.785156 34.210938 C 28.328125 34.851562 29.566406 35.449219 29.582031 35.542969 C 29.582031 36.152344 29.269531 36.074219 25.890625 34.601562 C 23.394531 33.539062 22.417969 33.175781 22.324219 33.316406 C 22.261719 33.425781 22.230469 33.570312 22.246094 33.648438 C 22.292969 33.773438 26.332031 35.589844 28.53125 36.484375 C 29.035156 36.6875 29.097656 36.765625 28.96875 37.015625 C 28.8125 37.28125 28.578125 37.203125 25.386719 35.839844 C 23.503906 35.027344 21.914062 34.367188 21.867188 34.367188 C 21.804688 34.367188 21.726562 34.492188 21.695312 34.648438 C 21.617188 34.949219 21.996094 35.136719 26.863281 37.203125 C 27.761719 37.578125 28.484375 37.957031 28.484375 38.050781 C 28.484375 38.644531 28.152344 38.550781 24.792969 37.09375 C 22.167969 35.949219 21.335938 35.652344 21.238281 35.808594 C 21.160156 35.917969 21.113281 36.074219 21.144531 36.136719 C 21.175781 36.261719 24.679688 37.816406 26.960938 38.722656 C 28.074219 39.160156 28.089844 39.175781 27.871094 39.523438 C 27.761719 39.679688 27.007812 39.414062 24.304688 38.238281 C 21.097656 36.859375 20.847656 36.765625 20.722656 37.046875 C 20.644531 37.21875 20.613281 37.375 20.644531 37.390625 C 20.675781 37.421875 22.230469 38.097656 24.101562 38.894531 C 27.039062 40.148438 27.492188 40.398438 27.429688 40.652344 C 27.382812 40.808594 27.320312 40.949219 27.304688 40.949219 C 27.273438 40.949219 25.6875 40.273438 23.753906 39.460938 C 21.835938 38.628906 20.25 37.988281 20.234375 38.003906 C 20.203125 38.035156 20.15625 38.175781 20.125 38.332031 C 20.09375 38.566406 20.660156 38.863281 23.488281 40.054688 C 25.371094 40.855469 26.914062 41.558594 26.914062 41.652344 C 26.914062 42.265625 26.597656 42.1875 23.21875 40.714844 C 20.691406 39.617188 19.746094 39.273438 19.652344 39.429688 C 19.589844 39.523438 19.558594 39.679688 19.574219 39.757812 C 19.605469 39.835938 21.144531 40.554688 23 41.355469 C 26.175781 42.734375 26.519531 42.953125 26.15625 43.328125 C 26.09375 43.390625 24.523438 42.78125 22.671875 41.964844 C 19.652344 40.667969 19.277344 40.539062 19.085938 40.761719 C 18.992188 40.902344 18.945312 41.058594 19.007812 41.105469 C 19.085938 41.167969 20.582031 41.824219 22.355469 42.578125 C 24.132812 43.34375 25.609375 43.988281 25.640625 44.019531 C 25.6875 44.066406 25.609375 44.191406 25.484375 44.316406 C 25.277344 44.519531 24.855469 44.378906 21.980469 43.125 C 19.449219 42.042969 18.664062 41.761719 18.570312 41.917969 C 18.492188 42.027344 18.460938 42.1875 18.476562 42.265625 C 18.507812 42.328125 19.875 42.96875 21.539062 43.675781 C 24.492188 44.910156 24.554688 44.941406 24.101562 45.132812 C 23.660156 45.320312 23.441406 45.257812 21.066406 44.222656 C 19.652344 43.613281 18.425781 43.078125 18.316406 43.03125 C 18.222656 43 18.066406 43.09375 17.972656 43.265625 C 17.832031 43.550781 17.957031 43.644531 19.496094 44.285156 C 20.421875 44.691406 21.382812 45.085938 21.632812 45.179688 C 21.882812 45.273438 22.058594 45.382812 22.011719 45.414062 C 21.914062 45.523438 19.371094 45.070312 18.222656 44.753906 C 16.558594 44.300781 16.933594 44.847656 18.976562 45.882812 C 19.589844 46.179688 20.5 46.542969 21.019531 46.667969 C 21.914062 46.886719 23.753906 46.996094 23.582031 46.808594 C 23.519531 46.761719 22.890625 46.589844 22.167969 46.433594 C 20.878906 46.148438 19.449219 45.679688 19.777344 45.664062 C 19.875 45.648438 20.328125 45.726562 20.800781 45.804688 C 21.554688 45.945312 21.695312 45.929688 22.074219 45.648438 C 22.480469 45.351562 22.542969 45.335938 23 45.570312 C 23.613281 45.898438 24.320312 45.742188 24.648438 45.242188 C 24.792969 45.039062 24.964844 44.894531 25.027344 44.941406 C 25.105469 44.992188 25.261719 44.976562 25.386719 44.925781 C 25.703125 44.816406 26.753906 43.21875 26.753906 42.875 C 26.753906 42.734375 26.882812 42.484375 27.023438 42.328125 C 27.164062 42.171875 27.289062 41.917969 27.304688 41.761719 C 27.304688 41.605469 27.445312 41.308594 27.589844 41.105469 C 27.730469 40.886719 27.855469 40.570312 27.855469 40.382812 C 27.855469 40.195312 27.964844 39.960938 28.089844 39.851562 C 28.214844 39.742188 28.328125 39.523438 28.328125 39.351562 C 28.328125 39.191406 28.484375 38.847656 28.65625 38.597656 C 28.84375 38.347656 28.953125 38.050781 28.90625 37.925781 C 28.859375 37.785156 28.90625 37.640625 29.035156 37.59375 C 29.160156 37.546875 29.300781 37.265625 29.347656 36.96875 C 29.550781 35.949219 29.804688 35.980469 30.542969 37.109375 C 30.917969 37.671875 31.28125 38.128906 31.34375 38.128906 C 31.40625 38.128906 31.46875 38.253906 31.46875 38.394531 C 31.46875 38.660156 29.882812 42.5625 29.285156 43.738281 C 28.578125 45.164062 27.460938 45.914062 25.136719 46.527344 L 23.691406 46.902344 L 24.980469 46.839844 C 26.472656 46.761719 27.605469 46.320312 28.59375 45.445312 C 29.285156 44.800781 29.472656 44.472656 30.980469 40.980469 L 32.082031 38.425781 L 31.390625 37.53125 C 31.011719 37.046875 30.496094 36.214844 30.242188 35.714844 L 29.789062 34.789062 L 26.378906 33.316406 C 24.507812 32.519531 22.953125 31.859375 22.921875 31.859375 C 22.890625 31.859375 22.828125 32.003906 22.78125 32.175781 Z M 22.78125 32.175781 " fill-opacity="1" fill-rule="nonzero"/></svg>