<svg xmlns="http://www.w3.org/2000/svg" xmlns:xlink="http://www.w3.org/1999/xlink" width="64" zoomAndPan="magnify" viewBox="0 0 48 48" height="64" preserveAspectRatio="xMidYMid meet" version="1.0"><defs><clipPath id="6e5c613fb4"><path d="M 8.335938 2 L 22 2 L 22 10 L 8.335938 10 Z M 8.335938 2 " clip-rule="nonzero"/></clipPath><clipPath id="c6a868cdc1"><path d="M 19 0 L 39.929688 0 L 39.929688 39 L 19 39 Z M 19 0 " clip-rule="nonzero"/></clipPath></defs><path fill="#cba135" d="M 31.894531 0.710938 C 31.894531 0.710938 29.378906 1.324219 28.996094 4.113281 C 28.609375 6.902344 30.042969 8.707031 32.691406 10.785156 C 35.339844 12.863281 35.339844 12.972656 35.503906 13.792969 C 35.5625 14.085938 35.648438 14.40625 35.726562 14.738281 C 35.859375 15.332031 35.957031 15.964844 35.78125 16.527344 C 35.503906 17.402344 35.0625 17.511719 35.0625 17.511719 C 35.0625 17.511719 36.023438 16.472656 35.523438 14.976562 C 35.027344 13.480469 35.402344 13.335938 34.054688 12.269531 C 32.710938 11.203125 29.214844 9.199219 28.773438 5.945312 C 28.332031 2.691406 30.34375 0.648438 31.894531 0.710938 " fill-opacity="1" fill-rule="nonzero"/><path fill="#cba135" d="M 34.777344 15.171875 C 34.777344 15.171875 34.230469 16.152344 34.242188 16.34375 C 34.25 16.53125 34.632812 16.617188 34.847656 16.523438 C 35.066406 16.429688 35.203125 15.644531 35.125 15.421875 C 35.046875 15.199219 34.882812 14.980469 34.777344 15.171875 " fill-opacity="1" fill-rule="nonzero"/><path fill="#cba135" d="M 30.507812 15.777344 C 30.507812 15.777344 29.59375 15.84375 29.167969 16.285156 C 28.746094 16.730469 29.179688 17.777344 29.933594 17.082031 C 30.6875 16.382812 31.140625 15.65625 30.507812 15.777344 " fill-opacity="1" fill-rule="nonzero"/><path fill="#cba135" d="M 29.320312 18.195312 C 29.320312 18.195312 27.332031 18.933594 26.464844 18.195312 C 25.59375 17.457031 26.171875 16.34375 26.171875 16.34375 C 26.171875 16.34375 25.347656 17.601562 26.421875 18.359375 C 27.496094 19.121094 29.320312 18.195312 29.320312 18.195312 " fill-opacity="1" fill-rule="nonzero"/><g clip-path="url(#6e5c613fb4)"><path fill="#cba135" d="M 20.304688 4.550781 C 20.304688 4.550781 16.828125 3.730469 15.203125 4.113281 C 13.574219 4.496094 9.65625 6.378906 8.332031 9.550781 C 8.332031 9.550781 9.160156 7.449219 10.59375 5.699219 C 12.03125 3.949219 12.636719 2.964844 15.394531 2.527344 C 18.152344 2.089844 20.773438 2.0625 21.132812 2.9375 C 21.492188 3.8125 20.96875 4.824219 20.304688 4.550781 " fill-opacity="1" fill-rule="nonzero"/></g><path fill="#cba135" d="M 34.554688 0.640625 C 34.554688 0.640625 31.714844 0.175781 30.28125 1.433594 C 29.359375 2.242188 30.152344 2.773438 30.484375 2.964844 C 30.816406 3.15625 32.167969 2.445312 33.324219 2.117188 C 34.484375 1.789062 34.664062 1.738281 35.164062 2.199219 C 35.164062 2.199219 34.941406 0.96875 34.554688 0.640625 " fill-opacity="1" fill-rule="nonzero"/><path fill="#cba135" d="M 24.691406 25.878906 C 24.691406 25.878906 26.441406 25.28125 28.15625 24.019531 C 30.03125 22.640625 31.796875 21.054688 33.257812 21.328125 C 33.257812 21.328125 34.101562 21.558594 34.625 21.230469 C 35.148438 20.90625 35.90625 20.65625 36.375 21.121094 C 37.03125 21.773438 37.65625 23.253906 37.574219 23.664062 C 37.574219 23.664062 36.71875 21.203125 35.875 21.09375 C 35.035156 20.984375 34.566406 21.695312 33.851562 21.640625 C 33.132812 21.585938 32.25 21.367188 30.703125 22.351562 C 29.160156 23.335938 26.925781 25.332031 24.691406 25.878906 " fill-opacity="1" fill-rule="nonzero"/><path fill="#cba135" d="M 25.023438 26.097656 C 25.023438 26.097656 26.015625 26.015625 28.441406 26.507812 C 30.871094 27 32.269531 28.054688 34.96875 27.21875 C 37.535156 26.425781 37.507812 24.703125 37.09375 24.347656 C 37.09375 24.347656 36.496094 23.554688 36.882812 24.347656 C 37.269531 25.140625 37.121094 25.777344 35.476562 26.699219 C 33.835938 27.625 31.890625 27.136719 30.703125 26.839844 C 29.519531 26.539062 26.375 25.796875 25.023438 26.097656 " fill-opacity="1" fill-rule="nonzero"/><path fill="#cba135" d="M 36.222656 23.746094 C 36.222656 23.746094 35.144531 23.992188 32.46875 24.347656 C 29.792969 24.703125 26.660156 26.136719 25.136719 26.078125 C 25.136719 26.078125 27.847656 25.359375 29.320312 24.757812 C 30.789062 24.15625 36.902344 23.171875 36.222656 23.746094 " fill-opacity="1" fill-rule="nonzero"/><path fill="#cba135" d="M 21.25 9.191406 C 21.25 9.191406 19.429688 10.34375 17.628906 10.546875 C 15.828125 10.75 13.71875 11.265625 12.851562 11.695312 C 12.851562 11.695312 13.800781 11.574219 14.257812 11.46875 C 14.710938 11.367188 13.242188 13.109375 13.242188 13.109375 L 14.792969 11.613281 L 14.792969 13.273438 L 15.269531 11.632812 L 15.996094 12.660156 L 15.972656 11.449219 L 16.84375 12.351562 L 16.636719 11.234375 L 17.378906 11.921875 L 17.378906 11.234375 L 17.773438 11.757812 L 17.816406 11.234375 L 18.375 11.492188 L 18.351562 10.9375 L 18.871094 11.234375 L 18.789062 10.648438 L 19.511719 11.121094 L 19.574219 10.507812 L 20.175781 10.75 L 20.03125 10.34375 L 20.484375 10.402344 L 20.527344 9.972656 L 20.898438 10.136719 L 21.042969 9.550781 C 21.042969 9.550781 21.828125 9.296875 22.140625 9.296875 C 22.449219 9.296875 22.65625 8.863281 21.25 9.191406 " fill-opacity="1" fill-rule="nonzero"/><g clip-path="url(#c6a868cdc1)"><path fill="#cba135" d="M 34.289062 0.0664062 C 34.289062 0.0664062 35.476562 1.433594 35.875 4.277344 C 36.277344 7.121094 35.71875 8.980469 37.515625 10.894531 C 39.3125 12.808594 39.917969 17.007812 39.917969 20.542969 C 39.917969 24.074219 39.3125 30.144531 39.53125 31.457031 C 39.753906 32.769531 38.925781 35.886719 35.558594 36.488281 C 32.195312 37.09375 26.347656 39.332031 19.503906 37.695312 C 19.503906 37.695312 23.519531 38.132812 29.320312 37.09375 C 35.117188 36.050781 38.429688 35.34375 38.8125 32.277344 C 39.199219 29.214844 39.753906 19.441406 39.253906 17.136719 C 38.757812 14.832031 37.492188 11.714844 36.609375 10.292969 C 35.726562 8.871094 35.351562 7.121094 35.289062 5.042969 C 35.230469 2.964844 34.289062 0.0664062 34.289062 0.0664062 " fill-opacity="1" fill-rule="nonzero"/></g><path fill="#cba135" d="M 30.890625 8.292969 L 31.054688 8.292969 C 31.054688 8.292969 32.710938 8.3125 33.664062 8.433594 C 34.613281 8.558594 36.003906 8.875 36.449219 9.167969 C 36.890625 9.460938 37.367188 9.746094 37.636719 9.707031 C 37.636719 9.707031 36.953125 9.953125 36.351562 9.550781 L 36.40625 9.945312 L 35.875 9.550781 L 35.875 9.945312 L 35.289062 9.253906 L 35.289062 9.871094 L 34.882812 9.117188 L 34.738281 9.664062 L 34.261719 8.949219 L 34.367188 9.550781 L 33.765625 9.035156 L 33.644531 9.664062 L 33.230469 8.949219 L 32.933594 9.273438 L 32.289062 8.863281 L 32.378906 9.253906 L 31.945312 8.863281 L 31.53125 9.035156 L 31.367188 8.722656 C 31.367188 8.722656 30.683594 8.660156 30.640625 8.515625 C 30.601562 8.375 30.726562 8.292969 30.890625 8.292969 " fill-opacity="1" fill-rule="nonzero"/><path fill="#cba135" d="M 36.28125 8.53125 C 36.28125 8.53125 36.1875 8.8125 34.589844 8.589844 C 32.992188 8.371094 34.6875 8.792969 34.863281 8.835938 C 35.039062 8.875 36.664062 9.378906 36.664062 9.378906 C 36.664062 9.378906 37.394531 9.554688 38.003906 9.085938 C 38.003906 9.085938 36.453125 9.582031 36.28125 8.53125 " fill-opacity="1" fill-rule="nonzero"/><path fill="#cba135" d="M 26.679688 38.375 C 26.679688 38.375 25.34375 43.472656 27.441406 46.941406 C 27.441406 46.941406 24.484375 43.625 26.679688 38.375 " fill-opacity="1" fill-rule="nonzero"/></svg>