<svg xmlns="http://www.w3.org/2000/svg" xmlns:xlink="http://www.w3.org/1999/xlink" width="64" zoomAndPan="magnify" viewBox="0 0 48 48" height="64" preserveAspectRatio="xMidYMid meet" version="1.0"><defs><clipPath id="d5377ebd69"><path d="M 0.488281 0.765625 L 47.507812 0.765625 L 47.507812 46.316406 L 0.488281 46.316406 Z M 0.488281 0.765625 " clip-rule="nonzero"/></clipPath></defs><g clip-path="url(#d5377ebd69)"><path fill="#cba135" d="M 47.449219 42.949219 C 46.933594 41.007812 45.9375 39.222656 44.515625 37.765625 C 44.515625 37.765625 44.515625 37.765625 44.484375 37.738281 L 36.496094 30.707031 L 37.011719 30.222656 C 37.222656 30.039062 37.3125 29.765625 37.3125 29.496094 C 37.3125 29.222656 37.191406 28.949219 37.011719 28.765625 L 36.679688 28.433594 L 37.101562 28.007812 C 37.28125 27.828125 37.28125 27.554688 37.101562 27.371094 C 36.921875 27.191406 36.648438 27.191406 36.464844 27.371094 L 35.710938 28.128906 L 35.226562 28.617188 C 35.042969 28.796875 35.042969 29.070312 35.226562 29.25 C 35.316406 29.34375 35.4375 29.371094 35.558594 29.371094 C 35.679688 29.371094 35.800781 29.34375 35.890625 29.25 L 36.074219 29.070312 L 36.40625 29.402344 C 36.4375 29.433594 36.4375 29.464844 36.4375 29.496094 C 36.4375 29.523438 36.4375 29.554688 36.40625 29.585938 L 33.199219 32.765625 C 33.136719 32.828125 33.046875 32.828125 33.015625 32.765625 L 32.683594 32.433594 L 33.5625 31.554688 C 33.742188 31.375 33.742188 31.101562 33.5625 30.917969 C 33.378906 30.738281 33.109375 30.738281 32.925781 30.917969 L 30.960938 32.859375 C 30.777344 33.039062 30.777344 33.3125 30.960938 33.496094 C 31.050781 33.585938 31.171875 33.617188 31.292969 33.617188 C 31.414062 33.617188 31.535156 33.585938 31.625 33.496094 L 32.046875 33.070312 L 32.382812 33.402344 C 32.59375 33.617188 32.867188 33.707031 33.136719 33.707031 C 33.410156 33.707031 33.683594 33.617188 33.863281 33.402344 L 34.347656 32.917969 L 41.335938 41.007812 C 42.035156 41.738281 42.851562 42.34375 43.699219 42.859375 C 44.574219 43.375 45.484375 43.738281 46.453125 44.007812 C 46.511719 44.039062 46.601562 44.039062 46.664062 44.039062 C 46.875 44.039062 47.085938 43.949219 47.269531 43.796875 C 47.449219 43.554688 47.511719 43.222656 47.449219 42.949219 Z M 44.089844 42.039062 C 43.304688 41.585938 42.546875 41.007812 41.941406 40.375 L 34.921875 32.28125 L 35.859375 31.375 L 43.878906 38.464844 C 45.148438 39.765625 46.058594 41.375 46.542969 43.101562 C 45.664062 42.828125 44.847656 42.464844 44.089844 42.039062 Z M 31.867188 25.828125 C 31.683594 25.644531 31.683594 25.371094 31.867188 25.191406 L 33.136719 23.949219 C 33.320312 23.765625 33.589844 23.765625 33.773438 23.949219 C 33.953125 24.128906 33.953125 24.402344 33.773438 24.585938 L 32.503906 25.828125 C 32.410156 25.917969 32.289062 25.949219 32.167969 25.949219 C 32.046875 25.980469 31.957031 25.917969 31.867188 25.828125 Z M 34.195312 27.496094 C 34.105469 27.585938 33.984375 27.617188 33.863281 27.617188 C 33.742188 27.617188 33.621094 27.585938 33.53125 27.496094 C 33.351562 27.3125 33.351562 27.039062 33.53125 26.859375 L 34.800781 25.617188 C 34.984375 25.433594 35.253906 25.433594 35.4375 25.617188 C 35.617188 25.796875 35.617188 26.070312 35.4375 26.25 Z M 31.988281 24.496094 C 31.867188 24.496094 31.746094 24.464844 31.65625 24.371094 C 31.472656 24.191406 31.472656 23.917969 31.65625 23.738281 L 33.257812 22.128906 C 33.441406 21.949219 33.710938 21.949219 33.894531 22.128906 C 34.074219 22.3125 34.074219 22.585938 33.894531 22.765625 L 32.289062 24.371094 C 32.230469 24.433594 32.109375 24.496094 31.988281 24.496094 Z M 33.351562 25.402344 L 34.953125 23.796875 C 35.136719 23.617188 35.40625 23.617188 35.589844 23.796875 C 35.769531 23.980469 35.769531 24.25 35.589844 24.433594 L 33.984375 26.039062 C 33.894531 26.128906 33.773438 26.160156 33.652344 26.160156 C 33.53125 26.160156 33.410156 26.128906 33.320312 26.039062 C 33.167969 25.859375 33.167969 25.554688 33.351562 25.402344 Z M 27.117188 17.796875 L 25.847656 19.039062 C 25.753906 19.128906 25.632812 19.160156 25.511719 19.160156 C 25.390625 19.160156 25.269531 19.128906 25.179688 19.039062 C 25 18.859375 25 18.585938 25.179688 18.402344 L 26.449219 17.160156 C 26.632812 16.980469 26.90625 16.980469 27.085938 17.160156 C 27.296875 17.34375 27.269531 17.644531 27.117188 17.796875 Z M 28.902344 17.039062 C 29.082031 17.222656 29.082031 17.492188 28.902344 17.675781 L 27.296875 19.28125 C 27.207031 19.371094 27.085938 19.402344 26.964844 19.402344 C 26.84375 19.402344 26.722656 19.371094 26.632812 19.28125 C 26.449219 19.101562 26.449219 18.828125 26.632812 18.644531 L 28.234375 17.039062 C 28.449219 16.859375 28.71875 16.859375 28.902344 17.039062 Z M 28.78125 19.492188 L 27.511719 20.738281 C 27.417969 20.828125 27.296875 20.859375 27.175781 20.859375 C 27.054688 20.859375 26.933594 20.828125 26.84375 20.738281 C 26.664062 20.554688 26.664062 20.28125 26.84375 20.101562 L 28.113281 18.859375 C 28.296875 18.675781 28.570312 18.675781 28.75 18.859375 C 28.960938 19.039062 28.960938 19.3125 28.78125 19.492188 Z M 30.566406 18.707031 C 30.746094 18.886719 30.746094 19.160156 30.566406 19.34375 L 28.960938 20.949219 C 28.871094 21.039062 28.75 21.070312 28.628906 21.070312 C 28.507812 21.070312 28.386719 21.039062 28.296875 20.949219 C 28.113281 20.765625 28.113281 20.492188 28.296875 20.3125 L 29.898438 18.707031 C 30.113281 18.523438 30.382812 18.523438 30.566406 18.707031 Z M 28.871094 22.554688 C 28.75 22.554688 28.628906 22.523438 28.539062 22.433594 C 28.355469 22.25 28.355469 21.980469 28.539062 21.796875 L 29.808594 20.554688 C 29.992188 20.371094 30.261719 20.371094 30.445312 20.554688 C 30.625 20.738281 30.625 21.007812 30.445312 21.191406 L 29.175781 22.433594 C 29.082031 22.523438 28.960938 22.554688 28.871094 22.554688 Z M 32.230469 21.070312 L 30.625 22.675781 C 30.535156 22.765625 30.414062 22.796875 30.292969 22.796875 C 30.171875 22.796875 30.050781 22.765625 29.960938 22.675781 C 29.777344 22.492188 29.777344 22.222656 29.960938 22.039062 L 31.5625 20.433594 C 31.746094 20.25 32.019531 20.25 32.199219 20.433594 C 32.410156 20.585938 32.410156 20.886719 32.230469 21.070312 Z M 30.535156 24.25 C 30.414062 24.25 30.292969 24.222656 30.203125 24.128906 C 30.019531 23.949219 30.019531 23.675781 30.203125 23.492188 L 31.472656 22.25 C 31.65625 22.070312 31.925781 22.070312 32.109375 22.25 C 32.289062 22.433594 32.289062 22.707031 32.109375 22.886719 L 30.839844 24.128906 C 30.746094 24.222656 30.65625 24.25 30.535156 24.25 Z M 35.015625 27.070312 L 36.617188 25.464844 C 36.800781 25.28125 37.070312 25.28125 37.253906 25.464844 C 37.433594 25.644531 37.433594 25.917969 37.253906 26.101562 L 35.648438 27.707031 C 35.558594 27.796875 35.4375 27.828125 35.316406 27.828125 C 35.195312 27.828125 35.074219 27.796875 34.984375 27.707031 C 34.832031 27.554688 34.832031 27.25 35.015625 27.070312 Z M 27.570312 29.433594 L 28.839844 28.191406 C 29.023438 28.007812 29.296875 28.007812 29.476562 28.191406 C 29.65625 28.371094 29.65625 28.644531 29.476562 28.828125 L 28.207031 30.070312 C 28.113281 30.160156 27.992188 30.191406 27.871094 30.191406 C 27.75 30.191406 27.632812 30.160156 27.539062 30.070312 C 27.390625 29.886719 27.390625 29.617188 27.570312 29.433594 Z M 29.234375 31.128906 L 30.503906 29.886719 C 30.6875 29.707031 30.960938 29.707031 31.140625 29.886719 C 31.324219 30.070312 31.324219 30.34375 31.140625 30.523438 L 29.871094 31.765625 C 29.777344 31.859375 29.65625 31.886719 29.539062 31.886719 C 29.417969 31.886719 29.296875 31.859375 29.203125 31.765625 C 29.054688 31.617188 29.054688 31.3125 29.234375 31.128906 Z M 25.726562 30.222656 C 25.542969 30.039062 25.542969 29.765625 25.726562 29.585938 L 27.328125 27.980469 C 27.511719 27.796875 27.78125 27.796875 27.964844 27.980469 C 28.144531 28.160156 28.144531 28.433594 27.964844 28.617188 L 26.359375 30.222656 C 26.269531 30.3125 26.148438 30.34375 26.027344 30.34375 C 25.9375 30.34375 25.816406 30.3125 25.726562 30.222656 Z M 27.417969 31.917969 C 27.238281 31.738281 27.238281 31.464844 27.417969 31.28125 L 29.023438 29.675781 C 29.203125 29.496094 29.476562 29.496094 29.65625 29.675781 C 29.839844 29.859375 29.839844 30.128906 29.65625 30.3125 L 28.054688 31.917969 C 27.964844 32.007812 27.84375 32.039062 27.722656 32.039062 C 27.632812 32.039062 27.511719 31.980469 27.417969 31.917969 Z M 19.066406 23.464844 C 18.886719 23.28125 18.886719 23.007812 19.066406 22.828125 L 20.488281 21.433594 L 20.15625 21.101562 C 19.765625 20.675781 19.765625 20.039062 20.15625 19.617188 L 23.363281 16.433594 C 23.578125 16.25 23.820312 16.128906 24.089844 16.128906 C 24.363281 16.128906 24.636719 16.25 24.816406 16.433594 L 25.148438 16.765625 L 26.601562 15.34375 C 26.785156 15.160156 27.054688 15.160156 27.238281 15.34375 C 27.417969 15.523438 27.417969 15.796875 27.238281 15.980469 L 24.695312 18.492188 C 24.605469 18.585938 24.484375 18.617188 24.363281 18.617188 C 24.242188 18.617188 24.121094 18.585938 24.03125 18.492188 C 23.847656 18.3125 23.847656 18.039062 24.03125 17.859375 L 24.515625 17.371094 L 24.179688 17.039062 C 24.152344 17.007812 24.121094 17.007812 24.089844 17.007812 C 24.058594 17.007812 24.03125 17.007812 24 17.039062 L 20.792969 20.25 C 20.730469 20.3125 20.730469 20.371094 20.792969 20.433594 L 21.125 20.765625 C 21.308594 20.644531 21.550781 20.675781 21.699219 20.828125 C 21.882812 21.007812 21.882812 21.28125 21.699219 21.464844 L 19.703125 23.433594 C 19.613281 23.523438 19.492188 23.554688 19.371094 23.554688 C 19.28125 23.585938 19.160156 23.554688 19.066406 23.464844 Z M 22.789062 21.433594 C 22.972656 21.617188 22.972656 21.886719 22.789062 22.070312 L 21.519531 23.3125 C 21.429688 23.402344 21.308594 23.433594 21.1875 23.433594 C 21.066406 23.433594 20.945312 23.402344 20.851562 23.3125 C 20.671875 23.128906 20.671875 22.859375 20.851562 22.675781 L 22.125 21.433594 C 22.304688 21.25 22.609375 21.28125 22.789062 21.433594 Z M 20.730469 25.128906 C 20.550781 24.949219 20.550781 24.675781 20.730469 24.496094 L 22.335938 22.886719 C 22.515625 22.707031 22.789062 22.707031 22.972656 22.886719 C 23.152344 23.070312 23.152344 23.34375 22.972656 23.523438 L 21.367188 25.128906 C 21.277344 25.222656 21.15625 25.25 21.035156 25.25 C 20.945312 25.28125 20.824219 25.222656 20.730469 25.128906 Z M 24.453125 23.128906 C 24.636719 23.3125 24.636719 23.585938 24.453125 23.765625 L 23.183594 25.039062 C 23.09375 25.128906 22.972656 25.160156 22.851562 25.160156 C 22.730469 25.160156 22.609375 25.128906 22.515625 25.039062 C 22.335938 24.859375 22.335938 24.585938 22.515625 24.402344 L 23.789062 23.160156 C 23.96875 22.949219 24.273438 22.949219 24.453125 23.128906 Z M 22.394531 26.828125 C 22.214844 26.644531 22.214844 26.371094 22.394531 26.191406 L 24 24.585938 C 24.179688 24.402344 24.453125 24.402344 24.636719 24.585938 C 24.816406 24.765625 24.816406 25.039062 24.636719 25.222656 L 23.03125 26.828125 C 22.941406 26.917969 22.820312 26.949219 22.699219 26.949219 C 22.609375 26.949219 22.488281 26.917969 22.394531 26.828125 Z M 24.210938 26.070312 L 25.484375 24.828125 C 25.664062 24.644531 25.9375 24.644531 26.117188 24.828125 C 26.300781 25.007812 26.300781 25.28125 26.117188 25.464844 L 24.847656 26.707031 C 24.757812 26.796875 24.636719 26.828125 24.515625 26.828125 C 24.394531 26.828125 24.273438 26.796875 24.179688 26.707031 C 24.03125 26.523438 24.03125 26.25 24.210938 26.070312 Z M 24.058594 28.523438 C 23.878906 28.34375 23.878906 28.070312 24.058594 27.886719 L 25.664062 26.28125 C 25.847656 26.101562 26.117188 26.101562 26.300781 26.28125 C 26.480469 26.464844 26.480469 26.738281 26.300781 26.917969 L 24.695312 28.523438 C 24.605469 28.617188 24.484375 28.644531 24.363281 28.644531 C 24.273438 28.644531 24.152344 28.617188 24.058594 28.523438 Z M 25.875 27.765625 L 27.148438 26.523438 C 27.328125 26.34375 27.601562 26.34375 27.78125 26.523438 C 27.964844 26.707031 27.964844 26.980469 27.78125 27.160156 L 26.511719 28.402344 C 26.421875 28.496094 26.300781 28.523438 26.179688 28.523438 C 26.058594 28.523438 25.9375 28.496094 25.847656 28.402344 C 25.695312 28.222656 25.695312 27.917969 25.875 27.765625 Z M 29.082031 33.585938 C 28.902344 33.402344 28.902344 33.128906 29.082031 32.949219 L 30.6875 31.34375 C 30.867188 31.160156 31.140625 31.160156 31.324219 31.34375 C 31.503906 31.523438 31.503906 31.796875 31.324219 31.980469 L 29.71875 33.585938 C 29.628906 33.675781 29.507812 33.707031 29.386719 33.707031 C 29.296875 33.738281 29.175781 33.675781 29.082031 33.585938 Z M 22.941406 20.128906 L 22.609375 20.492188 C 22.515625 20.585938 22.394531 20.617188 22.273438 20.617188 C 22.152344 20.617188 22.035156 20.585938 21.941406 20.492188 C 21.761719 20.3125 21.761719 20.039062 21.941406 19.859375 L 22.304688 19.523438 C 22.488281 19.34375 22.757812 19.34375 22.941406 19.523438 C 23.121094 19.675781 23.121094 19.980469 22.941406 20.128906 Z M 24.242188 20.464844 C 24.121094 20.464844 24 20.433594 23.910156 20.34375 C 23.726562 20.160156 23.726562 19.886719 23.910156 19.707031 L 24.273438 19.371094 C 24.453125 19.191406 24.726562 19.191406 24.90625 19.371094 C 25.089844 19.554688 25.089844 19.828125 24.90625 20.007812 L 24.542969 20.34375 C 24.453125 20.433594 24.363281 20.464844 24.242188 20.464844 Z M 25.574219 21.371094 L 25.9375 21.039062 C 26.117188 20.859375 26.390625 20.859375 26.570312 21.039062 C 26.753906 21.222656 26.753906 21.492188 26.570312 21.675781 L 26.207031 22.007812 C 26.117188 22.101562 25.996094 22.128906 25.875 22.128906 C 25.753906 22.128906 25.632812 22.101562 25.542969 22.007812 C 25.390625 21.828125 25.390625 21.554688 25.574219 21.371094 Z M 27.238281 23.039062 L 27.601562 22.707031 C 27.78125 22.523438 28.054688 22.523438 28.234375 22.707031 C 28.417969 22.886719 28.417969 23.160156 28.234375 23.34375 L 27.871094 23.675781 C 27.8125 23.796875 27.691406 23.828125 27.570312 23.828125 C 27.449219 23.828125 27.328125 23.796875 27.238281 23.707031 C 27.054688 23.523438 27.054688 23.222656 27.238281 23.039062 Z M 29.898438 25.039062 L 29.539062 25.371094 C 29.445312 25.464844 29.324219 25.496094 29.203125 25.496094 C 29.082031 25.496094 28.960938 25.464844 28.871094 25.371094 C 28.691406 25.191406 28.691406 24.917969 28.871094 24.738281 L 29.234375 24.402344 C 29.417969 24.222656 29.6875 24.222656 29.871094 24.402344 C 30.082031 24.585938 30.082031 24.859375 29.898438 25.039062 Z M 31.5625 26.738281 L 31.203125 27.070312 C 31.109375 27.160156 30.988281 27.191406 30.867188 27.191406 C 30.746094 27.191406 30.625 27.160156 30.535156 27.070312 C 30.355469 26.886719 30.355469 26.617188 30.535156 26.433594 L 30.898438 26.101562 C 31.082031 25.917969 31.351562 25.917969 31.535156 26.101562 C 31.746094 26.25 31.746094 26.554688 31.5625 26.738281 Z M 33.230469 28.402344 L 32.867188 28.738281 C 32.773438 28.828125 32.652344 28.859375 32.53125 28.859375 C 32.410156 28.859375 32.289062 28.828125 32.199219 28.738281 C 32.019531 28.554688 32.019531 28.28125 32.199219 28.101562 L 32.5625 27.765625 C 32.746094 27.585938 33.015625 27.585938 33.199219 27.765625 C 33.410156 27.949219 33.410156 28.25 33.230469 28.402344 Z M 33.894531 30.433594 C 33.710938 30.25 33.710938 29.980469 33.894531 29.796875 L 34.257812 29.464844 C 34.4375 29.28125 34.710938 29.28125 34.894531 29.464844 C 35.074219 29.644531 35.074219 29.917969 34.894531 30.101562 L 34.53125 30.433594 C 34.4375 30.523438 34.316406 30.554688 34.195312 30.554688 C 34.105469 30.585938 33.984375 30.523438 33.894531 30.433594 Z M 24.664062 21.886719 L 24.300781 22.222656 C 24.210938 22.3125 24.089844 22.34375 23.96875 22.34375 C 23.847656 22.34375 23.726562 22.3125 23.636719 22.222656 C 23.457031 22.039062 23.457031 21.765625 23.636719 21.585938 L 24 21.25 C 24.179688 21.070312 24.453125 21.070312 24.636719 21.25 C 24.847656 21.402344 24.847656 21.707031 24.664062 21.886719 Z M 26.328125 23.554688 L 25.964844 23.886719 C 25.875 23.980469 25.753906 24.007812 25.632812 24.007812 C 25.511719 24.007812 25.390625 23.980469 25.300781 23.886719 C 25.121094 23.707031 25.121094 23.433594 25.300781 23.25 L 25.695312 22.917969 C 25.875 22.738281 26.148438 22.738281 26.328125 22.917969 C 26.511719 23.101562 26.511719 23.402344 26.328125 23.554688 Z M 27.992188 25.25 L 27.632812 25.585938 C 27.539062 25.675781 27.417969 25.707031 27.296875 25.707031 C 27.175781 25.707031 27.054688 25.675781 26.964844 25.585938 C 26.785156 25.402344 26.785156 25.128906 26.964844 24.949219 L 27.328125 24.617188 C 27.511719 24.433594 27.78125 24.433594 27.964844 24.617188 C 28.175781 24.796875 28.175781 25.070312 27.992188 25.25 Z M 29.65625 26.949219 L 29.324219 27.28125 C 29.234375 27.371094 29.113281 27.402344 28.992188 27.402344 C 28.871094 27.402344 28.75 27.371094 28.660156 27.28125 C 28.476562 27.101562 28.476562 26.828125 28.660156 26.644531 L 29.023438 26.3125 C 29.203125 26.128906 29.476562 26.128906 29.65625 26.3125 C 29.839844 26.464844 29.839844 26.765625 29.65625 26.949219 Z M 31.324219 28.617188 L 30.960938 28.949219 C 30.867188 29.039062 30.746094 29.070312 30.625 29.070312 C 30.503906 29.070312 30.382812 29.039062 30.292969 28.949219 C 30.113281 28.765625 30.113281 28.496094 30.292969 28.3125 L 30.65625 27.980469 C 30.839844 27.796875 31.109375 27.796875 31.292969 27.980469 C 31.503906 28.160156 31.503906 28.433594 31.324219 28.617188 Z M 31.988281 30.644531 C 31.804688 30.464844 31.804688 30.191406 31.988281 30.007812 L 32.351562 29.675781 C 32.53125 29.496094 32.804688 29.496094 32.988281 29.675781 C 33.167969 29.859375 33.167969 30.128906 32.988281 30.3125 L 32.625 30.644531 C 32.53125 30.738281 32.410156 30.765625 32.289062 30.765625 C 32.199219 30.796875 32.078125 30.738281 31.988281 30.644531 Z M 12.746094 15.160156 C 14.378906 15.3125 16.042969 15.464844 17.617188 15.980469 C 17.859375 16.039062 17.980469 16.3125 17.917969 16.554688 C 17.859375 16.738281 17.675781 16.886719 17.496094 16.886719 C 17.464844 16.886719 17.402344 16.886719 17.375 16.859375 C 15.890625 16.402344 14.257812 16.25 12.683594 16.101562 C 11.835938 16.007812 10.957031 15.949219 10.140625 15.796875 C 7.480469 15.371094 5.574219 14.070312 4.785156 12.070312 C 4.695312 11.828125 4.816406 11.554688 5.027344 11.464844 C 5.269531 11.371094 5.542969 11.492188 5.632812 11.707031 C 6.542969 13.980469 8.933594 14.644531 10.292969 14.859375 C 11.050781 15.007812 11.898438 15.070312 12.746094 15.160156 Z M 18.28125 11.644531 C 17.011719 11.492188 15.679688 11.613281 14.410156 11.765625 C 13.984375 11.828125 13.589844 11.859375 13.167969 11.886719 C 12.382812 11.949219 11.382812 12.039062 10.355469 12.039062 C 10.234375 12.039062 10.113281 12.039062 9.960938 12.039062 C 9.871094 12.039062 9.75 12.039062 9.628906 12.039062 C 8.265625 12.039062 6.207031 12.007812 5.601562 10.433594 C 5.511719 10.191406 5.632812 9.917969 5.84375 9.828125 C 6.085938 9.738281 6.359375 9.859375 6.449219 10.070312 C 6.84375 11.070312 8.539062 11.101562 9.65625 11.101562 C 9.777344 11.101562 9.898438 11.101562 9.992188 11.101562 C 11.109375 11.128906 12.230469 11.039062 13.078125 10.949219 C 13.46875 10.917969 13.894531 10.859375 14.289062 10.828125 C 15.617188 10.675781 17.011719 10.523438 18.371094 10.707031 C 18.945312 10.765625 19.460938 10.917969 19.945312 11.101562 C 20.1875 11.191406 20.308594 11.464844 20.21875 11.707031 C 20.128906 11.949219 19.855469 12.070312 19.644531 11.980469 C 19.21875 11.828125 18.765625 11.738281 18.28125 11.644531 Z M 32.382812 45.34375 C 30.414062 45.222656 28.386719 45.128906 26.511719 44.433594 C 24.421875 43.675781 22.941406 42.253906 22.457031 40.585938 C 22.152344 39.554688 22.152344 38.496094 22.152344 37.34375 C 22.152344 36.375 22.152344 35.34375 21.941406 34.34375 C 21.578125 32.644531 20.308594 31.765625 19.066406 30.917969 C 18.886719 30.796875 18.703125 30.675781 18.523438 30.523438 C 17.554688 29.828125 16.859375 29.128906 16.675781 28.128906 C 16.554688 27.523438 16.769531 26.917969 16.980469 26.25 C 17.222656 25.554688 17.464844 24.859375 17.34375 24.039062 C 17.191406 22.980469 16.40625 21.980469 15.226562 21.402344 C 14.410156 21.007812 13.53125 20.828125 12.683594 20.644531 C 12.503906 20.617188 12.351562 20.585938 12.167969 20.554688 C 9.75 20.039062 7.871094 19.191406 6.449219 18.039062 C 4.96875 16.796875 4 15.160156 3.816406 13.492188 C 3.847656 13.160156 3.910156 12.828125 3.9375 12.523438 C 4.210938 10.828125 5.121094 7.585938 7.902344 5.007812 C 11.5625 1.707031 15.890625 1.707031 17.496094 1.707031 C 17.523438 1.707031 17.523438 1.707031 17.554688 1.707031 C 20.097656 1.707031 23.96875 2.371094 27.992188 5.554688 C 28.234375 5.734375 28.628906 6.070312 29.054688 6.492188 C 31.261719 8.644531 32.714844 11.675781 33.320312 15.464844 C 33.351562 15.675781 33.5625 15.859375 33.773438 15.859375 C 33.804688 15.859375 33.832031 15.859375 33.832031 15.859375 C 34.074219 15.828125 34.257812 15.585938 34.226562 15.34375 C 33.589844 11.34375 32.046875 8.128906 29.6875 5.859375 C 29.203125 5.402344 28.8125 5.070312 28.539062 4.859375 C 28.539062 4.859375 28.507812 4.828125 28.507812 4.828125 C 24.300781 1.492188 20.1875 0.796875 17.496094 0.796875 C 15.953125 0.796875 11.230469 0.796875 7.359375 4.34375 C 4.421875 7.007812 3.453125 10.371094 3.121094 12.222656 C 1.578125 13.644531 0.730469 15.464844 0.609375 17.585938 C 0.488281 19.371094 0.730469 20.796875 1.367188 22.160156 C 1.519531 22.523438 1.730469 22.828125 1.910156 23.160156 C 2.273438 23.765625 2.578125 24.34375 2.667969 24.949219 C 2.757812 25.644531 2.515625 26.402344 2.273438 27.191406 C 1.910156 28.28125 1.546875 29.402344 2.0625 30.496094 C 2.425781 31.25 3.09375 31.707031 3.726562 32.160156 C 4.089844 32.402344 4.421875 32.644531 4.695312 32.917969 C 5.753906 33.949219 5.84375 35.859375 4.90625 36.980469 C 4.605469 37.34375 4.242188 37.617188 3.847656 37.917969 C 3.574219 38.128906 3.304688 38.34375 3.0625 38.585938 C 2.183594 39.402344 1.820312 40.375 2.03125 41.222656 C 2.09375 41.433594 2.273438 41.585938 2.488281 41.585938 C 2.515625 41.585938 2.546875 41.585938 2.609375 41.585938 C 2.851562 41.523438 3 41.28125 2.941406 41.039062 C 2.757812 40.253906 3.484375 39.496094 3.726562 39.28125 C 3.9375 39.070312 4.179688 38.886719 4.453125 38.675781 C 4.878906 38.34375 5.300781 38.039062 5.632812 37.617188 C 6.875 36.101562 6.753906 33.675781 5.359375 32.3125 C 5.027344 31.980469 4.636719 31.707031 4.273438 31.464844 C 3.695312 31.070312 3.152344 30.707031 2.910156 30.160156 C 2.546875 29.402344 2.820312 28.496094 3.152344 27.523438 C 3.425781 26.675781 3.695312 25.796875 3.574219 24.886719 C 3.484375 24.070312 3.09375 23.402344 2.699219 22.738281 C 2.515625 22.433594 2.335938 22.128906 2.214844 21.828125 C 1.640625 20.523438 1.429688 19.28125 1.519531 17.617188 C 1.609375 16.160156 2.0625 14.859375 2.910156 13.765625 C 2.851562 14.3125 2.851562 14.828125 2.851562 15.101562 C 2.878906 17.3125 5.121094 20.3125 5.421875 20.707031 C 5.542969 21.007812 6.359375 23.039062 5.089844 25.980469 C 4.96875 26.222656 4.96875 26.523438 5.089844 26.765625 C 5.210938 27.007812 5.421875 27.222656 5.695312 27.3125 C 6.148438 27.464844 6.8125 27.617188 7.601562 27.554688 L 7.75 29.039062 C 7.8125 29.464844 8.054688 29.828125 8.449219 29.980469 L 9.023438 30.222656 L 8.992188 30.371094 C 8.902344 30.917969 9.234375 31.433594 9.71875 31.617188 L 11.109375 32.128906 C 11.140625 32.28125 11.140625 32.433594 11.171875 32.644531 C 11.292969 33.644531 12.140625 34.433594 13.105469 34.433594 C 13.105469 34.433594 13.136719 34.433594 13.136719 34.433594 C 13.894531 34.433594 14.832031 34.28125 16.375 32.644531 C 16.617188 32.375 17.402344 31.859375 18.222656 31.433594 C 18.34375 31.523438 18.433594 31.585938 18.554688 31.675781 C 19.703125 32.464844 20.761719 33.222656 21.035156 34.554688 C 21.214844 35.464844 21.214844 36.375 21.214844 37.375 C 21.214844 38.523438 21.214844 39.707031 21.550781 40.859375 C 22.125 42.828125 23.820312 44.464844 26.179688 45.3125 C 28.175781 46.039062 30.261719 46.160156 32.289062 46.28125 C 32.289062 46.28125 32.320312 46.28125 32.320312 46.28125 C 32.5625 46.28125 32.773438 46.101562 32.773438 45.859375 C 32.835938 45.554688 32.625 45.34375 32.382812 45.34375 Z M 15.710938 32.007812 C 14.316406 33.464844 13.621094 33.496094 13.136719 33.496094 C 12.59375 33.496094 12.140625 33.070312 12.078125 32.523438 C 12.046875 32.101562 11.988281 31.738281 11.988281 31.738281 C 11.957031 31.554688 11.867188 31.433594 11.683594 31.375 L 10.019531 30.765625 C 9.929688 30.738281 9.839844 30.617188 9.871094 30.523438 L 9.929688 30.007812 C 9.960938 29.796875 9.839844 29.585938 9.65625 29.523438 L 8.75 29.160156 C 8.660156 29.128906 8.628906 29.039062 8.597656 28.980469 L 8.386719 27.039062 C 8.386719 26.917969 8.296875 26.796875 8.207031 26.738281 C 8.113281 26.675781 7.992188 26.617188 7.84375 26.644531 C 7.054688 26.765625 6.328125 26.617188 5.90625 26.496094 C 5.875 26.496094 5.875 26.464844 5.875 26.464844 C 5.875 26.433594 5.875 26.433594 5.875 26.402344 C 7.417969 22.886719 6.238281 20.433594 6.179688 20.3125 C 6.179688 20.28125 6.148438 20.25 6.117188 20.25 C 6.085938 20.222656 4.816406 18.585938 4.152344 16.886719 C 4.605469 17.585938 5.179688 18.222656 5.875 18.796875 C 7.417969 20.070312 9.414062 20.949219 11.988281 21.523438 C 12.167969 21.554688 12.320312 21.585938 12.503906 21.644531 C 13.320312 21.828125 14.105469 21.980469 14.832031 22.3125 C 15.738281 22.765625 16.34375 23.496094 16.4375 24.25 C 16.527344 24.828125 16.316406 25.433594 16.101562 26.039062 C 15.859375 26.765625 15.617188 27.523438 15.769531 28.371094 C 15.980469 29.496094 16.617188 30.25 17.402344 30.886719 C 16.707031 31.222656 16.011719 31.707031 15.710938 32.007812 Z M 15.710938 32.007812 " fill-opacity="1" fill-rule="nonzero"/></g></svg>