<svg xmlns="http://www.w3.org/2000/svg" xmlns:xlink="http://www.w3.org/1999/xlink" width="64" zoomAndPan="magnify" viewBox="0 0 48 48" height="64" preserveAspectRatio="xMidYMid meet" version="1.0"><defs><clipPath id="004d280c04"><path d="M 0.488281 3.589844 L 47.507812 3.589844 L 47.507812 43.265625 L 0.488281 43.265625 Z M 0.488281 3.589844 " clip-rule="nonzero"/></clipPath></defs><g clip-path="url(#004d280c04)"><path fill="#cba135" d="M 36.78125 7.253906 C 36.40625 6.976562 36.433594 6.535156 36.542969 6.125 C 36.691406 5.574219 36.910156 5.035156 37.09375 4.492188 C 37.136719 4.375 37.195312 4.269531 37.242188 4.128906 C 36.800781 3.972656 36.425781 4.070312 36.070312 4.308594 C 35.539062 4.660156 35.144531 5.140625 34.867188 5.703125 C 34 7.4375 33.378906 9.265625 32.867188 11.128906 C 32.628906 11.996094 32.402344 12.847656 32.15625 13.710938 C 32.117188 13.859375 32.027344 14.007812 31.921875 14.117188 C 31.082031 14.941406 30.234375 15.753906 29.398438 16.578125 C 28.972656 16.992188 28.570312 17.414062 28.15625 17.828125 C 28.074219 17.90625 27.957031 17.945312 27.859375 18.003906 C 27.828125 17.964844 27.808594 17.933594 27.78125 17.894531 C 28.085938 17.648438 28.390625 17.414062 28.695312 17.167969 C 28.65625 17.121094 28.617188 17.070312 28.570312 17.019531 C 28.261719 17.089844 27.949219 17.140625 27.640625 17.226562 C 27.5625 17.246094 27.515625 17.394531 27.476562 17.492188 C 27.140625 18.328125 26.804688 19.171875 26.460938 20.007812 C 26.421875 20.105469 26.351562 20.183594 26.292969 20.269531 C 26.261719 20.261719 26.222656 20.242188 26.191406 20.230469 C 26.214844 20.125 26.222656 20.015625 26.261719 19.917969 C 26.460938 19.4375 26.65625 18.957031 26.863281 18.484375 C 27.453125 17.109375 27.761719 15.675781 27.730469 14.175781 C 27.691406 12.160156 27.96875 10.1875 28.402344 8.234375 C 28.441406 8.066406 28.480469 7.910156 28.53125 7.742188 C 28.015625 7.4375 27.847656 7.09375 27.957031 6.476562 C 28.027344 6.085938 28.15625 5.691406 28.261719 5.25 C 28.117188 5.300781 27.976562 5.339844 27.859375 5.398438 C 27.179688 5.730469 26.792969 6.308594 26.527344 6.996094 C 25.976562 8.449219 25.730469 9.980469 25.425781 11.492188 C 25.179688 12.722656 24.960938 13.957031 24.664062 15.175781 C 24.378906 16.355469 23.777344 17.363281 22.863281 18.179688 C 22.535156 18.464844 22.242188 18.777344 21.914062 19.054688 C 21.667969 19.257812 21.539062 19.464844 21.707031 19.78125 C 21.746094 19.847656 21.738281 19.9375 21.757812 20.027344 C 21.71875 20.046875 21.679688 20.054688 21.640625 20.074219 C 21.570312 19.945312 21.480469 19.820312 21.441406 19.671875 C 21.394531 19.496094 21.304688 19.4375 21.117188 19.417969 C 20.605469 19.347656 20.089844 19.25 19.578125 19.140625 C 18.21875 18.835938 16.867188 18.492188 15.507812 18.199219 C 15.152344 18.121094 14.769531 18.191406 14.402344 18.191406 C 14.394531 18.140625 14.382812 18.101562 14.375 18.050781 C 14.472656 18.023438 14.582031 17.945312 14.667969 17.953125 C 15.398438 18.023438 16.148438 18.042969 16.859375 18.199219 C 18.050781 18.453125 19.234375 18.796875 20.40625 19.121094 C 21.039062 19.300781 21.558594 19.199219 22.015625 18.679688 C 22.40625 18.230469 22.882812 17.855469 23.285156 17.414062 C 24.113281 16.511719 24.410156 15.351562 24.714844 14.183594 C 23.847656 14.273438 23.027344 14.371094 22.210938 14.449219 C 20.339844 14.625 18.503906 14.941406 16.738281 15.589844 C 15.242188 16.136719 13.820312 16.84375 12.589844 17.867188 C 12.125 18.25 11.664062 18.671875 11.289062 19.140625 C 8.578125 22.488281 5.570312 25.5625 2.515625 28.585938 C 1.964844 29.136719 1.429688 29.714844 0.890625 30.273438 C 0.800781 30.363281 0.683594 30.421875 0.582031 30.5 C 0.554688 30.472656 0.523438 30.433594 0.496094 30.402344 C 0.574219 30.316406 0.644531 30.226562 0.722656 30.136719 C 2.605469 28.214844 4.527344 26.328125 6.371094 24.363281 C 8.015625 22.609375 9.554688 20.753906 11.140625 18.945312 C 12.175781 17.757812 13.449219 16.882812 14.847656 16.175781 C 17.035156 15.078125 19.371094 14.527344 21.785156 14.292969 C 22.625 14.214844 23.453125 14.09375 24.289062 14.027344 C 24.664062 13.996094 24.8125 13.839844 24.882812 13.457031 C 25.148438 11.894531 25.433594 10.34375 25.769531 8.804688 C 25.925781 8.066406 26.183594 7.351562 26.449219 6.644531 C 26.753906 5.839844 27.355469 5.308594 28.183594 5.035156 C 28.332031 4.984375 28.46875 4.835938 28.578125 4.710938 C 28.746094 4.503906 28.84375 4.160156 29.171875 4.238281 C 29.515625 4.328125 29.476562 4.691406 29.445312 4.957031 C 29.367188 5.503906 29.289062 6.054688 29.121094 6.574219 C 28.511719 8.488281 28.15625 10.453125 28.007812 12.445312 C 27.996094 12.5625 28.007812 12.683594 28.007812 12.867188 C 28.164062 12.761719 28.273438 12.683594 28.390625 12.613281 C 29.59375 11.886719 30.746094 11.070312 32.007812 10.484375 C 32.699219 10.160156 33.0625 9.785156 33.28125 9.078125 C 33.625 7.980469 34.097656 6.929688 34.542969 5.867188 C 34.820312 5.230469 35.234375 4.679688 35.792969 4.25 C 36.207031 3.925781 36.660156 3.785156 37.195312 3.886719 C 37.292969 3.90625 37.402344 3.828125 37.507812 3.785156 C 37.667969 3.726562 37.875 3.589844 37.984375 3.648438 C 38.089844 3.707031 38.191406 3.953125 38.160156 4.101562 C 38.089844 4.542969 37.984375 4.984375 37.835938 5.40625 C 37.324219 6.871094 36.742188 8.304688 36.269531 9.765625 C 35.636719 11.699219 35.28125 13.703125 35.046875 15.726562 C 34.964844 16.394531 34.691406 16.953125 34.226562 17.433594 C 33.675781 18.011719 33.125 18.601562 32.5625 19.171875 C 31.695312 20.066406 30.816406 20.949219 29.957031 21.84375 C 29.179688 22.648438 28.429688 23.472656 27.445312 24.070312 C 28.105469 24.226562 29.160156 23.933594 29.800781 23.414062 C 30.570312 22.785156 31.339844 22.144531 32.117188 21.527344 C 33.664062 20.320312 35.222656 19.140625 36.769531 17.945312 C 37.300781 17.542969 37.835938 17.140625 38.347656 16.707031 C 38.535156 16.550781 38.730469 16.324219 38.800781 16.097656 C 39.699219 13.300781 40.949219 10.660156 42.371094 8.097656 C 42.378906 8.078125 42.390625 8.058594 42.398438 8.019531 C 41.9375 7.664062 41.996094 7.183594 42.191406 6.742188 C 42.476562 6.105469 42.832031 5.503906 43.179688 4.847656 C 42.890625 4.601562 42.515625 4.574219 42.121094 4.71875 C 41.503906 4.957031 41.046875 5.386719 40.714844 5.945312 C 40.011719 7.113281 39.332031 8.285156 38.664062 9.460938 C 38.003906 10.621094 37.390625 11.808594 36.710938 12.945312 C 36.40625 13.457031 35.992188 13.898438 35.617188 14.359375 C 35.558594 14.4375 35.460938 14.488281 35.371094 14.546875 C 35.339844 14.527344 35.3125 14.5 35.28125 14.480469 C 35.320312 14.398438 35.339844 14.3125 35.398438 14.253906 C 36.167969 13.574219 36.613281 12.683594 37.097656 11.816406 C 38.179688 9.914062 39.246094 8 40.328125 6.09375 C 40.632812 5.542969 41.027344 5.0625 41.570312 4.730469 C 42.144531 4.386719 42.695312 4.238281 43.285156 4.613281 C 43.34375 4.652344 43.464844 4.621094 43.542969 4.59375 C 43.640625 4.554688 43.730469 4.464844 43.828125 4.425781 C 44.074219 4.328125 44.242188 4.464844 44.191406 4.71875 C 44.164062 4.886719 44.105469 5.042969 44.027344 5.199219 C 43.199219 6.859375 42.320312 8.488281 41.53125 10.167969 C 40.78125 11.75 40.121094 13.367188 39.421875 14.96875 C 39.371094 15.078125 39.351562 15.195312 39.292969 15.371094 C 39.6875 15.144531 40.011719 14.929688 40.359375 14.761719 C 41.503906 14.195312 42.636719 13.605469 43.820312 13.105469 C 44.351562 12.878906 44.972656 12.800781 45.5625 12.761719 C 46.183594 12.722656 46.667969 13.046875 47.011719 13.566406 C 47.0625 13.632812 47.121094 13.710938 47.191406 13.761719 C 47.476562 13.929688 47.503906 14.085938 47.199219 14.253906 C 46.578125 14.605469 45.9375 14.910156 45.308594 15.234375 C 44.941406 15.429688 44.546875 15.589844 44.203125 15.824219 C 42.664062 16.84375 41.136719 17.894531 39.855469 19.230469 C 39.265625 19.847656 38.59375 20.171875 37.785156 20.328125 C 36.199219 20.644531 34.613281 20.988281 33.035156 21.351562 C 32.71875 21.417969 32.394531 21.585938 32.128906 21.78125 C 31.457031 22.285156 30.796875 22.804688 30.175781 23.363281 C 29.398438 24.070312 28.488281 24.335938 27.464844 24.335938 C 25.011719 24.335938 22.585938 24.550781 20.171875 25.03125 C 19.097656 25.25 18.050781 25.503906 17.066406 25.964844 C 15.683594 26.613281 14.660156 27.683594 13.675781 28.78125 C 12.214844 30.394531 11.070312 32.230469 9.988281 34.09375 C 8.707031 36.3125 7.492188 38.570312 6.28125 40.839844 C 5.925781 41.507812 5.710938 42.234375 5.421875 42.941406 C 5.394531 43.027344 5.363281 43.117188 5.316406 43.1875 C 5.285156 43.226562 5.207031 43.265625 5.175781 43.246094 C 5.128906 43.214844 5.070312 43.144531 5.078125 43.097656 C 5.089844 43 5.128906 42.902344 5.167969 42.800781 C 5.878906 40.730469 6.910156 38.808594 7.988281 36.910156 C 9.316406 34.566406 10.6875 32.230469 12.273438 30.039062 C 13.179688 28.78125 14.214844 27.613281 15.429688 26.644531 C 16.859375 25.492188 18.523438 24.894531 20.359375 24.726562 C 21.15625 24.660156 21.945312 24.453125 22.742188 24.363281 C 23.90625 24.246094 25.070312 24.179688 26.234375 24.109375 C 26.804688 24.070312 27.328125 23.902344 27.769531 23.539062 C 28.222656 23.167969 28.675781 22.785156 29.089844 22.371094 C 30.453125 20.996094 31.800781 19.613281 33.144531 18.21875 C 33.558594 17.785156 33.972656 17.355469 34.324219 16.875 C 34.53125 16.597656 34.679688 16.234375 34.75 15.890625 C 35.035156 14.4375 35.214844 12.964844 35.546875 11.53125 C 35.894531 10.109375 36.367188 8.707031 36.78125 7.253906 Z M 46.875 13.78125 C 46.597656 13.183594 45.949219 12.820312 45.199219 12.976562 C 44.527344 13.113281 43.847656 13.300781 43.238281 13.59375 C 41.976562 14.195312 40.753906 14.902344 39.5 15.527344 C 39.234375 15.65625 39.175781 15.851562 39.066406 16.070312 C 38.910156 16.363281 38.769531 16.707031 38.515625 16.902344 C 36.839844 18.21875 35.144531 19.496094 33.449219 20.78125 C 33.351562 20.851562 33.261719 20.9375 33.113281 21.066406 C 33.261719 21.046875 33.339844 21.046875 33.410156 21.035156 C 34.710938 20.761719 36 20.457031 37.300781 20.230469 C 38.335938 20.046875 39.195312 19.664062 39.953125 18.875 C 41.246094 17.53125 42.804688 16.511719 44.351562 15.46875 C 44.460938 15.390625 44.625 15.324219 44.65625 15.214844 C 44.804688 14.792969 45.160156 14.617188 45.503906 14.429688 C 45.9375 14.203125 46.390625 14.007812 46.875 13.78125 Z M 32.835938 10.421875 C 32.808594 10.394531 32.789062 10.375 32.757812 10.34375 C 32.335938 10.53125 31.890625 10.679688 31.496094 10.925781 C 30.394531 11.59375 29.316406 12.300781 28.222656 12.976562 C 28.035156 13.09375 27.96875 13.230469 27.96875 13.449219 C 27.949219 14.195312 27.929688 14.941406 27.878906 15.675781 C 27.859375 16.03125 27.78125 16.375 27.710938 16.796875 C 28.253906 16.539062 28.738281 16.3125 29.21875 16.097656 C 30.304688 15.609375 31.035156 14.695312 31.8125 13.839844 C 31.871094 13.773438 31.910156 13.683594 31.941406 13.605469 C 32.234375 12.542969 32.542969 11.484375 32.835938 10.421875 Z M 29.191406 4.464844 C 29.128906 4.425781 29.070312 4.386719 29.011719 4.347656 C 28.964844 4.445312 28.902344 4.542969 28.863281 4.652344 C 28.628906 5.28125 28.390625 5.90625 28.183594 6.546875 C 28.125 6.722656 28.175781 6.949219 28.234375 7.136719 C 28.273438 7.261719 28.421875 7.359375 28.589844 7.546875 C 28.894531 6.457031 29.347656 5.515625 29.191406 4.464844 Z M 42.378906 7.742188 C 42.449219 7.753906 42.515625 7.761719 42.585938 7.773438 C 43.070312 6.753906 43.550781 5.722656 44.035156 4.699219 C 44.003906 4.679688 43.976562 4.660156 43.945312 4.632812 C 43.878906 4.671875 43.789062 4.691406 43.730469 4.75 C 43.039062 5.398438 42.585938 6.191406 42.328125 7.09375 C 42.269531 7.292969 42.359375 7.527344 42.378906 7.742188 Z M 37.953125 3.777344 C 37.835938 3.816406 37.796875 3.816406 37.777344 3.835938 C 37.726562 3.867188 37.675781 3.90625 37.648438 3.953125 C 37.15625 4.777344 36.78125 5.640625 36.722656 6.605469 C 36.710938 6.742188 36.789062 6.890625 36.828125 7.027344 C 36.867188 7.027344 36.910156 7.027344 36.949219 7.027344 C 37.332031 5.976562 37.914062 4.996094 37.953125 3.777344 Z M 44.992188 15.027344 C 45.011719 15.066406 45.039062 15.097656 45.0625 15.136719 C 45.742188 14.792969 46.421875 14.457031 47.101562 14.117188 C 47.082031 14.074219 47.0625 14.035156 47.042969 13.996094 C 46.324219 14.253906 45.601562 14.539062 44.992188 15.027344 Z M 44.992188 15.027344 " fill-opacity="1" fill-rule="nonzero"/></g></svg>