<svg xmlns="http://www.w3.org/2000/svg" xmlns:xlink="http://www.w3.org/1999/xlink" width="353" zoomAndPan="magnify" viewBox="0 0 264.75 308.999992" height="412" preserveAspectRatio="xMidYMid meet" version="1.0"><defs><clipPath id="18a51c9fef"><path d="M 0 0.144531 L 264.5 0.144531 L 264.5 308.851562 L 0 308.851562 Z M 0 0.144531 " clip-rule="nonzero"/></clipPath><clipPath id="059a826e35"><path d="M 127 280 L 140 280 L 140 292.363281 L 127 292.363281 Z M 127 280 " clip-rule="nonzero"/></clipPath><clipPath id="81022a17c3"><path d="M 259 181 L 264.5 181 L 264.5 187 L 259 187 Z M 259 181 " clip-rule="nonzero"/></clipPath><clipPath id="58298d2551"><path d="M 253 17.113281 L 259 17.113281 L 259 23 L 253 23 Z M 253 17.113281 " clip-rule="nonzero"/></clipPath><clipPath id="4179c70f73"><path d="M 208 17.113281 L 214 17.113281 L 214 23 L 208 23 Z M 208 17.113281 " clip-rule="nonzero"/></clipPath></defs><g clip-path="url(#18a51c9fef)"><path fill="#ffffff" d="M 0 0.144531 L 264.75 0.144531 L 264.75 316.644531 L 0 316.644531 Z M 0 0.144531 " fill-opacity="1" fill-rule="nonzero"/><path fill="#ffffff" d="M 0 0.144531 L 264.75 0.144531 L 264.75 309.144531 L 0 309.144531 Z M 0 0.144531 " fill-opacity="1" fill-rule="nonzero"/><path fill="#ffffff" d="M 0 0.144531 L 264.75 0.144531 L 264.75 309.144531 L 0 309.144531 Z M 0 0.144531 " fill-opacity="1" fill-rule="nonzero"/></g><path fill="#cba135" d="M 22.320312 48.0625 L 17.144531 46.070312 L 15.144531 51.246094 L 15.441406 45.707031 L 9.902344 45.402344 L 15.261719 43.972656 L 13.839844 38.609375 L 16.851562 43.265625 L 21.511719 40.253906 L 18.015625 44.5625 Z M 22.320312 48.0625 " fill-opacity="1" fill-rule="nonzero"/><path fill="#cba135" d="M 62.734375 54.128906 L 59.652344 52.945312 L 58.464844 56.027344 L 58.640625 52.726562 L 55.34375 52.546875 L 58.53125 51.695312 L 57.6875 48.503906 L 59.480469 51.273438 L 62.253906 49.480469 L 60.171875 52.046875 Z M 62.734375 54.128906 " fill-opacity="1" fill-rule="nonzero"/><path fill="#cba135" d="M 130.492188 111.878906 L 125.125 113.269531 L 126.507812 118.644531 L 123.527344 113.96875 L 118.847656 116.945312 L 122.375 112.660156 L 118.097656 109.128906 L 123.257812 111.160156 L 125.292969 105.996094 L 124.957031 111.535156 Z M 130.492188 111.878906 " fill-opacity="1" fill-rule="nonzero"/><path fill="#cba135" d="M 210.210938 229.03125 L 202.238281 231.101562 L 204.296875 239.078125 L 199.871094 232.132812 L 192.921875 236.554688 L 198.15625 230.195312 L 191.804688 224.949219 L 199.46875 227.964844 L 202.492188 220.296875 L 201.992188 228.523438 Z M 210.210938 229.03125 " fill-opacity="1" fill-rule="nonzero"/><path fill="#cba135" d="M 184.976562 91.648438 L 180.617188 92.78125 L 181.742188 97.140625 L 179.324219 93.347656 L 175.523438 95.761719 L 178.386719 92.285156 L 174.914062 89.417969 L 179.105469 91.066406 L 180.753906 86.875 L 180.480469 91.375 Z M 184.976562 91.648438 " fill-opacity="1" fill-rule="nonzero"/><path fill="#cba135" d="M 18.132812 95.679688 L 15.964844 93.1875 L 13.472656 95.355469 L 15.171875 92.523438 L 12.339844 90.824219 L 15.558594 91.558594 L 16.300781 88.34375 L 16.59375 91.632812 L 19.878906 91.34375 L 16.84375 92.636719 Z M 18.132812 95.679688 " fill-opacity="1" fill-rule="nonzero"/><path fill="#cba135" d="M 171.292969 52.265625 L 169.125 49.773438 L 166.632812 51.941406 L 168.328125 49.109375 L 165.5 47.40625 L 168.71875 48.144531 L 169.460938 44.925781 L 169.75 48.21875 L 173.039062 47.929688 L 170.003906 49.222656 Z M 171.292969 52.265625 " fill-opacity="1" fill-rule="nonzero"/><path fill="#cba135" d="M 50 185.644531 L 47.832031 183.15625 L 45.339844 185.324219 L 47.035156 182.488281 L 44.207031 180.789062 L 47.425781 181.527344 L 48.167969 178.308594 L 48.457031 181.597656 L 51.746094 181.3125 L 48.710938 182.605469 Z M 50 185.644531 " fill-opacity="1" fill-rule="nonzero"/><path fill="#cba135" d="M 126.316406 70.613281 L 124.148438 68.121094 L 121.65625 70.289062 L 123.355469 67.457031 L 120.527344 65.753906 L 123.742188 66.496094 L 124.484375 63.273438 L 124.777344 66.566406 L 128.0625 66.277344 L 125.027344 67.570312 Z M 126.316406 70.613281 " fill-opacity="1" fill-rule="nonzero"/><path fill="#cba135" d="M 213.332031 202.019531 L 211.164062 199.53125 L 208.671875 201.699219 L 210.371094 198.863281 L 207.539062 197.160156 L 210.757812 197.902344 L 211.5 194.683594 L 211.792969 197.972656 L 215.078125 197.6875 L 212.042969 198.980469 Z M 213.332031 202.019531 " fill-opacity="1" fill-rule="nonzero"/><path fill="#cba135" d="M 74.015625 81.039062 L 73.542969 86.570312 L 79.070312 87.046875 L 73.667969 88.304688 L 74.921875 93.710938 L 72.054688 88.960938 L 67.300781 91.828125 L 70.933594 87.628906 L 66.742188 83.992188 L 71.851562 86.148438 Z M 74.015625 81.039062 " fill-opacity="1" fill-rule="nonzero"/><path fill="#cba135" d="M 30.605469 231.8125 L 31.828125 237.226562 L 37.238281 236.007812 L 32.472656 238.84375 L 35.300781 243.617188 L 31.128906 239.957031 L 27.46875 244.125 L 29.660156 239.027344 L 24.566406 236.828125 L 30.089844 237.339844 Z M 30.605469 231.8125 " fill-opacity="1" fill-rule="nonzero"/><path fill="#cba135" d="M 92.304688 30.984375 L 92.023438 34.273438 L 95.3125 34.558594 L 92.097656 35.308594 L 92.84375 38.523438 L 91.136719 35.699219 L 88.308594 37.402344 L 90.46875 34.902344 L 87.976562 32.738281 L 91.015625 34.023438 Z M 92.304688 30.984375 " fill-opacity="1" fill-rule="nonzero"/><path fill="#cba135" d="M 36.808594 22.714844 L 33.742188 23.933594 L 34.957031 27.003906 L 32.851562 24.460938 L 30.304688 26.566406 L 32.070312 23.777344 L 29.285156 22.007812 L 32.480469 22.824219 L 33.300781 19.625 L 33.515625 22.921875 Z M 36.808594 22.714844 " fill-opacity="1" fill-rule="nonzero"/><path fill="#cba135" d="M 230.246094 51.191406 L 228.578125 45.898438 L 223.285156 47.5625 L 227.800781 44.339844 L 224.585938 39.816406 L 229.042969 43.117188 L 232.347656 38.660156 L 230.589844 43.925781 L 235.847656 45.691406 L 230.300781 45.644531 Z M 230.246094 51.191406 " fill-opacity="1" fill-rule="nonzero"/><path fill="#cba135" d="M 139.140625 32.15625 L 137.472656 26.863281 L 132.183594 28.523438 L 136.699219 25.304688 L 133.480469 20.78125 L 137.941406 24.082031 L 141.242188 19.625 L 139.484375 24.890625 L 144.742188 26.65625 L 139.195312 26.609375 Z M 139.140625 32.15625 " fill-opacity="1" fill-rule="nonzero"/><path fill="#cba135" d="M 229.96875 126.101562 L 228.976562 122.953125 L 225.828125 123.945312 L 228.515625 122.027344 L 226.601562 119.332031 L 229.253906 121.296875 L 231.222656 118.644531 L 230.171875 121.777344 L 233.304688 122.832031 L 230 122.800781 Z M 229.96875 126.101562 " fill-opacity="1" fill-rule="nonzero"/><path fill="#cba135" d="M 137.492188 161.316406 L 138.085938 158.070312 L 134.839844 157.472656 L 138.113281 157.035156 L 137.679688 153.757812 L 139.105469 156.738281 L 142.082031 155.308594 L 139.695312 157.589844 L 141.96875 159.984375 L 139.0625 158.414062 Z M 137.492188 161.316406 " fill-opacity="1" fill-rule="nonzero"/><path fill="#cba135" d="M 87.007812 215.609375 L 87.601562 212.363281 L 84.355469 211.765625 L 87.628906 211.324219 L 87.191406 208.050781 L 88.621094 211.03125 L 91.597656 209.601562 L 89.210938 211.882812 L 91.484375 214.277344 L 88.578125 212.707031 Z M 87.007812 215.609375 " fill-opacity="1" fill-rule="nonzero"/><path fill="#cba135" d="M 154.695312 227.308594 L 150.082031 230.386719 L 153.152344 235.007812 L 148.800781 231.566406 L 145.355469 235.917969 L 147.28125 230.714844 L 142.082031 228.78125 L 147.625 229.003906 L 147.855469 223.460938 L 149.355469 228.804688 Z M 154.695312 227.308594 " fill-opacity="1" fill-rule="nonzero"/><path fill="#cba135" d="M 176.546875 119.910156 L 173.667969 124.652344 L 178.40625 127.539062 L 173.007812 126.265625 L 171.730469 131.667969 L 171.273438 126.132812 L 165.746094 126.585938 L 170.859375 124.445312 L 168.722656 119.320312 L 172.339844 123.527344 Z M 176.546875 119.910156 " fill-opacity="1" fill-rule="nonzero"/><g clip-path="url(#059a826e35)"><path fill="#cba135" d="M 138.128906 280.597656 L 135.253906 285.34375 L 139.988281 288.226562 L 134.589844 286.953125 L 133.3125 292.355469 L 132.855469 286.824219 L 127.328125 287.277344 L 132.441406 285.128906 L 130.304688 280.007812 L 133.925781 284.214844 Z M 138.128906 280.597656 " fill-opacity="1" fill-rule="nonzero"/></g><path fill="#cba135" d="M 216.390625 139.574219 L 213.644531 141.402344 L 215.472656 144.152344 L 212.882812 142.109375 L 210.832031 144.695312 L 211.980469 141.597656 L 208.882812 140.449219 L 212.183594 140.582031 L 212.316406 137.28125 L 213.210938 140.460938 Z M 216.390625 139.574219 " fill-opacity="1" fill-rule="nonzero"/><path fill="#cba135" d="M 7.535156 193.226562 L 4.789062 195.058594 L 6.617188 197.8125 L 4.027344 195.761719 L 1.976562 198.351562 L 3.121094 195.253906 L 0.03125 194.105469 L 3.328125 194.238281 L 3.464844 190.9375 L 4.355469 194.117188 Z M 7.535156 193.226562 " fill-opacity="1" fill-rule="nonzero"/><path fill="#cba135" d="M 198.066406 117.335938 L 196.160156 116.246094 L 195.066406 118.152344 L 195.515625 116 L 193.367188 115.550781 L 195.550781 115.3125 L 195.3125 113.128906 L 196.214844 115.132812 L 198.21875 114.230469 L 196.589844 115.707031 Z M 198.066406 117.335938 " fill-opacity="1" fill-rule="nonzero"/><path fill="#cba135" d="M 179.148438 170.589844 L 177.808594 169.820312 L 177.039062 171.164062 L 177.351562 169.648438 L 175.839844 169.332031 L 177.378906 169.164062 L 177.210938 167.625 L 177.84375 169.035156 L 179.253906 168.402344 L 178.113281 169.441406 Z M 179.148438 170.589844 " fill-opacity="1" fill-rule="nonzero"/><path fill="#cba135" d="M 85.957031 113.515625 L 84.613281 112.75 L 83.84375 114.089844 L 84.160156 112.578125 L 82.648438 112.257812 L 84.183594 112.089844 L 84.019531 110.554688 L 84.652344 111.964844 L 86.0625 111.332031 L 84.917969 112.371094 Z M 85.957031 113.515625 " fill-opacity="1" fill-rule="nonzero"/><path fill="#cba135" d="M 22.5625 272.238281 L 21.21875 271.472656 L 20.453125 272.8125 L 20.765625 271.296875 L 19.253906 270.980469 L 20.789062 270.816406 L 20.625 269.273438 L 21.257812 270.6875 L 22.667969 270.050781 L 21.523438 271.09375 Z M 22.5625 272.238281 " fill-opacity="1" fill-rule="nonzero"/><path fill="#cba135" d="M 227.429688 285.421875 L 226.085938 284.65625 L 225.316406 285.996094 L 225.632812 284.480469 L 224.121094 284.164062 L 225.660156 283.996094 L 225.492188 282.460938 L 226.125 283.871094 L 227.535156 283.238281 L 226.390625 284.273438 Z M 227.429688 285.421875 " fill-opacity="1" fill-rule="nonzero"/><path fill="#cba135" d="M 39.511719 169.125 L 37.605469 168.035156 L 36.511719 169.941406 L 36.960938 167.792969 L 34.8125 167.339844 L 36.996094 167.101562 L 36.757812 164.917969 L 37.660156 166.921875 L 39.664062 166.019531 L 38.039062 167.496094 Z M 39.511719 169.125 " fill-opacity="1" fill-rule="nonzero"/><path fill="#cba135" d="M 167.773438 206.230469 L 165.871094 205.140625 L 164.777344 207.042969 L 165.226562 204.894531 L 163.078125 204.441406 L 165.257812 204.207031 L 165.023438 202.019531 L 165.921875 204.023438 L 167.925781 203.125 L 166.300781 204.601562 Z M 167.773438 206.230469 " fill-opacity="1" fill-rule="nonzero"/><path fill="#cba135" d="M 258.386719 82.894531 L 256.480469 81.804688 L 255.386719 83.707031 L 255.835938 81.558594 L 253.6875 81.109375 L 255.871094 80.871094 L 255.632812 78.6875 L 256.535156 80.691406 L 258.539062 79.789062 L 256.914062 81.265625 Z M 258.386719 82.894531 " fill-opacity="1" fill-rule="nonzero"/><path fill="#cba135" d="M 239.992188 232.742188 L 237.347656 230.769531 L 235.371094 233.417969 L 236.429688 230.289062 L 233.304688 229.226562 L 236.605469 229.265625 L 236.644531 225.960938 L 237.628906 229.117188 L 240.78125 228.136719 L 238.089844 230.046875 Z M 239.992188 232.742188 " fill-opacity="1" fill-rule="nonzero"/><path fill="#cba135" d="M 257.929688 278.011719 L 256.777344 281.105469 L 259.867188 282.261719 L 256.570312 282.121094 L 256.421875 285.421875 L 255.539062 282.238281 L 252.359375 283.121094 L 255.109375 281.292969 L 253.292969 278.539062 L 255.875 280.59375 Z M 257.929688 278.011719 " fill-opacity="1" fill-rule="nonzero"/><path fill="#cba135" d="M 198.21875 271.140625 L 196.039062 271.371094 L 196.265625 273.558594 L 195.371094 271.550781 L 193.363281 272.445312 L 194.996094 270.972656 L 193.527344 269.339844 L 195.429688 270.433594 L 196.523438 268.53125 L 196.070312 270.683594 Z M 198.21875 271.140625 " fill-opacity="1" fill-rule="nonzero"/><g clip-path="url(#81022a17c3)"><path fill="#cba135" d="M 264.722656 184.582031 L 262.539062 184.816406 L 262.769531 187 L 261.875 184.996094 L 259.867188 185.886719 L 261.5 184.414062 L 260.03125 182.785156 L 261.933594 183.878906 L 263.027344 181.976562 L 262.574219 184.125 Z M 264.722656 184.582031 " fill-opacity="1" fill-rule="nonzero"/></g><path fill="#cba135" d="M 69.167969 281.808594 L 66.988281 282.042969 L 67.214844 284.226562 L 66.320312 282.222656 L 64.316406 283.113281 L 65.945312 281.644531 L 64.476562 280.011719 L 66.378906 281.105469 L 67.476562 279.207031 L 67.023438 281.355469 Z M 69.167969 281.808594 " fill-opacity="1" fill-rule="nonzero"/><path fill="#cba135" d="M 39.511719 77.871094 L 37.605469 76.78125 L 36.511719 78.6875 L 36.960938 76.535156 L 34.8125 76.085938 L 36.996094 75.847656 L 36.757812 73.664062 L 37.660156 75.664062 L 39.664062 74.765625 L 38.039062 76.242188 Z M 39.511719 77.871094 " fill-opacity="1" fill-rule="nonzero"/><path fill="#cba135" d="M 105.421875 178.46875 L 103.515625 177.375 L 102.425781 179.28125 L 102.871094 177.132812 L 100.722656 176.683594 L 102.90625 176.441406 L 102.671875 174.261719 L 103.570312 176.265625 L 105.574219 175.363281 L 103.949219 176.839844 Z M 105.421875 178.46875 " fill-opacity="1" fill-rule="nonzero"/><path fill="#cba135" d="M 120.371094 259.886719 L 118.460938 258.796875 L 117.371094 260.703125 L 117.820312 258.550781 L 115.667969 258.101562 L 117.851562 257.863281 L 117.617188 255.679688 L 118.515625 257.683594 L 120.519531 256.78125 L 118.894531 258.257812 Z M 120.371094 259.886719 " fill-opacity="1" fill-rule="nonzero"/><g clip-path="url(#58298d2551)"><path fill="#cba135" d="M 258.386719 21.320312 L 256.480469 20.230469 L 255.386719 22.136719 L 255.835938 19.988281 L 253.6875 19.535156 L 255.871094 19.296875 L 255.632812 17.113281 L 256.535156 19.117188 L 258.539062 18.214844 L 256.914062 19.691406 Z M 258.386719 21.320312 " fill-opacity="1" fill-rule="nonzero"/></g><g clip-path="url(#4179c70f73)"><path fill="#cba135" d="M 213.582031 21.320312 L 211.675781 20.230469 L 210.585938 22.136719 L 211.03125 19.988281 L 208.882812 19.535156 L 211.066406 19.296875 L 210.832031 17.113281 L 211.734375 19.117188 L 213.734375 18.214844 L 212.109375 19.691406 Z M 213.582031 21.320312 " fill-opacity="1" fill-rule="nonzero"/></g><path fill="#cba135" d="M 20.808594 135.875 L 18.902344 134.785156 L 17.808594 136.691406 L 18.261719 134.539062 L 16.109375 134.089844 L 18.292969 133.851562 L 18.058594 131.667969 L 18.957031 133.671875 L 20.960938 132.769531 L 19.335938 134.246094 Z M 20.808594 135.875 " fill-opacity="1" fill-rule="nonzero"/><path fill="#cba135" d="M 58.8125 131.820312 L 55.945312 130.183594 L 54.304688 133.046875 L 54.976562 129.8125 L 51.746094 129.136719 L 55.027344 128.777344 L 54.671875 125.496094 L 56.027344 128.507812 L 59.039062 127.15625 L 56.59375 129.375 Z M 58.8125 131.820312 " fill-opacity="1" fill-rule="nonzero"/></svg>