<svg xmlns="http://www.w3.org/2000/svg" xmlns:xlink="http://www.w3.org/1999/xlink" width="45" zoomAndPan="magnify" viewBox="0 0 33.75 33.749999" height="45" preserveAspectRatio="xMidYMid meet" version="1.0"><defs><clipPath id="f10aaf06ec"><path d="M 0 0.707031 L 33.5 0.707031 L 33.5 32.957031 L 0 32.957031 Z M 0 0.707031 " clip-rule="nonzero"/></clipPath></defs><g clip-path="url(#f10aaf06ec)"><path fill="#ffffff" d="M 16.855469 32.957031 C 16.507812 32.957031 16.15625 32.871094 15.847656 32.691406 C 11.960938 30.460938 8.636719 27.640625 5.964844 24.304688 C 4.183594 22.078125 0.0078125 16.867188 0.160156 10.40625 C 0.210938 8.238281 0.753906 6.320312 1.730469 4.859375 C 2.160156 4.21875 3.457031 2.277344 6.082031 1.359375 C 7.9375 0.710938 9.585938 0.902344 10.207031 1.011719 C 12.398438 1.410156 13.738281 2.660156 14.8125 3.660156 L 14.839844 3.6875 C 15.625 4.414062 16.3125 5.238281 16.890625 6.136719 C 17.46875 5.238281 18.152344 4.414062 18.933594 3.6875 L 18.960938 3.660156 C 20.035156 2.660156 21.371094 1.410156 23.570312 1.011719 C 24.191406 0.902344 25.835938 0.710938 27.695312 1.359375 C 30.316406 2.277344 31.617188 4.21875 32.042969 4.859375 C 32.726562 5.882812 33.554688 7.675781 33.613281 10.40625 C 33.75 16.675781 29.597656 21.804688 27.601562 24.265625 C 24.945312 27.550781 21.683594 30.375 17.910156 32.664062 C 17.585938 32.859375 17.21875 32.957031 16.855469 32.957031 Z M 8.832031 1.921875 C 8.167969 1.921875 7.324219 2.011719 6.421875 2.328125 C 4.121094 3.132812 2.96875 4.859375 2.589844 5.425781 C 1.71875 6.726562 1.234375 8.457031 1.191406 10.429688 C 1.046875 16.515625 5.058594 21.527344 6.769531 23.664062 C 9.359375 26.898438 12.585938 29.636719 16.359375 31.800781 C 16.675781 31.980469 17.0625 31.976562 17.375 31.785156 C 21.046875 29.558594 24.21875 26.8125 26.800781 23.621094 C 28.71875 21.253906 32.710938 16.324219 32.585938 10.429688 C 32.53125 7.945312 31.796875 6.339844 31.1875 5.425781 C 30.808594 4.859375 29.652344 3.132812 27.355469 2.328125 C 25.726562 1.757812 24.292969 1.925781 23.753906 2.023438 C 21.855469 2.367188 20.691406 3.453125 19.664062 4.410156 L 19.636719 4.4375 C 18.792969 5.222656 18.070312 6.128906 17.492188 7.128906 C 17.367188 7.339844 17.136719 7.472656 16.890625 7.472656 C 16.644531 7.472656 16.417969 7.339844 16.292969 7.128906 C 15.707031 6.128906 14.984375 5.222656 14.136719 4.4375 L 14.113281 4.410156 C 13.082031 3.453125 11.914062 2.367188 10.023438 2.023438 C 9.78125 1.980469 9.363281 1.921875 8.832031 1.921875 Z M 8.832031 1.921875 " fill-opacity="1" fill-rule="nonzero"/></g></svg>