<svg xmlns="http://www.w3.org/2000/svg" xmlns:xlink="http://www.w3.org/1999/xlink" width="45" zoomAndPan="magnify" viewBox="0 0 33.75 33.749999" height="45" preserveAspectRatio="xMidYMid meet" version="1.0"><defs><clipPath id="3f115b21a1"><path d="M 1.222656 10 L 11 10 L 11 28 L 1.222656 28 Z M 1.222656 10 " clip-rule="nonzero"/></clipPath><clipPath id="d7c28b4996"><path d="M 23 9 L 32.722656 9 L 32.722656 28 L 23 28 Z M 23 9 " clip-rule="nonzero"/></clipPath><clipPath id="d947d86b96"><path d="M 4 28 L 9 28 L 9 33.5 L 4 33.5 Z M 4 28 " clip-rule="nonzero"/></clipPath><clipPath id="6f2adfce1b"><path d="M 26 26 L 32.722656 26 L 32.722656 33 L 26 33 Z M 26 26 " clip-rule="nonzero"/></clipPath></defs><path fill="#ffffff" d="M 10.371094 12.511719 C 10.050781 14.28125 10.3125 16.410156 11.199219 17.996094 C 12.21875 19.824219 14.199219 21.070312 15.804688 22.324219 C 16.015625 22.492188 16.246094 22.503906 16.457031 22.324219 C 19.375 19.882812 23.136719 16.804688 21.789062 12.46875 C 21.652344 12.039062 21.011719 12.121094 21 12.574219 C 20.984375 13.519531 21.109375 14.421875 20.941406 15.367188 C 20.789062 16.207031 20.351562 17 19.875 17.695312 C 18.808594 19.242188 17.191406 20.433594 15.804688 21.675781 C 15.992188 21.652344 16.175781 21.628906 16.363281 21.605469 C 14.816406 20.472656 13.019531 19.386719 11.882812 17.808594 C 10.742188 16.222656 10.902344 14.324219 10.554688 12.511719 C 10.539062 12.417969 10.386719 12.417969 10.371094 12.511719 " fill-opacity="1" fill-rule="nonzero"/><path fill="#ffffff" d="M 10.28125 14.878906 C 10.175781 13.605469 10.617188 12.410156 11.769531 11.773438 C 12.730469 11.246094 14.148438 11.128906 15.210938 10.917969 C 17.464844 10.46875 20.480469 9.558594 21.003906 6.984375 C 21.0625 6.707031 20.71875 6.566406 20.558594 6.796875 C 19.71875 8 18.734375 8.746094 17.316406 9.171875 C 16.042969 9.554688 14.730469 9.789062 13.441406 10.121094 C 12.382812 10.394531 11.347656 10.890625 10.609375 11.710938 C 9.78125 12.625 9.9375 13.796875 10.175781 14.894531 C 10.191406 14.949219 10.285156 14.9375 10.28125 14.878906 " fill-opacity="1" fill-rule="nonzero"/><path fill="#ffffff" d="M 18.820312 10.054688 C 19.078125 10.554688 19.535156 10.949219 19.914062 11.355469 C 20.15625 11.617188 20.394531 11.882812 20.609375 12.164062 C 20.800781 12.417969 20.90625 12.78125 21.257812 12.832031 C 21.421875 12.855469 21.59375 12.820312 21.683594 12.660156 C 21.988281 12.09375 21.222656 11.429688 20.871094 11.042969 C 20.414062 10.535156 19.914062 10.070312 19.457031 9.566406 C 19.136719 9.210938 18.617188 9.664062 18.820312 10.054688 " fill-opacity="1" fill-rule="nonzero"/><path fill="#ffffff" d="M 21.914062 14.757812 C 24.28125 12.867188 24.3125 7.488281 22.40625 5.289062 C 21.964844 4.785156 21.175781 5.550781 21.660156 6.03125 C 23.667969 8.019531 23.546875 12.496094 21.734375 14.582031 C 21.625 14.703125 21.785156 14.859375 21.914062 14.757812 " fill-opacity="1" fill-rule="nonzero"/><path fill="#ffffff" d="M 10.355469 14.878906 C 10.445312 12.9375 9.320312 11.179688 9.675781 9.191406 C 9.984375 7.445312 11.511719 6.25 13.066406 5.601562 C 14.417969 5.035156 20.125 3.160156 20.273438 5.871094 C 20.304688 6.5 21.277344 6.511719 21.265625 5.871094 C 21.195312 1.902344 15.058594 3.734375 12.972656 4.5625 C 11.207031 5.261719 9.691406 6.421875 8.953125 8.210938 C 8.140625 10.191406 8.859375 13.308594 10.117188 14.941406 C 10.191406 15.039062 10.347656 15.011719 10.355469 14.878906 " fill-opacity="1" fill-rule="nonzero"/><path fill="#ffffff" d="M 9.480469 10.605469 C 9.167969 9.640625 8.726562 8.867188 8.707031 7.820312 C 8.6875 6.941406 8.972656 6.089844 9.402344 5.332031 C 10.328125 3.710938 12.039062 2.550781 13.765625 1.90625 C 15.324219 1.328125 17.128906 1.078125 18.742188 1.570312 C 20.507812 2.109375 21.144531 3.742188 21.125 5.453125 C 21.117188 6.082031 22.070312 6.074219 22.101562 5.453125 C 22.203125 3.480469 21.402344 1.632812 19.507812 0.816406 C 17.613281 0.00390625 15.398438 0.359375 13.539062 1.09375 C 11.605469 1.859375 9.804688 3.140625 8.738281 4.945312 C 7.726562 6.660156 7.589844 9.320312 8.949219 10.914062 C 9.15625 11.15625 9.574219 10.898438 9.480469 10.605469 " fill-opacity="1" fill-rule="nonzero"/><path fill="#ffffff" d="M 14.269531 24.160156 C 15.15625 23.597656 15.535156 22.03125 15.34375 21.054688 C 15.269531 20.65625 14.628906 20.664062 14.542969 21.054688 C 14.429688 21.589844 14.492188 22.148438 14.40625 22.691406 C 14.332031 23.175781 14.152344 23.601562 14.160156 24.097656 C 14.160156 24.152344 14.222656 24.191406 14.269531 24.160156 " fill-opacity="1" fill-rule="nonzero"/><path fill="#ffffff" d="M 19.742188 23.539062 C 19.445312 23.144531 19.242188 22.554688 19.046875 22.097656 C 18.828125 21.578125 18.664062 21.035156 18.515625 20.492188 C 18.3125 19.75 17.144531 20.070312 17.359375 20.808594 C 17.535156 21.40625 17.773438 21.960938 18.082031 22.503906 C 18.40625 23.082031 18.859375 23.410156 19.308594 23.871094 C 19.523438 24.085938 19.929688 23.792969 19.742188 23.539062 " fill-opacity="1" fill-rule="nonzero"/><path fill="#ffffff" d="M 13.980469 23.921875 C 13.125 23.59375 12.328125 23.167969 11.472656 22.835938 C 10.632812 22.507812 9.96875 21.664062 9.417969 20.992188 C 8.21875 19.527344 7.15625 17.789062 6.433594 16.039062 C 6.253906 15.617188 5.550781 15.800781 5.730469 16.230469 C 6.542969 18.195312 7.722656 20.058594 9.066406 21.699219 C 9.617188 22.367188 10.304688 23.128906 11.140625 23.433594 C 12.03125 23.753906 13.039062 24.535156 14.007812 24.121094 C 14.105469 24.078125 14.058594 23.949219 13.980469 23.921875 " fill-opacity="1" fill-rule="nonzero"/><path fill="#ffffff" d="M 9.566406 12.734375 C 8.71875 13.050781 8.015625 13.492188 7.308594 14.058594 C 6.765625 14.496094 5.554688 15.238281 5.496094 15.996094 C 5.488281 16.113281 5.605469 16.164062 5.703125 16.152344 C 6.003906 16.113281 6.1875 15.878906 6.414062 15.691406 C 6.820312 15.367188 7.195312 15.003906 7.59375 14.667969 C 8.300781 14.074219 8.964844 13.480469 9.625 12.835938 C 9.664062 12.796875 9.621094 12.714844 9.566406 12.734375 " fill-opacity="1" fill-rule="nonzero"/><g clip-path="url(#3f115b21a1)"><path fill="#ffffff" d="M 9.15625 10.378906 C 6.105469 11.734375 1.261719 12.671875 1.757812 16.953125 C 2.003906 19.097656 3.042969 21.09375 4.492188 22.671875 C 5.332031 23.585938 6.257812 24.421875 7.1875 25.234375 C 8.039062 25.976562 8.980469 26.851562 10.003906 27.34375 C 10.433594 27.546875 10.941406 27 10.542969 26.648438 C 9.085938 25.359375 7.46875 24.285156 6.050781 22.933594 C 4.425781 21.390625 3.242188 19.699219 2.71875 17.5 C 2.515625 16.65625 2.472656 15.746094 2.714844 14.902344 C 2.96875 14.015625 3.878906 13.429688 4.589844 12.929688 C 6.007812 11.929688 7.675781 11.273438 9.191406 10.441406 C 9.234375 10.417969 9.199219 10.359375 9.15625 10.378906 " fill-opacity="1" fill-rule="nonzero"/></g><path fill="#ffffff" d="M 19.921875 24.121094 C 20.875 24.53125 21.761719 23.789062 22.640625 23.488281 C 23.484375 23.195312 24.121094 22.542969 24.699219 21.890625 C 26.148438 20.253906 27.363281 18.246094 28.199219 16.230469 C 28.378906 15.800781 27.675781 15.617188 27.5 16.039062 C 26.769531 17.804688 25.695312 19.496094 24.511719 20.992188 C 23.292969 22.53125 21.742188 23.238281 19.949219 23.921875 C 19.871094 23.949219 19.824219 24.078125 19.921875 24.121094 " fill-opacity="1" fill-rule="nonzero"/><path fill="#ffffff" d="M 23.308594 12.230469 C 24.144531 12.984375 24.976562 13.691406 25.867188 14.378906 C 26.347656 14.746094 26.796875 15.15625 27.28125 15.519531 C 27.574219 15.738281 27.886719 16.144531 28.269531 16.15625 C 28.359375 16.160156 28.433594 16.082031 28.433594 15.996094 C 28.4375 15.222656 26.871094 14.332031 26.332031 13.917969 C 25.394531 13.195312 24.460938 12.589844 23.367188 12.132812 C 23.3125 12.109375 23.269531 12.195312 23.308594 12.230469 " fill-opacity="1" fill-rule="nonzero"/><g clip-path="url(#d7c28b4996)"><path fill="#ffffff" d="M 23.328125 9.8125 C 25.128906 10.789062 27 11.628906 28.789062 12.628906 C 30.660156 13.675781 31.628906 14.992188 31.273438 17.171875 C 30.917969 19.371094 29.675781 21.167969 28.117188 22.703125 C 26.640625 24.160156 24.929688 25.285156 23.390625 26.648438 C 22.988281 27 23.496094 27.546875 23.925781 27.34375 C 25.917969 26.390625 27.703125 24.449219 29.226562 22.894531 C 30.792969 21.292969 31.917969 19.195312 32.179688 16.953125 C 32.382812 15.164062 31.800781 13.964844 30.375 12.894531 C 28.335938 11.367188 25.664062 10.773438 23.367188 9.75 C 23.324219 9.730469 23.285156 9.789062 23.328125 9.8125 " fill-opacity="1" fill-rule="nonzero"/></g><path fill="#ffffff" d="M 11.351562 25.105469 C 10.871094 26.359375 10.046875 27.308594 9.367188 28.441406 C 8.972656 29.105469 8.484375 30.796875 9.402344 31.210938 C 9.492188 31.25 9.582031 31.230469 9.636719 31.148438 C 9.941406 30.683594 9.675781 30.167969 9.765625 29.632812 C 9.867188 29.035156 10.179688 28.480469 10.472656 27.964844 C 10.988281 27.0625 11.644531 26.222656 11.640625 25.144531 C 11.640625 24.96875 11.40625 24.957031 11.351562 25.105469 " fill-opacity="1" fill-rule="nonzero"/><path fill="#ffffff" d="M 22.425781 25.007812 C 21.894531 25.570312 22.597656 26.679688 22.921875 27.191406 C 23.613281 28.273438 24.382812 29.457031 23.773438 30.761719 C 23.386719 31.59375 24.597656 32.097656 24.9375 31.25 C 25.445312 30 25.078125 29.097656 24.3125 28.082031 C 23.929688 27.574219 23.480469 27.132812 23.125 26.597656 C 22.800781 26.105469 22.8125 25.460938 22.496094 25.015625 C 22.476562 24.996094 22.445312 24.984375 22.425781 25.007812 " fill-opacity="1" fill-rule="nonzero"/><path fill="#ffffff" d="M 7.933594 29.824219 C 6.726562 32.242188 13.640625 32.828125 14.890625 32.917969 C 17.773438 33.132812 20.855469 32.742188 23.65625 32.070312 C 25.550781 31.617188 27.484375 31.214844 27.179688 28.863281 C 27.148438 28.617188 26.757812 28.503906 26.699219 28.796875 C 26.535156 29.648438 26.277344 30.15625 25.414062 30.390625 C 24.488281 30.644531 23.566406 30.90625 22.632812 31.113281 C 20.230469 31.648438 17.789062 31.722656 15.339844 31.800781 C 14.027344 31.84375 12.6875 31.703125 11.390625 31.488281 C 10.699219 31.371094 7.761719 30.972656 7.972656 29.84375 C 7.976562 29.820312 7.945312 29.800781 7.933594 29.824219 " fill-opacity="1" fill-rule="nonzero"/><g clip-path="url(#d947d86b96)"><path fill="#ffffff" d="M 6.453125 28.75 C 5.34375 29.066406 4.207031 29.835938 4.507812 31.136719 C 4.785156 32.351562 6.863281 33.753906 8.058594 33.425781 C 8.183594 33.390625 8.222656 33.234375 8.132812 33.140625 C 7.738281 32.746094 7.164062 32.664062 6.664062 32.429688 C 6.117188 32.175781 5.609375 31.808594 5.277344 31.304688 C 4.589844 30.261719 5.703125 29.394531 6.546875 28.964844 C 6.667969 28.902344 6.582031 28.710938 6.453125 28.75 " fill-opacity="1" fill-rule="nonzero"/></g><g clip-path="url(#6f2adfce1b)"><path fill="#ffffff" d="M 27.832031 32.789062 C 30.089844 32.761719 32.675781 30.65625 32.199219 28.265625 C 31.792969 26.222656 28.214844 26.167969 26.882812 27.152344 C 26.800781 27.210938 26.828125 27.339844 26.9375 27.34375 C 28.296875 27.394531 30.515625 26.859375 31.464844 28.160156 C 32.222656 29.203125 31.21875 30.59375 30.449219 31.269531 C 29.679688 31.9375 28.699219 32.242188 27.804688 32.695312 C 27.757812 32.71875 27.78125 32.792969 27.832031 32.789062 " fill-opacity="1" fill-rule="nonzero"/></g></svg>