<svg xmlns="http://www.w3.org/2000/svg" xmlns:xlink="http://www.w3.org/1999/xlink" width="45" zoomAndPan="magnify" viewBox="0 0 33.75 33.749999" height="45" preserveAspectRatio="xMidYMid meet" version="1.0"><defs><clipPath id="abb4fecefd"><path d="M 4.042969 4 L 27 4 L 27 31.253906 L 4.042969 31.253906 Z M 4.042969 4 " clip-rule="nonzero"/></clipPath><clipPath id="bfdb8e2f75"><path d="M 23.328125 2.753906 L 29.394531 2.753906 L 29.394531 18.945312 L 23.328125 18.945312 Z M 23.328125 2.753906 " clip-rule="nonzero"/></clipPath></defs><path fill="#ffffff" d="M 19.054688 12.652344 C 19.351562 12.382812 19.203125 11.875 18.789062 11.84375 L 16.898438 11.691406 C 16.71875 11.691406 16.574219 11.574219 16.511719 11.394531 L 15.777344 9.621094 C 15.628906 9.234375 15.09375 9.234375 14.917969 9.621094 L 14.179688 11.394531 C 14.121094 11.542969 13.972656 11.664062 13.796875 11.691406 L 11.90625 11.84375 C 11.492188 11.875 11.34375 12.382812 11.640625 12.652344 L 13.058594 13.914062 C 13.175781 14.03125 13.234375 14.210938 13.203125 14.363281 L 12.761719 16.222656 C 12.675781 16.613281 13.085938 16.941406 13.441406 16.734375 L 15.066406 15.742188 C 15.214844 15.652344 15.390625 15.652344 15.539062 15.742188 L 17.164062 16.734375 C 17.519531 16.941406 17.929688 16.644531 17.84375 16.222656 L 17.398438 14.363281 C 17.371094 14.183594 17.429688 14.003906 17.546875 13.914062 L 19.054688 12.652344 " fill-opacity="1" fill-rule="nonzero"/><g clip-path="url(#abb4fecefd)"><path fill="#ffffff" d="M 24.933594 29.632812 L 5.789062 29.632812 L 5.789062 6.414062 L 22.273438 6.414062 L 22.273438 4.792969 L 5.4375 4.792969 C 4.757812 4.792969 4.195312 5.363281 4.195312 6.054688 L 4.195312 29.992188 C 4.195312 30.683594 4.757812 31.253906 5.4375 31.253906 L 25.289062 31.253906 C 25.96875 31.253906 26.527344 30.683594 26.527344 29.992188 L 26.527344 20.273438 C 25.96875 20.273438 25.40625 20.09375 24.933594 19.765625 L 24.933594 29.632812 " fill-opacity="1" fill-rule="nonzero"/></g><g clip-path="url(#bfdb8e2f75)"><path fill="#ffffff" d="M 26.527344 17.035156 L 25.289062 15.59375 L 25.289062 14.84375 L 27.769531 14.84375 L 27.769531 15.625 Z M 27.769531 7.375 L 27.769531 13.222656 L 25.289062 13.222656 L 25.289062 7.375 Z M 27.769531 4.371094 L 27.769531 5.78125 L 25.289062 5.78125 L 25.289062 4.371094 Z M 29.363281 4.042969 C 29.363281 3.710938 29.246094 3.382812 28.980469 3.144531 C 28.742188 2.902344 28.417969 2.753906 28.09375 2.753906 L 24.992188 2.753906 C 24.667969 2.753906 24.34375 2.871094 24.105469 3.113281 C 23.871094 3.351562 23.71875 3.683594 23.71875 4.011719 L 23.71875 15.714844 C 23.71875 16.015625 23.839844 16.34375 24.046875 16.554688 L 25.609375 18.355469 C 25.847656 18.621094 26.203125 18.804688 26.554688 18.804688 C 26.882812 18.804688 27.207031 18.652344 27.445312 18.414062 C 27.472656 18.386719 27.472656 18.386719 27.503906 18.355469 L 29.066406 16.554688 C 29.277344 16.3125 29.394531 16.015625 29.394531 15.714844 L 29.363281 4.042969 " fill-opacity="1" fill-rule="nonzero"/></g><path fill="#ffffff" d="M 20.589844 19.644531 L 10.132812 19.644531 C 9.6875 19.644531 9.335938 20.003906 9.335938 20.453125 C 9.335938 20.90625 9.6875 21.265625 10.132812 21.265625 L 20.5625 21.265625 C 21.003906 21.265625 21.359375 20.90625 21.359375 20.453125 C 21.359375 20.003906 21.035156 19.644531 20.589844 19.644531 " fill-opacity="1" fill-rule="nonzero"/><path fill="#ffffff" d="M 20.589844 24.441406 L 10.132812 24.441406 C 9.6875 24.441406 9.335938 24.804688 9.335938 25.253906 C 9.335938 25.703125 9.6875 26.0625 10.132812 26.0625 L 20.5625 26.0625 C 21.003906 26.0625 21.359375 25.703125 21.359375 25.253906 C 21.386719 24.804688 21.035156 24.441406 20.589844 24.441406 " fill-opacity="1" fill-rule="nonzero"/></svg>