<svg xmlns="http://www.w3.org/2000/svg" xmlns:xlink="http://www.w3.org/1999/xlink" width="45" zoomAndPan="magnify" viewBox="0 0 33.75 33.749999" height="45" preserveAspectRatio="xMidYMid meet" version="1.0"><defs><clipPath id="f086c78760"><path d="M 0 3.839844 L 33.5 3.839844 L 33.5 30.089844 L 0 30.089844 Z M 0 3.839844 " clip-rule="nonzero"/></clipPath><clipPath id="5059f20578"><path d="M 0 3.839844 L 33.5 3.839844 L 33.5 30.089844 L 0 30.089844 Z M 0 3.839844 " clip-rule="nonzero"/></clipPath></defs><g clip-path="url(#f086c78760)"><path fill="#ffffff" d="M 32.679688 26.046875 C 32.667969 26.03125 32.652344 26.019531 32.636719 26.007812 L 17.425781 15.046875 L 17.425781 12.550781 C 19.605469 12.28125 21.296875 10.441406 21.296875 8.214844 C 21.296875 5.800781 19.3125 3.839844 16.875 3.839844 C 14.4375 3.839844 12.453125 5.800781 12.453125 8.214844 C 12.453125 8.515625 12.703125 8.761719 13.003906 8.761719 C 13.308594 8.761719 13.558594 8.515625 13.558594 8.214844 C 13.558594 6.40625 15.046875 4.933594 16.875 4.933594 C 18.703125 4.933594 20.191406 6.40625 20.191406 8.214844 C 20.191406 10.023438 18.703125 11.496094 16.875 11.496094 C 16.570312 11.496094 16.320312 11.742188 16.320312 12.042969 L 16.320312 15.324219 C 16.320312 15.5 16.40625 15.664062 16.550781 15.765625 L 31.960938 26.875 C 32.359375 27.242188 32.464844 27.832031 32.21875 28.316406 C 32.011719 28.734375 31.585938 28.996094 31.113281 28.996094 L 2.714844 28.996094 C 2.210938 28.996094 1.761719 28.71875 1.535156 28.277344 C 1.292969 27.800781 1.375 27.222656 1.734375 26.828125 L 14.988281 17.347656 C 15.234375 17.171875 15.289062 16.828125 15.109375 16.582031 C 14.933594 16.339844 14.589844 16.285156 14.339844 16.460938 L 1.042969 25.96875 C 1.015625 25.992188 0.992188 26.011719 0.96875 26.035156 C 0.261719 26.765625 0.09375 27.859375 0.546875 28.765625 C 0.960938 29.582031 1.789062 30.089844 2.714844 30.089844 L 31.113281 30.089844 C 32.007812 30.089844 32.808594 29.597656 33.207031 28.808594 C 33.679688 27.875 33.460938 26.742188 32.679688 26.046875 " fill-opacity="1" fill-rule="nonzero"/></g><path fill="#ffffff" d="M 17.425781 8.761719 L 1.398438 8.761719 C 1.09375 8.761719 0.847656 8.515625 0.847656 8.214844 C 0.847656 7.914062 1.09375 7.667969 1.398438 7.667969 L 17.425781 7.667969 C 17.730469 7.667969 17.980469 7.914062 17.980469 8.214844 C 17.980469 8.515625 17.730469 8.761719 17.425781 8.761719 " fill-opacity="1" fill-rule="nonzero"/><path fill="#ffffff" d="M 32.351562 8.761719 L 22.953125 8.761719 C 22.652344 8.761719 22.402344 8.515625 22.402344 8.214844 C 22.402344 7.914062 22.652344 7.667969 22.953125 7.667969 L 32.351562 7.667969 C 32.65625 7.667969 32.902344 7.914062 32.902344 8.214844 C 32.902344 8.515625 32.65625 8.761719 32.351562 8.761719 " fill-opacity="1" fill-rule="nonzero"/><g clip-path="url(#5059f20578)"><path fill="#ffffff" d="M 14.988281 17.347656 C 15.234375 17.171875 15.289062 16.828125 15.109375 16.582031 C 14.933594 16.339844 14.589844 16.285156 14.339844 16.460938 L 1.042969 25.96875 C 1.015625 25.992188 0.992188 26.011719 0.96875 26.035156 C 0.261719 26.765625 0.09375 27.859375 0.546875 28.765625 C 0.960938 29.582031 1.789062 30.089844 2.714844 30.089844 L 31.113281 30.089844 C 32.007812 30.089844 32.808594 29.597656 33.207031 28.808594 C 33.679688 27.875 33.460938 26.742188 32.679688 26.046875 C 32.667969 26.03125 32.652344 26.019531 32.636719 26.007812 L 17.425781 15.046875 L 17.425781 12.550781 C 19.605469 12.28125 21.296875 10.441406 21.296875 8.214844 C 21.296875 5.800781 19.3125 3.839844 16.875 3.839844 C 14.625 3.839844 12.765625 5.511719 12.492188 7.667969 L 1.398438 7.667969 C 1.09375 7.667969 0.847656 7.914062 0.847656 8.214844 C 0.847656 8.515625 1.09375 8.761719 1.398438 8.761719 L 17.425781 8.761719 C 17.730469 8.761719 17.980469 8.515625 17.980469 8.214844 C 17.980469 7.914062 17.730469 7.667969 17.425781 7.667969 L 13.609375 7.667969 C 13.875 6.117188 15.234375 4.933594 16.875 4.933594 C 18.703125 4.933594 20.191406 6.40625 20.191406 8.214844 C 20.191406 10.023438 18.703125 11.496094 16.875 11.496094 C 16.570312 11.496094 16.320312 11.742188 16.320312 12.042969 L 16.320312 15.324219 C 16.320312 15.5 16.40625 15.664062 16.550781 15.765625 L 31.960938 26.875 C 32.359375 27.242188 32.464844 27.832031 32.21875 28.316406 C 32.011719 28.734375 31.585938 28.996094 31.113281 28.996094 L 2.714844 28.996094 C 2.210938 28.996094 1.761719 28.71875 1.535156 28.277344 C 1.292969 27.800781 1.375 27.222656 1.734375 26.828125 L 14.988281 17.347656 " fill-opacity="1" fill-rule="nonzero"/></g><path fill="#ffffff" d="M 22.402344 8.214844 C 22.402344 8.515625 22.652344 8.761719 22.953125 8.761719 L 32.351562 8.761719 C 32.65625 8.761719 32.902344 8.515625 32.902344 8.214844 C 32.902344 7.914062 32.65625 7.667969 32.351562 7.667969 L 22.953125 7.667969 C 22.652344 7.667969 22.402344 7.914062 22.402344 8.214844 " fill-opacity="1" fill-rule="nonzero"/></svg>