<svg xmlns="http://www.w3.org/2000/svg" xmlns:xlink="http://www.w3.org/1999/xlink" width="40" zoomAndPan="magnify" viewBox="0 0 30 30.000001" height="40" preserveAspectRatio="xMidYMid meet" version="1.0"><defs><clipPath id="000bd66332"><path d="M 0.484375 0 L 29.515625 0 L 29.515625 29.03125 L 0.484375 29.03125 Z M 0.484375 0 " clip-rule="nonzero"/></clipPath><clipPath id="e7dd0a775a"><path d="M 15 0 C 6.984375 0 0.484375 6.5 0.484375 14.515625 C 0.484375 22.53125 6.984375 29.03125 15 29.03125 C 23.015625 29.03125 29.515625 22.53125 29.515625 14.515625 C 29.515625 6.5 23.015625 0 15 0 " clip-rule="nonzero"/></clipPath><clipPath id="6063c61fff"><path d="M 0.917969 0.433594 L 29.226562 0.433594 L 29.226562 28.742188 L 0.917969 28.742188 Z M 0.917969 0.433594 " clip-rule="nonzero"/></clipPath><clipPath id="7e837fc146"><path d="M 4 16 L 26 16 L 26 28.742188 L 4 28.742188 Z M 4 16 " clip-rule="nonzero"/></clipPath></defs><g clip-path="url(#000bd66332)"><g clip-path="url(#e7dd0a775a)"><path fill="#6b6a6f" d="M 0.484375 0 L 29.515625 0 L 29.515625 29.03125 L 0.484375 29.03125 Z M 0.484375 0 " fill-opacity="1" fill-rule="nonzero"/></g></g><g clip-path="url(#6063c61fff)"><path fill="#cba135" d="M 29.226562 14.589844 C 29.226562 18.210938 27.867188 21.511719 25.628906 24.015625 C 23.039062 26.917969 19.269531 28.742188 15.074219 28.742188 C 10.875 28.742188 7.105469 26.917969 4.515625 24.015625 C 2.277344 21.511719 0.917969 18.210938 0.917969 14.589844 C 0.917969 6.773438 7.257812 0.4375 15.074219 0.4375 C 22.890625 0.4375 29.226562 6.773438 29.226562 14.589844 " fill-opacity="1" fill-rule="nonzero"/></g><path fill="#ffffff" d="M 15.074219 17.195312 C 17.636719 17.195312 19.976562 14.292969 19.976562 11.105469 C 19.976562 8.097656 19.394531 5.117188 15.074219 5.117188 C 10.753906 5.117188 10.171875 8.097656 10.171875 11.105469 C 10.171875 14.292969 12.507812 17.195312 15.074219 17.195312 " fill-opacity="1" fill-rule="nonzero"/><g clip-path="url(#7e837fc146)"><path fill="#ffffff" d="M 25.628906 24.015625 C 23.039062 26.917969 19.269531 28.742188 15.074219 28.742188 C 10.875 28.742188 7.105469 26.917969 4.515625 24.015625 C 4.472656 22.269531 5.636719 18.21875 11.574219 16.972656 C 12.589844 18.007812 13.839844 18.59375 15.074219 18.59375 C 16.308594 18.59375 17.558594 18.007812 18.574219 16.972656 C 24.511719 18.21875 25.675781 22.269531 25.628906 24.015625 " fill-opacity="1" fill-rule="nonzero"/></g></svg>