<svg xmlns="http://www.w3.org/2000/svg" xmlns:xlink="http://www.w3.org/1999/xlink" width="300" zoomAndPan="magnify" viewBox="0 0 224.87999 225" height="300" preserveAspectRatio="xMidYMid meet" version="1.0"><defs><clipPath id="393fd16eba"><path d="M 0 2 L 224.761719 2 L 224.761719 223.113281 L 0 223.113281 Z M 0 2 " clip-rule="nonzero"/></clipPath></defs><g clip-path="url(#393fd16eba)"><path fill="#cba135" d="M 221.003906 215.335938 L 207.820312 215.335938 L 144.621094 88.496094 C 143.457031 85.78125 140.742188 84.230469 137.640625 84.230469 C 134.539062 84.230469 132.214844 85.78125 130.664062 88.496094 L 119.808594 109.832031 L 98.480469 67.164062 L 98.480469 46.21875 L 113.214844 46.21875 L 113.214844 55.140625 C 113.214844 58.628906 116.316406 61.734375 119.808594 61.734375 L 165.558594 61.734375 C 167.882812 61.734375 169.824219 60.570312 170.597656 58.242188 C 171.375 56.304688 170.984375 53.585938 169.433594 52.035156 L 159.742188 41.949219 L 169.433594 31.867188 C 170.988281 30.316406 171.375 27.988281 170.597656 25.660156 C 169.824219 23.71875 167.496094 22.167969 165.558594 22.167969 L 143.457031 22.167969 L 143.457031 13.636719 C 143.457031 10.144531 140.355469 7.042969 136.867188 7.042969 L 98.09375 7.042969 L 98.09375 5.878906 C 98.09375 3.550781 96.542969 2 94.21875 2 C 91.890625 2 90.339844 3.550781 90.339844 5.878906 L 90.339844 67.164062 L 17.058594 215.335938 L 3.878906 215.335938 C 1.550781 215.335938 0 216.890625 0 219.214844 C 0 221.542969 1.550781 223.09375 3.878906 223.09375 L 221.003906 223.09375 C 223.328125 223.09375 224.878906 221.542969 224.878906 219.214844 C 224.878906 216.890625 223.328125 215.335938 221.003906 215.335938 Z M 137.640625 91.988281 L 199.289062 215.335938 L 172.925781 215.335938 L 124.460938 118.753906 Z M 94.992188 76.859375 L 122.910156 133.105469 C 122.910156 133.105469 122.519531 133.492188 122.519531 133.492188 L 108.5625 152.113281 L 94.21875 134.269531 C 93.441406 133.492188 92.277344 132.71875 91.503906 132.71875 C 90.339844 132.71875 89.175781 133.105469 88.402344 133.878906 L 76.769531 146.679688 L 68.238281 130.390625 Z M 161.292969 30.703125 L 153.539062 38.460938 C 151.601562 40.789062 151.601562 44.277344 153.539062 46.21875 L 161.292969 53.976562 L 121.359375 53.976562 L 121.359375 46.21875 L 137.253906 46.21875 C 140.742188 46.21875 143.84375 43.113281 143.84375 39.625 L 143.84375 30.703125 Z M 136.089844 14.800781 L 136.089844 38.460938 L 98.480469 38.460938 L 98.480469 14.800781 Z M 63.585938 139.3125 L 72.117188 155.601562 C 72.503906 156.765625 73.667969 157.542969 75.21875 157.542969 C 76.382812 157.542969 77.542969 157.152344 78.707031 156.378906 L 91.113281 142.800781 L 105.847656 161.03125 C 106.625 161.808594 107.789062 162.585938 108.949219 162.585938 C 110.113281 162.585938 111.277344 161.808594 112.050781 161.03125 L 127.171875 140.863281 L 164.394531 215.335938 L 25.589844 215.335938 Z M 63.585938 139.3125 " fill-opacity="1" fill-rule="nonzero"/></g></svg>