<svg xmlns="http://www.w3.org/2000/svg" xmlns:xlink="http://www.w3.org/1999/xlink" width="300" zoomAndPan="magnify" viewBox="0 0 224.87999 225" height="300" preserveAspectRatio="xMidYMid meet" version="1.0"><defs><clipPath id="b03728cb22"><path d="M 0 19 L 206 19 L 206 224.9375 L 0 224.9375 Z M 0 19 " clip-rule="nonzero"/></clipPath><clipPath id="00183880f4"><path d="M 97 0.0585938 L 224.761719 0.0585938 L 224.761719 128 L 97 128 Z M 97 0.0585938 " clip-rule="nonzero"/></clipPath></defs><g clip-path="url(#b03728cb22)"><path fill="#cba135" d="M 102.664062 224.941406 C 46.050781 224.941406 0 178.886719 0 122.277344 C 0 65.667969 46.050781 19.613281 102.664062 19.613281 C 122.84375 19.613281 142.40625 25.511719 159.253906 36.65625 C 161.492188 38.144531 162.117188 41.183594 160.632812 43.433594 C 159.128906 45.691406 156.097656 46.289062 153.855469 44.8125 C 138.625 34.730469 120.917969 29.390625 102.664062 29.390625 C 51.449219 29.390625 9.777344 71.0625 9.777344 122.277344 C 9.777344 173.492188 51.449219 215.164062 102.664062 215.164062 C 153.875 215.164062 195.546875 173.492188 195.546875 122.277344 C 195.546875 104.023438 190.21875 86.316406 180.128906 71.082031 C 178.644531 68.835938 179.257812 65.792969 181.507812 64.308594 C 183.746094 62.832031 186.777344 63.425781 188.285156 65.6875 C 199.4375 82.523438 205.324219 102.097656 205.324219 122.277344 C 205.324219 178.886719 159.273438 224.941406 102.664062 224.941406 Z M 102.664062 224.941406 " fill-opacity="1" fill-rule="nonzero"/></g><path fill="#cba135" d="M 102.664062 146.722656 C 89.179688 146.722656 78.21875 135.75 78.21875 122.277344 C 78.21875 108.804688 89.179688 97.832031 102.664062 97.832031 C 116.144531 97.832031 127.105469 108.804688 127.105469 122.277344 C 127.105469 135.75 116.144531 146.722656 102.664062 146.722656 Z M 102.664062 107.609375 C 94.578125 107.609375 87.996094 114.191406 87.996094 122.277344 C 87.996094 130.363281 94.578125 136.945312 102.664062 136.945312 C 110.75 136.945312 117.328125 130.363281 117.328125 122.277344 C 117.328125 114.191406 110.75 107.609375 102.664062 107.609375 Z M 102.664062 107.609375 " fill-opacity="1" fill-rule="nonzero"/><g clip-path="url(#00183880f4)"><path fill="#cba135" d="M 102.664062 127.167969 C 101.410156 127.167969 100.160156 126.6875 99.203125 125.738281 C 97.292969 123.832031 97.292969 120.734375 99.203125 118.824219 L 175.992188 42.035156 L 175.992188 24.503906 C 175.992188 23.203125 176.511719 21.960938 177.421875 21.042969 L 196.976562 1.488281 C 198.382812 0.0898438 200.484375 -0.339844 202.304688 0.429688 C 204.132812 1.195312 205.324219 2.972656 205.324219 4.949219 L 205.324219 19.613281 L 219.992188 19.613281 C 221.964844 19.613281 223.753906 20.808594 224.507812 22.636719 C 225.261719 24.464844 224.839844 26.566406 223.453125 27.964844 L 203.898438 47.519531 C 202.980469 48.4375 201.738281 48.945312 200.4375 48.945312 L 182.90625 48.945312 L 106.113281 125.738281 C 105.164062 126.6875 103.914062 127.167969 102.664062 127.167969 Z M 185.769531 39.167969 L 198.414062 39.167969 L 208.191406 29.390625 L 200.4375 29.390625 C 197.738281 29.390625 195.546875 27.203125 195.546875 24.503906 L 195.546875 16.75 L 185.769531 26.527344 Z M 185.769531 39.167969 " fill-opacity="1" fill-rule="nonzero"/></g><path fill="#cba135" d="M 102.664062 185.832031 C 67.621094 185.832031 39.109375 157.320312 39.109375 122.277344 C 39.109375 87.234375 67.621094 58.722656 102.664062 58.722656 C 112.148438 58.722656 121.347656 60.828125 130.011719 64.972656 C 132.445312 66.144531 133.472656 69.058594 132.308594 71.492188 C 131.144531 73.929688 128.21875 74.953125 125.785156 73.792969 C 118.453125 70.28125 110.671875 68.5 102.664062 68.5 C 73.015625 68.5 48.886719 92.621094 48.886719 122.277344 C 48.886719 151.933594 73.015625 176.054688 102.664062 176.054688 C 132.308594 176.054688 156.4375 151.933594 156.4375 122.277344 C 156.4375 114.269531 154.648438 106.488281 151.140625 99.144531 C 149.976562 96.710938 151.003906 93.796875 153.4375 92.621094 C 155.84375 91.449219 158.785156 92.464844 159.957031 94.921875 C 164.113281 103.59375 166.214844 112.792969 166.214844 122.277344 C 166.214844 157.320312 137.703125 185.832031 102.664062 185.832031 Z M 102.664062 185.832031 " fill-opacity="1" fill-rule="nonzero"/></svg>