<svg xmlns="http://www.w3.org/2000/svg" xmlns:xlink="http://www.w3.org/1999/xlink" width="230" zoomAndPan="magnify" viewBox="0 0 172.5 30.000001" height="40" preserveAspectRatio="xMidYMid meet" version="1.0"><defs><clipPath id="447842d2b7"><path d="M 3 0 L 169.476562 0 L 169.476562 29 L 3 29 Z M 3 0 " clip-rule="nonzero"/></clipPath><clipPath id="1396cf67f5"><path d="M 5.1875 -10.621094 L 171.136719 5.066406 L 167.507812 43.476562 L 1.554688 27.785156 Z M 5.1875 -10.621094 " clip-rule="nonzero"/></clipPath><clipPath id="902aaa67be"><path d="M 5.1875 -10.621094 L 171.136719 5.066406 L 167.507812 43.476562 L 1.554688 27.785156 Z M 5.1875 -10.621094 " clip-rule="nonzero"/></clipPath><clipPath id="af5e5bdffc"><path d="M 156 17 L 157 17 L 157 19 L 156 19 Z M 156 17 " clip-rule="nonzero"/></clipPath><clipPath id="4a5899108f"><path d="M 5.1875 -10.621094 L 171.136719 5.066406 L 167.507812 43.476562 L 1.554688 27.785156 Z M 5.1875 -10.621094 " clip-rule="nonzero"/></clipPath><clipPath id="6c4dd01a59"><path d="M 5.1875 -10.621094 L 171.136719 5.066406 L 167.507812 43.476562 L 1.554688 27.785156 Z M 5.1875 -10.621094 " clip-rule="nonzero"/></clipPath></defs><g clip-path="url(#447842d2b7)"><g clip-path="url(#1396cf67f5)"><g clip-path="url(#902aaa67be)"><path fill="#cba135" d="M 12.113281 28.476562 C 13.386719 28.480469 14.617188 28.480469 15.855469 28.445312 C 17.320312 28.390625 18.820312 28.414062 20.269531 28.167969 C 21.722656 27.878906 23.167969 28.480469 24.628906 28.078125 C 27.324219 28.484375 30.058594 28.089844 32.8125 28.273438 C 36.714844 28.5625 40.605469 28.160156 44.472656 27.558594 C 45.839844 27.34375 47.261719 26.972656 48.640625 27.066406 C 51.359375 27.246094 54.066406 26.691406 56.78125 26.910156 C 56.933594 26.925781 57.085938 26.9375 57.203125 26.910156 C 59.273438 26.21875 61.414062 26.769531 63.558594 26.507812 C 65.195312 26.316406 66.914062 26.054688 68.617188 26.367188 C 68.957031 26.4375 69.359375 26.246094 69.707031 26.238281 C 71.320312 26.277344 72.898438 25.886719 74.539062 26.039062 C 77.09375 26.320312 79.707031 26.375 82.25 26.34375 C 84.757812 26.3125 87.21875 25.925781 89.726562 25.894531 C 91.578125 25.875 93.40625 26.085938 95.246094 25.761719 C 95.675781 25.683594 96.121094 25.882812 96.539062 25.921875 C 97.992188 26.019531 99.46875 26.3125 100.910156 26.140625 C 101.882812 26.039062 102.804688 26.050781 103.75 26.253906 C 104.089844 26.324219 104.472656 26.324219 104.859375 26.320312 C 107.777344 26.402344 110.734375 26.492188 113.652344 26.574219 C 114.617188 26.585938 115.566406 26.714844 116.488281 26.726562 C 116.914062 26.726562 117.351562 26.574219 117.78125 26.5 C 117.703125 25.296875 118.636719 26.003906 119.082031 25.773438 C 119.484375 25.582031 118.851562 25.367188 119.082031 24.964844 C 120.496094 25.097656 122.035156 25.089844 123.582031 25.003906 C 125.792969 24.863281 127.976562 25.378906 130.214844 25.320312 C 131.144531 25.292969 132.09375 25.808594 133.015625 25.855469 C 133.898438 25.902344 134.828125 25.410156 135.734375 26 C 135.882812 26.089844 136.320312 25.9375 136.527344 25.765625 C 138.183594 24.570312 139.976562 24.738281 141.785156 25.140625 C 142.125 25.210938 142.53125 25.40625 142.84375 25.359375 C 144.335938 25.074219 145.75 25.59375 147.253906 25.542969 C 147.988281 25.535156 148.746094 25.644531 149.421875 25.863281 C 150.957031 26.316406 152.488281 26 154.023438 26.066406 C 154.59375 26.121094 154.746094 25.75 154.660156 25.007812 C 154.644531 24.773438 154.546875 24.574219 154.609375 24.347656 C 154.664062 24.160156 154.847656 23.867188 154.960938 23.878906 C 156.1875 23.917969 157.3125 23.019531 158.621094 23.453125 C 159.332031 23.675781 159.933594 23.421875 160.339844 22.765625 C 160.574219 22.324219 161.175781 22.074219 161.042969 21.441406 C 160.539062 21.085938 159.816406 20.980469 159.410156 20.402344 C 159.273438 20.234375 159.0625 20.019531 158.90625 20.007812 C 157.78125 20.132812 156.769531 19.417969 155.6875 19.433594 C 154.765625 19.421875 153.9375 19.226562 153.113281 18.996094 C 152.402344 18.773438 151.714844 18.707031 150.976562 18.753906 C 148.8125 18.859375 148.589844 18.761719 146.527344 17.753906 C 147.332031 17.40625 148.171875 17.484375 148.941406 17.480469 C 150.25 17.488281 151.558594 17.921875 152.886719 17.699219 C 154.179688 17.476562 155.484375 18.332031 156.800781 17.839844 C 156.921875 17.8125 157.109375 17.867188 157.214844 17.953125 C 158.355469 18.910156 159.644531 18.726562 160.980469 18.464844 C 161.921875 18.285156 162.828125 18.0625 163.804688 18.308594 C 164.597656 18.5 165.363281 18.109375 165.761719 17.566406 C 166.203125 16.992188 166.589844 16.5625 167.292969 16.4375 C 167.488281 16.417969 167.769531 16.289062 167.828125 16.101562 C 168.136719 15.28125 168.902344 14.890625 169.386719 14.28125 C 169.816406 13.78125 169.710938 13.269531 169.078125 13.054688 C 167.996094 12.683594 167.324219 12.039062 167.085938 10.898438 C 167.011719 10.46875 166.742188 10.054688 166.296875 9.898438 C 164.914062 9.417969 163.769531 8.5 162.253906 8.242188 C 161.117188 8.058594 159.90625 7.828125 159.203125 6.71875 C 159.066406 6.511719 158.683594 6.476562 158.433594 6.296875 C 156.832031 5.296875 155.058594 4.9375 153.1875 4.761719 C 152.003906 4.648438 150.867188 4.464844 149.703125 4.121094 C 148.652344 3.828125 147.546875 3.726562 146.445312 3.542969 C 145.878906 3.453125 145.21875 3.503906 144.699219 3.300781 C 142.09375 2.320312 139.234375 2.863281 136.621094 1.957031 C 136.433594 1.902344 136.195312 1.996094 135.960938 2.011719 C 133.375 2.078125 130.789062 2.140625 128.246094 2.171875 C 127.511719 2.179688 126.792969 2.070312 126.140625 1.625 C 125.78125 1.359375 125.332031 1.199219 124.917969 1.121094 C 123.164062 0.917969 121.378906 0.671875 119.613281 0.621094 C 117.269531 0.554688 114.878906 0.597656 112.550781 0.765625 C 110.847656 0.871094 109.164062 0.753906 107.480469 0.632812 C 105.796875 0.511719 104.113281 0.390625 102.40625 0.539062 C 101.394531 0.636719 100.363281 0.960938 99.351562 0.675781 C 99.316406 0.632812 99.285156 0.550781 99.25 0.511719 C 98.511719 0.171875 97.65625 0.667969 96.929688 0.214844 C 96.894531 0.171875 96.648438 0.339844 96.640625 0.417969 C 96.554688 0.910156 96.320312 0.964844 95.894531 0.964844 C 94.050781 0.945312 92.238281 0.964844 90.386719 0.984375 C 89.230469 0.992188 88.046875 1.304688 86.902344 0.769531 C 86.640625 0.667969 86.328125 0.753906 86.015625 0.765625 C 85.121094 0.871094 84.324219 1.144531 83.3125 0.855469 C 82.453125 0.582031 81.390625 0.828125 80.484375 1.050781 C 79.734375 1.210938 79.027344 0.953125 78.320312 1.117188 C 77.613281 1.28125 76.871094 1.367188 76.140625 1.375 C 74.597656 1.382812 73.074219 1.199219 71.566406 1.675781 C 71.25 1.761719 70.742188 1.828125 70.492188 1.652344 C 69.6875 1.1875 68.949219 1.273438 68.148438 1.582031 C 67.710938 1.734375 67.289062 1.695312 66.84375 1.539062 C 65.617188 1.074219 64.367188 1.265625 63.09375 1.261719 C 62.75 1.265625 62.382812 1.464844 62.015625 1.273438 C 61.171875 0.847656 60.308594 0.996094 59.414062 1.105469 C 58.554688 1.21875 57.667969 1.25 56.96875 0.488281 C 56.652344 0.148438 56.148438 0.179688 55.71875 0.253906 C 53.886719 0.503906 52.066406 0.605469 50.203125 0.773438 C 46.820312 1.113281 43.457031 1.257812 40.085938 1.476562 C 38.6875 1.578125 37.3125 1.484375 35.945312 2.089844 C 35.222656 2.40625 34.367188 2.480469 33.5625 2.445312 C 32.988281 2.390625 32.367188 2.445312 31.785156 2.507812 C 29.289062 2.8125 26.84375 3.042969 24.316406 2.882812 C 23.359375 2.832031 22.417969 2.585938 21.515625 3.195312 C 21.183594 3.433594 20.820312 3.207031 20.4375 3.171875 C 19.714844 3.066406 18.964844 2.878906 18.242188 3.15625 C 17.960938 3.285156 17.636719 3.484375 17.800781 3.773438 C 18.019531 4.292969 18.058594 4.722656 17.59375 5.140625 C 17.210938 5.53125 17.324219 5.964844 17.796875 6.242188 C 18.050781 6.417969 18.421875 6.570312 18.238281 6.902344 C 17.949219 7.492188 17.585938 8.074219 17.15625 8.535156 C 16.855469 8.894531 16.332031 8.726562 15.871094 8.722656 C 14.984375 8.714844 14.007812 8.46875 13.25 8.746094 C 12.210938 9.109375 11.148438 9.355469 10.074219 9.71875 C 10.457031 10.566406 11.359375 10.417969 11.902344 10.777344 C 10.199219 12.085938 8.164062 12.433594 6.21875 13.445312 C 7.480469 13.949219 8.453125 14.660156 9.421875 15.40625 C 8.964844 16.175781 8.351562 16.542969 7.574219 16.621094 C 6.910156 16.714844 6.269531 17 5.644531 17.058594 C 4.644531 17.078125 4.085938 17.683594 3.410156 18.3125 C 2.902344 18.804688 2.910156 19.113281 3.410156 19.546875 C 3.695312 19.769531 3.550781 20.0625 3.484375 20.367188 C 3.09375 21.640625 3.09375 21.640625 4.480469 22.042969 C 4.667969 22.097656 4.898438 22.121094 4.992188 22.359375 C 5.035156 22.710938 4.679688 22.792969 4.46875 23.007812 C 3.480469 24.070312 3.601562 24.855469 4.863281 25.359375 C 5.34375 25.558594 5.832031 25.683594 6.320312 25.804688 C 6.605469 25.640625 6.878906 25.625 7 25.949219 C 7.027344 26.066406 6.816406 26.277344 6.757812 26.464844 C 6.628906 26.605469 6.5 26.789062 6.292969 26.921875 C 6.085938 27.058594 5.882812 27.191406 5.976562 27.433594 C 6.035156 27.59375 6.25 27.769531 6.398438 27.859375 C 6.582031 27.953125 6.808594 27.976562 7.039062 27.996094 C 8.765625 28.46875 10.425781 28.433594 12.113281 28.476562 Z M 12.113281 28.476562 " fill-opacity="1" fill-rule="nonzero"/></g></g></g><g clip-path="url(#af5e5bdffc)"><g clip-path="url(#4a5899108f)"><g clip-path="url(#6c4dd01a59)"><path fill="#cba135" d="M 156.867188 17.960938 C 156.707031 18.023438 156.664062 18.09375 156.765625 18.222656 C 156.800781 18.261719 156.84375 18.226562 156.878906 18.230469 C 156.921875 18.199219 156.964844 18.164062 156.96875 18.125 C 156.9375 18.042969 156.867188 17.960938 156.867188 17.960938 Z M 156.867188 17.960938 " fill-opacity="1" fill-rule="nonzero"/></g></g></g></svg>