<svg xmlns="http://www.w3.org/2000/svg" xmlns:xlink="http://www.w3.org/1999/xlink" width="75" zoomAndPan="magnify" viewBox="0 0 56.25 56.249997" height="75" preserveAspectRatio="xMidYMid meet" version="1.0"><defs><clipPath id="33b310b5cd"><path d="M 0 0 L 55.511719 0 L 55.511719 55.511719 L 0 55.511719 Z M 0 0 " clip-rule="nonzero"/></clipPath></defs><g clip-path="url(#33b310b5cd)"><path fill="#cba135" d="M 29.589844 28.015625 C 29.675781 28.839844 29.449219 29.695312 28.886719 30.386719 L 28.824219 30.453125 C 28.476562 30.804688 27.910156 30.804688 27.5625 30.457031 C 27.222656 30.117188 27.214844 29.570312 27.539062 29.21875 C 27.761719 28.917969 27.855469 28.550781 27.820312 28.199219 C 27.78125 27.84375 27.617188 27.503906 27.335938 27.253906 L 26.246094 26.367188 C 25.9375 26.113281 25.550781 26.011719 25.179688 26.050781 C 24.808594 26.089844 24.449219 26.265625 24.199219 26.574219 C 23.949219 26.882812 23.847656 27.269531 23.886719 27.640625 C 23.921875 28.011719 24.101562 28.367188 24.410156 28.621094 L 25.457031 29.472656 C 26.148438 30.035156 26.546875 30.828125 26.632812 31.652344 C 26.714844 32.476562 26.488281 33.332031 25.925781 34.023438 C 25.363281 34.714844 24.570312 35.113281 23.746094 35.199219 C 22.992188 35.273438 22.207031 35.085938 21.550781 34.617188 L 20.863281 35.460938 C 20.554688 35.839844 19.992188 35.898438 19.613281 35.589844 C 19.230469 35.277344 19.171875 34.71875 19.484375 34.335938 L 20.167969 33.496094 C 19.578125 32.945312 19.230469 32.214844 19.152344 31.460938 C 19.070312 30.636719 19.296875 29.78125 19.859375 29.089844 L 19.921875 29.019531 C 20.269531 28.671875 20.835938 28.671875 21.183594 29.019531 C 21.523438 29.355469 21.53125 29.90625 21.210938 30.253906 C 20.980469 30.554688 20.890625 30.921875 20.925781 31.277344 C 20.964844 31.632812 21.128906 31.972656 21.410156 32.21875 L 22.5 33.109375 C 22.808594 33.359375 23.195312 33.460938 23.566406 33.425781 C 23.9375 33.386719 24.296875 33.207031 24.546875 32.898438 C 24.796875 32.589844 24.898438 32.207031 24.859375 31.832031 C 24.824219 31.460938 24.644531 31.105469 24.335938 30.855469 L 23.285156 30 C 22.597656 29.4375 22.199219 28.648438 22.113281 27.824219 C 22.03125 27 22.257812 26.144531 22.820312 25.453125 C 23.382812 24.761719 24.175781 24.363281 25 24.277344 C 25.753906 24.199219 26.539062 24.390625 27.195312 24.855469 L 27.882812 24.015625 C 28.191406 23.632812 28.753906 23.578125 29.132812 23.886719 C 29.515625 24.195312 29.570312 24.757812 29.261719 25.140625 L 28.578125 25.980469 C 29.167969 26.53125 29.515625 27.257812 29.589844 28.015625 Z M 23.234375 41.210938 L 13.371094 33.1875 C 12.992188 32.875 12.429688 32.933594 12.121094 33.316406 C 11.808594 33.695312 11.867188 34.257812 12.25 34.566406 L 22.109375 42.589844 C 22.492188 42.902344 23.050781 42.84375 23.363281 42.460938 C 23.671875 42.082031 23.613281 41.519531 23.234375 41.210938 Z M 20.640625 44.394531 L 10.78125 36.371094 C 10.398438 36.0625 9.839844 36.117188 9.527344 36.5 C 9.21875 36.878906 9.277344 37.441406 9.65625 37.75 L 19.519531 45.773438 C 19.898438 46.085938 20.460938 46.027344 20.769531 45.644531 C 21.082031 45.265625 21.023438 44.703125 20.640625 44.394531 Z M 55.511719 12.9375 C 55.511719 16.511719 54.0625 19.746094 51.71875 22.085938 C 49.382812 24.425781 46.144531 25.871094 42.570312 25.871094 C 42.082031 25.871094 41.605469 25.851562 41.140625 25.804688 C 40.984375 25.789062 40.832031 25.769531 40.679688 25.75 L 40.039062 31.113281 C 40.015625 31.308594 39.933594 31.484375 39.808594 31.617188 L 20.726562 55.070312 C 20.414062 55.453125 19.855469 55.511719 19.472656 55.199219 L 0.4375 39.710938 C 0.0585938 39.402344 0 38.839844 0.308594 38.460938 L 19.429688 14.960938 C 19.542969 14.824219 19.683594 14.730469 19.839844 14.679688 L 29.730469 11.359375 C 30.085938 8.417969 31.433594 5.78125 33.421875 3.789062 C 35.765625 1.449219 39 0 42.570312 0 C 46.144531 0 49.378906 1.449219 51.71875 3.789062 C 54.0625 6.132812 55.511719 9.367188 55.511719 12.9375 Z M 38.300781 30.652344 L 39.746094 18.554688 L 32.195312 12.414062 L 31.425781 12.671875 C 31.421875 12.761719 31.417969 12.851562 31.417969 12.941406 C 31.417969 14.238281 31.648438 15.476562 32.058594 16.625 C 32.160156 16.605469 32.265625 16.589844 32.375 16.582031 L 32.378906 16.582031 C 33.238281 16.515625 34.046875 16.800781 34.65625 17.320312 C 35.269531 17.839844 35.683594 18.59375 35.753906 19.457031 L 35.753906 19.464844 C 35.824219 20.320312 35.539062 21.128906 35.019531 21.742188 C 34.496094 22.355469 33.742188 22.769531 32.875 22.839844 C 32.015625 22.910156 31.207031 22.621094 30.59375 22.101562 C 29.980469 21.582031 29.566406 20.824219 29.496094 19.960938 C 29.425781 19.101562 29.714844 18.292969 30.234375 17.679688 C 30.304688 17.59375 30.378906 17.515625 30.460938 17.4375 C 29.96875 16.132812 29.675781 14.734375 29.636719 13.269531 L 20.648438 16.285156 L 2.253906 38.890625 L 19.90625 53.253906 Z M 31.273438 19.820312 C 31.304688 20.195312 31.480469 20.519531 31.746094 20.742188 C 31.957031 20.921875 32.230469 21.035156 32.523438 21.058594 C 32.085938 20.503906 31.6875 19.914062 31.335938 19.292969 C 31.28125 19.457031 31.257812 19.636719 31.273438 19.820312 Z M 33.976562 19.628906 L 33.972656 19.570312 C 33.933594 19.210938 33.757812 18.898438 33.503906 18.679688 C 33.324219 18.527344 33.105469 18.421875 32.863281 18.378906 C 33.179688 18.945312 33.542969 19.484375 33.945312 19.988281 C 33.972656 19.871094 33.980469 19.75 33.976562 19.628906 Z M 53.722656 12.9375 C 53.722656 9.859375 52.476562 7.070312 50.457031 5.050781 C 48.441406 3.035156 45.652344 1.785156 42.570312 1.785156 C 39.492188 1.785156 36.703125 3.035156 34.683594 5.050781 C 33.164062 6.570312 32.082031 8.53125 31.640625 10.71875 L 32.09375 10.566406 C 32.398438 10.464844 32.722656 10.539062 32.953125 10.730469 L 41.25 17.484375 C 41.496094 17.683594 41.605469 17.988281 41.574219 18.277344 L 40.894531 23.980469 C 41.035156 24 41.175781 24.019531 41.316406 24.03125 C 41.730469 24.074219 42.152344 24.09375 42.570312 24.09375 C 45.648438 24.09375 48.4375 22.84375 50.457031 20.824219 C 52.476562 18.804688 53.722656 16.019531 53.722656 12.9375 Z M 53.722656 12.9375 " fill-opacity="1" fill-rule="nonzero"/></g></svg>