<svg xmlns="http://www.w3.org/2000/svg" xmlns:xlink="http://www.w3.org/1999/xlink" width="75" zoomAndPan="magnify" viewBox="0 0 56.25 56.249997" height="75" preserveAspectRatio="xMidYMid meet" version="1.0"><defs><clipPath id="d024a16c59"><path d="M 7.785156 0 L 47.753906 0 L 47.753906 55.511719 L 7.785156 55.511719 Z M 7.785156 0 " clip-rule="nonzero"/></clipPath></defs><path fill="#cba135" d="M 22.34375 31.601562 C 24.117188 32.351562 25.996094 32.730469 27.9375 32.730469 C 29.875 32.730469 31.757812 32.351562 33.53125 31.601562 C 35.238281 30.878906 36.777344 29.84375 38.097656 28.527344 C 39.414062 27.207031 40.449219 25.671875 41.175781 23.964844 C 41.921875 22.195312 42.304688 20.3125 42.304688 18.375 C 42.304688 16.4375 41.921875 14.558594 41.175781 12.789062 C 40.449219 11.078125 39.414062 9.542969 38.097656 8.226562 C 36.777344 6.910156 35.238281 5.875 33.53125 5.152344 C 31.757812 4.402344 29.875 4.023438 27.9375 4.023438 C 25.996094 4.023438 24.117188 4.402344 22.34375 5.152344 C 20.632812 5.875 19.097656 6.910156 17.777344 8.226562 C 16.460938 9.546875 15.421875 11.078125 14.699219 12.789062 C 13.949219 14.558594 13.570312 16.4375 13.570312 18.375 C 13.570312 20.3125 13.949219 22.195312 14.699219 23.964844 C 15.421875 25.671875 16.460938 27.207031 17.777344 28.527344 C 19.097656 29.84375 20.632812 30.878906 22.34375 31.601562 Z M 14.726562 18.375 C 14.726562 16.59375 15.074219 14.867188 15.765625 13.238281 C 16.429688 11.667969 17.382812 10.253906 18.597656 9.042969 C 19.808594 7.832031 21.222656 6.878906 22.796875 6.214844 C 24.421875 5.527344 26.152344 5.175781 27.9375 5.175781 C 29.722656 5.175781 31.449219 5.527344 33.078125 6.214844 C 34.652344 6.878906 36.066406 7.832031 37.277344 9.042969 C 38.492188 10.253906 39.445312 11.667969 40.109375 13.238281 C 40.796875 14.867188 41.148438 16.59375 41.148438 18.375 C 41.148438 20.160156 40.796875 21.886719 40.109375 23.515625 C 39.445312 25.085938 38.492188 26.496094 37.277344 27.710938 C 36.066406 28.921875 34.652344 29.875 33.078125 30.539062 C 31.449219 31.226562 29.722656 31.574219 27.9375 31.574219 C 26.152344 31.574219 24.421875 31.226562 22.796875 30.539062 C 21.222656 29.875 19.808594 28.921875 18.597656 27.710938 C 17.382812 26.496094 16.429688 25.085938 15.765625 23.515625 C 15.074219 21.886719 14.726562 20.160156 14.726562 18.375 Z M 14.726562 18.375 " fill-opacity="1" fill-rule="nonzero"/><path fill="#cba135" d="M 23.550781 24.679688 C 23.65625 24.804688 23.804688 24.878906 23.964844 24.886719 C 23.976562 24.886719 23.988281 24.886719 23.996094 24.886719 C 24.144531 24.886719 24.292969 24.828125 24.398438 24.726562 L 35.214844 14.226562 C 35.445312 14.003906 35.449219 13.640625 35.226562 13.410156 C 35.003906 13.183594 34.636719 13.175781 34.410156 13.398438 L 24.039062 23.460938 L 20.515625 19.238281 C 20.3125 18.992188 19.945312 18.960938 19.703125 19.164062 C 19.457031 19.371094 19.421875 19.734375 19.628906 19.980469 Z M 23.550781 24.679688 " fill-opacity="1" fill-rule="nonzero"/><g clip-path="url(#d024a16c59)"><path fill="#cba135" d="M 47.671875 49.816406 L 40.53125 31.808594 C 40.746094 31.503906 40.90625 31.164062 41 30.800781 L 41 30.796875 C 41.144531 30.226562 41.554688 29.753906 42.101562 29.527344 C 42.675781 29.289062 43.15625 28.886719 43.492188 28.367188 C 43.828125 27.84375 43.996094 27.242188 43.976562 26.621094 L 43.976562 26.617188 C 43.953125 26.03125 44.214844 25.460938 44.671875 25.089844 C 44.671875 25.089844 44.671875 25.089844 44.675781 25.089844 C 45.160156 24.699219 45.507812 24.179688 45.683594 23.582031 C 45.855469 22.984375 45.84375 22.359375 45.648438 21.769531 C 45.460938 21.210938 45.550781 20.589844 45.886719 20.109375 L 45.886719 20.105469 C 45.886719 20.105469 45.886719 20.105469 45.890625 20.105469 C 46.242188 19.59375 46.429688 18.996094 46.429688 18.378906 C 46.429688 17.757812 46.242188 17.160156 45.886719 16.648438 C 45.550781 16.164062 45.460938 15.542969 45.648438 14.984375 C 45.84375 14.394531 45.855469 13.769531 45.683594 13.171875 C 45.507812 12.574219 45.160156 12.054688 44.671875 11.664062 C 44.214844 11.292969 43.953125 10.722656 43.976562 10.136719 L 43.976562 10.132812 C 43.996094 9.511719 43.828125 8.910156 43.492188 8.386719 C 43.15625 7.867188 42.675781 7.464844 42.101562 7.226562 C 41.554688 7 41.144531 6.527344 41 5.957031 L 41 5.953125 C 40.84375 5.355469 40.515625 4.820312 40.046875 4.414062 C 39.578125 4.007812 39.003906 3.757812 38.386719 3.691406 L 38.382812 3.691406 C 37.796875 3.628906 37.269531 3.289062 36.96875 2.78125 C 36.652344 2.246094 36.183594 1.828125 35.621094 1.570312 C 35.054688 1.3125 34.433594 1.234375 33.820312 1.34375 L 33.816406 1.34375 C 33.238281 1.445312 32.636719 1.269531 32.207031 0.871094 L 32.203125 0.867188 C 31.75 0.445312 31.183594 0.175781 30.566406 0.0898438 C 29.953125 0 29.335938 0.101562 28.777344 0.378906 C 28.25 0.644531 27.621094 0.644531 27.09375 0.378906 C 26.539062 0.101562 25.921875 0 25.304688 0.0898438 C 24.691406 0.175781 24.125 0.445312 23.671875 0.867188 L 23.667969 0.871094 C 23.238281 1.269531 22.632812 1.445312 22.054688 1.34375 C 21.441406 1.230469 20.820312 1.3125 20.253906 1.570312 C 19.6875 1.828125 19.222656 2.246094 18.90625 2.78125 C 18.605469 3.289062 18.078125 3.628906 17.492188 3.691406 L 17.488281 3.691406 C 16.871094 3.757812 16.296875 4.007812 15.828125 4.414062 C 15.359375 4.820312 15.03125 5.351562 14.875 5.957031 C 14.730469 6.527344 14.316406 7 13.773438 7.226562 C 13.773438 7.226562 13.769531 7.226562 13.769531 7.226562 C 13.195312 7.464844 12.714844 7.867188 12.378906 8.386719 C 12.042969 8.910156 11.878906 9.511719 11.898438 10.132812 L 11.898438 10.136719 C 11.917969 10.722656 11.660156 11.292969 11.199219 11.664062 C 10.714844 12.054688 10.367188 12.574219 10.191406 13.171875 C 10.015625 13.765625 10.027344 14.394531 10.226562 14.984375 C 10.410156 15.542969 10.324219 16.164062 9.988281 16.644531 L 9.984375 16.648438 C 9.632812 17.160156 9.445312 17.757812 9.445312 18.375 C 9.445312 18.996094 9.632812 19.59375 9.984375 20.105469 L 9.988281 20.105469 C 10.324219 20.589844 10.410156 21.210938 10.226562 21.769531 C 10.027344 22.359375 10.015625 22.984375 10.191406 23.582031 C 10.367188 24.179688 10.714844 24.699219 11.199219 25.089844 C 11.660156 25.460938 11.917969 26.03125 11.898438 26.617188 L 11.898438 26.621094 C 11.878906 27.242188 12.042969 27.84375 12.378906 28.367188 C 12.714844 28.886719 13.199219 29.289062 13.773438 29.527344 C 14.269531 29.734375 14.65625 30.148438 14.832031 30.652344 L 7.859375 49.675781 C 7.789062 49.871094 7.828125 50.089844 7.964844 50.25 C 8.097656 50.410156 8.3125 50.480469 8.515625 50.441406 L 16.46875 48.851562 L 21.582031 55.007812 C 21.695312 55.140625 21.859375 55.21875 22.027344 55.21875 C 22.058594 55.21875 22.09375 55.214844 22.125 55.207031 C 22.328125 55.171875 22.5 55.03125 22.570312 54.839844 L 27.828125 40.488281 L 33.644531 55.144531 C 33.722656 55.339844 33.894531 55.476562 34.101562 55.503906 C 34.128906 55.507812 34.15625 55.511719 34.183594 55.511719 C 34.359375 55.511719 34.53125 55.425781 34.640625 55.285156 L 39.332031 49.160156 L 47.03125 50.59375 C 47.238281 50.632812 47.449219 50.558594 47.582031 50.394531 C 47.714844 50.234375 47.75 50.011719 47.671875 49.816406 Z M 14.214844 28.460938 C 13.859375 28.3125 13.5625 28.0625 13.351562 27.742188 C 13.144531 27.417969 13.042969 27.042969 13.054688 26.660156 L 13.054688 26.65625 C 13.070312 26.1875 12.976562 25.714844 12.78125 25.289062 C 12.585938 24.867188 12.292969 24.484375 11.925781 24.191406 C 11.625 23.949219 11.410156 23.625 11.300781 23.257812 C 11.191406 22.886719 11.199219 22.5 11.324219 22.136719 C 11.46875 21.691406 11.515625 21.210938 11.449219 20.746094 C 11.382812 20.285156 11.203125 19.835938 10.9375 19.449219 L 10.933594 19.445312 C 10.714844 19.128906 10.601562 18.761719 10.601562 18.375 C 10.601562 17.992188 10.714844 17.625 10.933594 17.308594 L 10.9375 17.304688 C 11.203125 16.917969 11.382812 16.46875 11.449219 16.007812 C 11.515625 15.542969 11.46875 15.0625 11.320312 14.617188 C 11.199219 14.253906 11.191406 13.863281 11.300781 13.496094 C 11.410156 13.128906 11.625 12.804688 11.925781 12.5625 C 12.292969 12.269531 12.585938 11.886719 12.78125 11.460938 C 12.976562 11.035156 13.070312 10.566406 13.054688 10.097656 L 13.054688 10.09375 C 13.039062 9.710938 13.144531 9.335938 13.351562 9.011719 C 13.558594 8.6875 13.859375 8.441406 14.214844 8.292969 C 14.648438 8.113281 15.039062 7.832031 15.347656 7.476562 C 15.65625 7.125 15.878906 6.695312 15.996094 6.242188 C 16.089844 5.867188 16.292969 5.539062 16.585938 5.285156 C 16.875 5.035156 17.230469 4.878906 17.613281 4.839844 L 17.617188 4.839844 C 18.082031 4.789062 18.539062 4.628906 18.929688 4.375 C 19.324219 4.121094 19.660156 3.773438 19.898438 3.371094 C 20.097656 3.039062 20.382812 2.777344 20.734375 2.621094 C 21.085938 2.460938 21.46875 2.410156 21.847656 2.480469 L 21.851562 2.480469 C 22.3125 2.5625 22.792969 2.535156 23.242188 2.40625 C 23.691406 2.273438 24.109375 2.035156 24.453125 1.71875 L 24.457031 1.714844 C 24.738281 1.453125 25.089844 1.285156 25.46875 1.230469 C 25.851562 1.175781 26.234375 1.238281 26.578125 1.410156 C 26.996094 1.621094 27.46875 1.734375 27.9375 1.734375 C 28.40625 1.734375 28.878906 1.621094 29.296875 1.410156 C 29.640625 1.238281 30.023438 1.175781 30.40625 1.230469 C 30.785156 1.285156 31.136719 1.453125 31.417969 1.714844 L 31.417969 1.71875 C 31.761719 2.035156 32.183594 2.273438 32.632812 2.40625 C 33.082031 2.535156 33.5625 2.5625 34.023438 2.480469 C 34.402344 2.410156 34.789062 2.460938 35.140625 2.621094 C 35.488281 2.777344 35.777344 3.039062 35.972656 3.367188 C 35.972656 3.371094 35.972656 3.371094 35.972656 3.371094 C 36.214844 3.773438 36.546875 4.121094 36.941406 4.375 C 37.335938 4.628906 37.792969 4.789062 38.257812 4.839844 L 38.261719 4.839844 C 38.644531 4.878906 39 5.035156 39.289062 5.285156 C 39.578125 5.539062 39.78125 5.867188 39.878906 6.242188 C 39.996094 6.695312 40.21875 7.125 40.527344 7.476562 C 40.832031 7.832031 41.226562 8.113281 41.660156 8.292969 C 42.015625 8.441406 42.3125 8.691406 42.523438 9.011719 C 42.730469 9.335938 42.832031 9.710938 42.820312 10.09375 L 42.820312 10.097656 C 42.804688 10.566406 42.898438 11.035156 43.09375 11.460938 C 43.289062 11.886719 43.582031 12.269531 43.949219 12.5625 C 44.25 12.804688 44.464844 13.128906 44.574219 13.496094 C 44.679688 13.863281 44.671875 14.25 44.550781 14.617188 C 44.402344 15.0625 44.359375 15.542969 44.425781 16.007812 C 44.492188 16.46875 44.667969 16.917969 44.9375 17.304688 L 44.9375 17.308594 C 45.15625 17.625 45.273438 17.992188 45.273438 18.378906 C 45.273438 18.761719 45.15625 19.128906 44.9375 19.445312 L 44.9375 19.449219 C 44.667969 19.835938 44.492188 20.285156 44.425781 20.746094 C 44.359375 21.210938 44.402344 21.691406 44.550781 22.136719 C 44.671875 22.5 44.679688 22.890625 44.574219 23.257812 C 44.464844 23.625 44.25 23.949219 43.949219 24.191406 C 43.582031 24.484375 43.289062 24.867188 43.09375 25.292969 C 42.898438 25.71875 42.804688 26.1875 42.820312 26.65625 L 42.820312 26.660156 C 42.832031 27.042969 42.730469 27.417969 42.523438 27.742188 C 42.3125 28.0625 42.015625 28.3125 41.660156 28.460938 C 41.226562 28.640625 40.832031 28.921875 40.527344 29.277344 C 40.21875 29.628906 39.996094 30.058594 39.878906 30.511719 C 39.800781 30.8125 39.652344 31.085938 39.449219 31.3125 C 39.445312 31.316406 39.441406 31.316406 39.4375 31.320312 C 39.390625 31.371094 39.34375 31.421875 39.289062 31.464844 C 39 31.71875 38.644531 31.875 38.261719 31.914062 L 38.257812 31.914062 C 37.792969 31.964844 37.335938 32.125 36.941406 32.378906 C 36.546875 32.632812 36.214844 32.980469 35.972656 33.382812 C 35.972656 33.382812 35.972656 33.386719 35.972656 33.386719 C 35.777344 33.714844 35.488281 33.976562 35.140625 34.132812 C 34.789062 34.292969 34.40625 34.34375 34.027344 34.273438 L 34.023438 34.273438 C 33.5625 34.191406 33.082031 34.21875 32.632812 34.347656 C 32.183594 34.480469 31.761719 34.71875 31.417969 35.039062 C 31.136719 35.300781 30.785156 35.46875 30.40625 35.523438 C 30.023438 35.578125 29.640625 35.515625 29.296875 35.34375 C 29.261719 35.324219 29.222656 35.304688 29.183594 35.289062 C 29.171875 35.285156 29.160156 35.277344 29.148438 35.273438 C 28.769531 35.109375 28.351562 35.019531 27.9375 35.019531 C 27.46875 35.019531 26.996094 35.132812 26.578125 35.34375 C 26.234375 35.515625 25.851562 35.578125 25.46875 35.523438 C 25.089844 35.46875 24.738281 35.300781 24.457031 35.039062 L 24.453125 35.035156 C 24.109375 34.71875 23.691406 34.480469 23.242188 34.347656 C 22.792969 34.21875 22.3125 34.191406 21.851562 34.273438 C 21.851562 34.273438 21.851562 34.273438 21.847656 34.273438 C 21.46875 34.34375 21.085938 34.292969 20.734375 34.132812 C 20.386719 33.976562 20.097656 33.714844 19.898438 33.382812 C 19.660156 32.980469 19.324219 32.632812 18.933594 32.378906 C 18.539062 32.125 18.082031 31.964844 17.617188 31.914062 L 17.613281 31.914062 C 17.230469 31.875 16.875 31.71875 16.585938 31.46875 C 16.296875 31.214844 16.089844 30.886719 15.996094 30.515625 L 15.996094 30.511719 C 15.878906 30.058594 15.65625 29.628906 15.347656 29.277344 C 15.039062 28.921875 14.648438 28.640625 14.214844 28.460938 Z M 27.265625 38.667969 L 21.832031 53.496094 L 17.140625 47.851562 C 17.003906 47.6875 16.789062 47.609375 16.582031 47.652344 L 9.300781 49.105469 L 15.546875 32.0625 C 15.632812 32.160156 15.726562 32.253906 15.828125 32.339844 C 16.296875 32.746094 16.871094 32.996094 17.488281 33.0625 L 17.492188 33.0625 C 18.078125 33.125 18.605469 33.464844 18.90625 33.972656 C 19.222656 34.507812 19.6875 34.925781 20.253906 35.183594 C 20.820312 35.441406 21.441406 35.519531 22.050781 35.410156 L 22.054688 35.410156 C 22.632812 35.304688 23.238281 35.484375 23.667969 35.882812 L 23.667969 35.886719 C 24.125 36.308594 24.691406 36.578125 25.304688 36.664062 C 25.921875 36.753906 26.539062 36.652344 27.09375 36.375 C 27.429688 36.207031 27.808594 36.144531 28.171875 36.191406 Z M 39.195312 47.957031 C 38.980469 47.917969 38.765625 48 38.632812 48.175781 L 34.34375 53.769531 L 28.425781 38.855469 L 29.265625 36.566406 C 29.546875 36.652344 29.839844 36.695312 30.136719 36.695312 C 30.277344 36.695312 30.421875 36.6875 30.566406 36.664062 C 31.183594 36.578125 31.75 36.308594 32.203125 35.882812 L 32.207031 35.882812 C 32.636719 35.484375 33.238281 35.308594 33.816406 35.410156 C 33.820312 35.410156 33.820312 35.410156 33.820312 35.410156 C 34.433594 35.519531 35.054688 35.441406 35.621094 35.183594 C 36.183594 34.925781 36.652344 34.507812 36.96875 33.972656 C 36.96875 33.972656 36.96875 33.972656 36.96875 33.96875 C 37.269531 33.464844 37.796875 33.125 38.382812 33.0625 L 38.386719 33.0625 C 38.828125 33.015625 39.246094 32.875 39.621094 32.648438 L 46.210938 49.269531 Z M 39.195312 47.957031 " fill-opacity="1" fill-rule="nonzero"/></g></svg>